<?xml version="1.0" encoding="UTF-8" standalone="no"?>
<svg width="1200px" height="70px" viewBox="0 0 1200 70" version="1.1" xmlns="http://www.w3.org/2000/svg" xmlns:xlink="http://www.w3.org/1999/xlink" xmlns:sketch="http://www.bohemiancoding.com/sketch/ns">
    <!-- Generator: Sketch 3.5.2 (25235) - http://www.bohemiancoding.com/sketch -->
    <title>Fill 6 Copy 7</title>
    <desc>Created with Sketch.</desc>
    <defs></defs>
    <g id="Desktop" stroke="none" stroke-width="1" fill="none" fill-rule="evenodd" sketch:type="MSPage">
        <g id="Timeline---Desktop" sketch:type="MSArtboardGroup" transform="translate(0.000000, -7219.000000)" fill="#575E70">
            <path d="M88.3686409,7277.36372 C86.842825,7277.50295 84.3111009,7277.60902 84.0624494,7276.95932 C85.0740088,7276.70076 89.0354789,7276.62949 88.3686409,7277.36372 L88.3686409,7277.36372 Z M143.806617,7276.42729 C139.946868,7277.52284 132.730324,7276.8317 125.095594,7276.98086 C129.407436,7275.88531 138.449308,7276.39745 143.806617,7276.42729 L143.806617,7276.42729 Z M443.2282,7278.87528 C443.160386,7279.37416 440.244383,7279.27969 439.475823,7279.02114 C439.543637,7278.52391 442.459641,7278.61673 443.2282,7278.87528 L443.2282,7278.87528 Z M387.326828,7278.34988 C387.140339,7278.92335 382.687218,7278.72943 381.715216,7278.47916 C383.077148,7278.2753 386.072268,7278.01343 387.326828,7278.34988 L387.326828,7278.34988 Z M346.94922,7277.97034 C340.399514,7278.8902 330.408245,7278.22226 319.56365,7278.26038 C303.254374,7278.31674 278.54746,7279.0029 263.639674,7277.9173 C265.905793,7276.74551 270.257194,7277.47974 273.642244,7277.46317 C297.473228,7277.34384 326.079449,7277.01898 346.94922,7277.97034 L346.94922,7277.97034 Z M170.576209,7276.13061 C163.568758,7276.81678 155.346306,7276.66098 145.032921,7276.6212 C146.829993,7275.61847 152.108186,7276.19691 155.02984,7276.16707 C160.799685,7276.10741 166.439552,7275.81073 170.576209,7276.13061 L170.576209,7276.13061 Z M427.693134,7278.72943 C419.589357,7279.12555 408.524366,7279.19848 399.725495,7278.64656 C407.563667,7277.96371 420.301404,7277.98691 427.693134,7278.72943 L427.693134,7278.72943 Z M198.543848,7276.21182 C198.668174,7277.16484 193.084818,7276.70573 193.593423,7275.98144 C194.531518,7275.74443 198.555151,7275.65659 198.543848,7276.21182 L198.543848,7276.21182 Z M190.473978,7276.13558 C189.157255,7276.72894 185.224041,7276.50353 183.539992,7276.98252 C183.483481,7276.46706 180.612686,7276.72728 181.155199,7276.04774 C184.099458,7276.03117 189.236371,7275.54554 190.473978,7276.13558 L190.473978,7276.13558 Z M218.50378,7275.66985 C216.373289,7276.41734 208.529465,7276.27481 205.997741,7276.28143 C208.35993,7275.5124 213.496844,7275.61018 218.50378,7275.66985 L218.50378,7275.66985 Z M235.327313,7275.28036 C236.361477,7275.2903 237.401292,7275.30025 238.435456,7275.31019 C238.593689,7275.93338 234.762196,7276.04443 235.327313,7275.28036 L235.327313,7275.28036 Z M328.537708,7275.79084 C327.271846,7275.66985 324.186307,7276.04443 324.853145,7275.39306 C326.390264,7275.26047 328.464243,7275.11296 328.537708,7275.79084 L328.537708,7275.79084 Z M1074.18131,7268.57282 C1074.48083,7269.017 1069.25349,7269.18772 1069.83556,7268.53304 C1070.68889,7268.28111 1073.37885,7268.30597 1074.18131,7268.57282 L1074.18131,7268.57282 Z M1080.45411,7268.08554 C1079.75337,7268.55624 1077.86588,7268.65734 1075.42457,7268.58608 C1074.50343,7267.6198 1079.1826,7267.78389 1080.45411,7268.08554 L1080.45411,7268.08554 Z M1090.46799,7267.45075 C1089.33775,7268.29106 1085.29151,7268.21813 1081.67476,7268.27945 C1081.94037,7267.16899 1087.54068,7267.72754 1090.46799,7267.45075 L1090.46799,7267.45075 Z M1242.82918,7221.65317 C1234.45979,7219.79521 1217.3311,7219.6477 1204.44078,7220.19796 C1196.53479,7218.68972 1181.53659,7218.96982 1168.49369,7219.13225 C1161.41277,7219.21843 1153.40506,7219.21014 1147.93473,7219.48527 C1142.60568,7219.75543 1137.72872,7220.48801 1132.26969,7220.61397 C1123.43126,7220.81949 1119.01204,7220.99352 1112.29845,7221.33826 C1105.22884,7221.70123 1097.71278,7221.8736 1090.43973,7222.22663 C1078.80397,7222.79347 1067.29254,7223.97852 1056.64008,7224.28016 C1050.76852,7224.44756 1049.38963,7224.80888 1045.36035,7225.08567 C1038.81064,7225.53482 1031.84275,7225.11716 1025.40607,7225.62764 C1023.35469,7225.80332 1023.6542,7226.71324 1021.53502,7226.86904 C980.162801,7229.47781 927.363921,7229.75128 886.138637,7231.24792 C879.984513,7230.40927 872.779271,7231.09544 864.421191,7230.86174 C862.121165,7230.77224 862.714538,7231.58603 860.013279,7231.36725 C857.340275,7231.45675 857.543718,7230.7507 855.102412,7230.77556 C834.469991,7231.891 808.502866,7230.16729 788.463817,7231.78989 C786.864536,7231.7584 787.8987,7231.00428 785.417837,7231.21311 C783.117811,7231.12361 783.716835,7231.9374 781.009924,7231.72028 C779.506713,7231.60426 779.766667,7231.00262 777.342315,7231.13853 C774.539335,7231.54294 771.730703,7231.10538 768.588653,7231.60426 C761.406016,7230.67446 754.183821,7231.64901 746.809044,7231.76337 C742.299411,7231.83299 737.868894,7231.36062 733.184074,7231.27112 C721.107524,7231.03743 704.589154,7231.2214 693.433745,7230.89655 C669.105459,7230.19215 644.099032,7231.00925 624.432961,7230.79545 C564.62098,7230.14408 498.92613,7234.15336 445.793831,7232.58214 C412.943581,7233.18046 371.690041,7231.24295 338.862395,7232.48932 C326.932776,7231.46504 304.271585,7232.249 292.319361,7231.68713 C281.649952,7232.59208 266.753468,7231.59763 254.371755,7231.87774 C252.535125,7231.91917 250.664588,7232.30203 248.720585,7232.37164 C236.81357,7232.79926 223.900647,7232.30038 211.394608,7232.56888 C184.189877,7233.15063 157.273355,7233.45062 130.469856,7233.4473 C108.695899,7233.44565 86.7411039,7234.33899 65.1197281,7234.11193 C23.9000952,7233.67603 -16.867444,7233.68431 -56.9003312,7235.51575 C-58.8273801,7236.90964 -66.7446691,7236.64114 -68.3948107,7238.32672 C-70.1862315,7240.1449 -68.2309268,7242.25147 -65.8913425,7243.82104 C-66.275622,7244.51715 -70.5083482,7244.00998 -70.3614178,7244.8735 C-65.5579234,7246.02208 -66.3490872,7250.8236 -70.5535576,7252.34842 C-67.2871814,7253.61302 -71.1186746,7256.40908 -67.4228095,7257.84771 C-74.1590039,7261.3117 -64.3824801,7265.23479 -71,7267.84356 C-66.609041,7269.23081 -63.2861532,7272.17934 -66.7672738,7274.63065 C-64.1564333,7275.91846 -63.7099909,7278.32834 -61.0369876,7279.05926 C-48.6835303,7278.388 -35.8610259,7279.02114 -26.0562462,7277.56593 C-26.8022006,7277.8278 -26.8248053,7278.0184 -26.1297114,7278.29353 C-19.9473316,7278.46922 -17.6812125,7277.42008 -12.9511833,7277.14163 C-11.4366698,7277.61234 -14.2000919,7277.70681 -14.9121393,7278.03498 C-7.63343251,7278.99296 2.29567291,7278.43938 11.1736607,7278.28027 C14.9712469,7278.21232 19.4978339,7278.56535 20.5885097,7277.45654 C18.7405772,7277.19964 15.2707589,7277.38859 13.7958036,7277.02893 C15.2142472,7276.53005 19.6617179,7276.61955 21.2892548,7276.73391 C21.4587899,7277.74327 29.449544,7277.8941 31.1674997,7277.37367 C29.9920563,7277.28748 28.5057987,7277.28251 28.7431478,7276.80352 C32.4164082,7276.36431 37.2425072,7276.70905 37.9771593,7277.62062 C40.0454875,7277.63885 42.125118,7277.65874 44.1934462,7277.67863 C45.0580751,7277.22947 41.7973501,7277.08528 43.6509339,7276.9444 C49.1608245,7277.09854 59.5194188,7276.4422 66.6511951,7276.9792 C65.9108919,7277.43665 63.0457488,7277.23113 63.4243771,7278.04161 C74.5910888,7279.40897 86.2155451,7277.79631 97.0262331,7277.81123 C97.3992103,7277.24108 94.9353002,7277.30903 96.5063254,7276.89302 C100.213493,7276.80352 104.660964,7276.24331 107.684339,7276.99909 C105.389964,7277.22284 101.45675,7276.93611 100.772959,7277.66372 C104.090195,7278.60015 107.000548,7277.42505 110.752925,7277.3919 C112.685625,7277.56759 113.295951,7278.10459 115.641187,7278.16591 C145.728015,7277.82283 177.431078,7277.52284 207.760906,7277.20959 C218.351199,7277.10185 229.862631,7277.10517 240.00083,7278.05818 C222.278762,7279.02114 202.878295,7278.51894 182.098944,7278.79076 C165.2189,7279.01451 148.576204,7279.54488 132.888557,7279.6062 C127.344759,7279.62775 121.422333,7279.04931 116.664048,7280.18298 C118.619353,7281.25864 122.671242,7280.62219 125.315989,7280.62882 C136.550515,7280.657 148.870065,7280.05702 160.178056,7280.22607 C187.094578,7280.6338 212.993889,7279.36588 238.565433,7279.86973 C244.527417,7279.98741 249.489144,7280.06862 254.089197,7280.01558 C323.372539,7279.21837 399.380773,7281.39123 469.087953,7281.12439 C479.197896,7281.72769 493.732705,7281.9763 505.718836,7281.65145 C537.274969,7280.79291 571.617128,7279.61117 604.133959,7280.02221 C606.02145,7280.04707 607.76201,7280.25922 609.700362,7280.25756 C682.696522,7280.17469 760.660062,7280.42993 832.294291,7280.16143 C836.877389,7279.06754 845.105493,7280.11668 852.237269,7279.80012 C853.881759,7279.72719 855.520599,7279.3493 857.26681,7279.30124 C877.724045,7278.72777 900.01791,7280.06862 915.225208,7278.02172 C903.216472,7277.55433 883.126563,7278.28027 875.553996,7276.91954 C879.685001,7275.9483 888.732524,7276.51844 891.897179,7275.25053 C896.480278,7275.71792 904.725335,7275.62676 908.732014,7274.86103 C900.01791,7274.5511 891.365969,7275.29693 884.528054,7274.45165 C901.136842,7272.79756 922.085728,7273.5782 942.458196,7273.53676 C969.374718,7273.48041 996.376007,7271.55284 1020.41608,7271.35229 C1022.15664,7271.59428 1017.64701,7271.85449 1019.69273,7272.25558 C1022.61439,7272.16608 1024.20237,7271.65726 1027.82477,7271.78488 C1027.82477,7270.77386 1023.26992,7272.10642 1022.26967,7271.36887 C1024.93137,7270.56668 1030.74077,7270.749 1034.21059,7270.20371 C1036.15459,7270.30647 1036.01896,7271.56279 1038.48287,7270.9744 C1040.03695,7270.85507 1036.48801,7270.40591 1038.57894,7270.06283 C1046.85226,7269.63522 1056.27276,7268.56287 1064.82298,7268.8496 C1061.27969,7270.12913 1050.63854,7269.18772 1047.23654,7270.50867 C1055.96194,7270.38934 1064.89644,7269.30539 1074.1248,7269.11976 C1077.50985,7269.05181 1080.6293,7269.43798 1084.04261,7269.39489 C1087.00947,7269.35843 1089.28689,7268.89933 1092.19724,7268.74353 C1097.72409,7268.44685 1103.70302,7268.46674 1109.04903,7268.17172 C1113.27611,7267.93803 1118.60516,7266.69497 1122.13149,7267.92974 C1119.46414,7268.9822 1111.72203,7268.44354 1110.1058,7269.82416 C1112.70534,7270.1689 1113.19699,7271.09208 1115.51962,7271.51638 C1120.07446,7271.13186 1124.40326,7271.29097 1128.60773,7271.27274 C1137.3953,7271.23793 1146.91187,7270.05786 1156.12893,7269.70814 C1166.32364,7269.32031 1174.67607,7269.9435 1184.67864,7270.15896 C1189.17697,7270.25675 1195.49498,7269.53246 1197.64242,7271.01087 C1186.31183,7271.49649 1172.65295,7272.20255 1161.40147,7272.67491 C1152.90776,7273.03291 1154.24144,7273.52019 1149.38708,7274.56933 C1146.26199,7275.24224 1140.84816,7275.35991 1141.68454,7276.68419 C1147.00794,7278.04326 1153.69327,7276.68253 1160.29949,7277.04219 C1163.91059,7277.2361 1166.85485,7278.07973 1170.7372,7278.23387 C1180.15205,7278.60844 1190.01334,7277.60571 1200.57538,7278.33165 C1202.59285,7278.36646 1200.8975,7279.42223 1203.5818,7279.2714 C1208.06883,7279.15373 1211.38042,7279.55151 1215.36449,7279.56477 C1222.72796,7279.58963 1227.93269,7278.57032 1232.27279,7278.44767 C1241.43334,7278.18912 1251.36244,7279.65592 1260.18392,7279.07417 C1263.16208,7278.87694 1265.48472,7278.14105 1269.01105,7277.88084 C1269.40098,7276.96097 1269.41793,7275.88034 1270,7274.60745 C1267.94863,7273.63952 1264.60878,7273.02628 1264.74441,7271.45837 C1258.47161,7270.72911 1248.69509,7271.6788 1248.15258,7269.66174 C1254.09196,7269.60207 1261.91318,7269.33523 1263.29771,7267.61483 C1264.80092,7265.75356 1258.77113,7263.9619 1255.75905,7262.6194 C1259.50578,7261.67136 1258.13819,7259.5797 1259.42101,7257.54938 C1265.02132,7256.17207 1266.60365,7253.38762 1263.88543,7250.84515 C1262.91343,7249.99324 1258.98587,7249.95512 1258.49422,7248.97062 C1260.87901,7248.01429 1263.32032,7246.28064 1260.15566,7245.15691 C1253.77549,7244.60831 1247.34446,7245.15691 1244.1459,7243.72988 C1243.47906,7242.89289 1245.92602,7243.03046 1245.54739,7242.28462 C1242.00976,7240.75151 1230.68481,7242.03767 1228.97816,7240.30567 C1233.34086,7239.78524 1239.78319,7239.91452 1243.99897,7239.351 C1244.02722,7238.23059 1247.757,7238.26706 1249.76881,7237.76486 C1247.33316,7237.7284 1245.11225,7237.63392 1243.60339,7237.34222 C1243.4508,7236.70743 1246.83585,7236.68091 1244.98227,7236.07927 C1237.94091,7235.13952 1226.67248,7235.79917 1220.29796,7234.38871 C1221.11173,7233.11914 1216.07089,7232.66666 1216.83379,7231.98547 C1223.51913,7230.93798 1236.62419,7231.89597 1238.86771,7229.45792 C1238.02003,7228.02094 1228.30567,7229.00213 1227.80271,7228.25961 C1227.07371,7227.17898 1238.79989,7227.51046 1239.86796,7226.00221 C1238.34215,7225.65416 1235.81607,7225.58455 1234.99665,7225.04423 C1238.65296,7224.80391 1240.94734,7224.1426 1244.45106,7223.85587 C1244.72797,7222.62275 1249.37323,7222.76032 1250.88209,7221.91007 C1249.63884,7221.04656 1245.97688,7221.9399 1242.82918,7221.65317 L1242.82918,7221.65317 Z M-28.277156,7280.82606 C-30.4924145,7280.91887 -34.600815,7280.28243 -35.7875607,7281.30339 C-22.1625902,7281.67465 -5.853314,7280.91556 10.2751247,7280.8244 C20.3794164,7280.76805 30.3198242,7281.52217 38.3049272,7280.35867 C16.5931326,7279.90951 -8.15334013,7280.00067 -28.277156,7280.82606 L-28.277156,7280.82606 Z M69.9797342,7280.65534 C84.2263334,7280.97688 100.580819,7281.4625 111.69667,7280.13657 C99.3262592,7280.21281 79.9992583,7279.80509 69.9797342,7280.65534 L69.9797342,7280.65534 Z M755.150171,7286.36512 C744.995019,7286.47783 734.529052,7286.36181 724.690366,7286.26071 C679.661844,7285.79497 633.429624,7285.62923 591.074106,7285.73365 C576.635367,7285.77011 563.292955,7286.53252 549.278054,7286.98334 C536.438596,7287.39603 523.220509,7286.7397 512.477636,7288.09712 C522.265462,7287.79215 532.64101,7288.40042 542.926139,7288.19988 C554.194571,7287.9811 565.140887,7287.53691 576.567553,7287.60487 C607.072568,7287.78055 637.317629,7287.98441 663.584266,7287.87337 C686.437597,7287.7789 709.584789,7288.54793 731.923863,7288.33413 C754.240333,7288.12032 776.144267,7288.0706 799.10497,7288.05403 C818.33025,7288.03911 834.543456,7288.27115 849.592522,7286.88721 C818.347203,7286.2922 787.836537,7286.00049 755.150171,7286.36512 L755.150171,7286.36512 Z M851.440454,7287.0861 C854.870714,7286.77782 861.109606,7287.34797 863.296608,7286.6502 C860.335395,7286.40159 852.96627,7286.26899 851.440454,7287.0861 L851.440454,7287.0861 Z M913.06081,7275.08313 C917.474374,7275.14611 921.769263,7275.16931 924.900011,7274.8312 C921.99531,7274.54281 915.507767,7274.61739 913.06081,7275.08313 L913.06081,7275.08313 Z M989.436371,7275.9831 C983.77955,7276.13227 977.043355,7275.84554 973.172304,7276.92451 C976.190028,7277.21456 979.77287,7277.25102 983.090107,7277.19964 C994.737168,7277.02561 1008.95551,7276.6527 1016.24552,7275.32345 C1007.50316,7274.84943 998.489545,7275.74443 989.436371,7275.9831 L989.436371,7275.9831 Z M928.002503,7274.85938 C934.716093,7274.76159 943.028964,7275.16103 947.340806,7274.31077 C940.847612,7274.47817 933.173324,7274.27763 928.002503,7274.85938 L928.002503,7274.85938 Z M949.804716,7274.51795 C952.279929,7274.28591 956.721748,7274.67043 957.942401,7274.04559 C955.348514,7274.2395 950.901043,7273.85333 949.804716,7274.51795 L949.804716,7274.51795 Z M984.723295,7273.56825 C987.565833,7273.75554 991.696839,7273.58814 994.104237,7273.10915 C990.900024,7273.24009 986.429948,7272.97324 984.723295,7273.56825 L984.723295,7273.56825 Z M997.811404,7273.32627 C1000.73306,7273.23677 1003.76209,7273.17876 1005.34441,7272.66828 C1002.77878,7272.87048 998.427382,7272.51248 997.811404,7273.32627 L997.811404,7273.32627 Z M1009.69581,7272.70971 C1012.85482,7272.75446 1015.09833,7272.51911 1016.60154,7272.04509 C1013.79291,7272.10807 1010.37961,7271.98211 1009.69581,7272.70971 L1009.69581,7272.70971 Z M1040.66423,7273.72902 C1048.36112,7274.15663 1058.74232,7274.24448 1066.81219,7273.42737 C1069.10091,7273.19699 1070.39503,7272.7064 1072.49727,7272.57049 C1074.44692,7272.44287 1076.74129,7272.70308 1078.71355,7272.6285 C1081.54479,7272.52243 1084.56251,7271.94068 1087.51242,7271.7998 C1093.27097,7271.52301 1103.48263,7272.12962 1103.87256,7269.94681 C1085.07677,7271.54455 1058.95706,7271.46666 1040.66423,7273.72902 L1040.66423,7273.72902 Z M1247.37837,7225.52654 C1247.34446,7226.20276 1244.55843,7226.02376 1242.34883,7226.02542 C1243.05522,7225.55471 1244.93706,7225.45361 1247.37837,7225.52654 L1247.37837,7225.52654 Z" id="Fill-6-Copy-7" sketch:type="MSShapeGroup"></path>
        </g>
    </g>
</svg>