<?xml version="1.0" encoding="UTF-8" standalone="no"?>
<svg width="323px" height="441px" viewBox="0 0 323 441" version="1.1" xmlns="http://www.w3.org/2000/svg" xmlns:xlink="http://www.w3.org/1999/xlink" xmlns:sketch="http://www.bohemiancoding.com/sketch/ns">
    <!-- Generator: Sketch 3.5.2 (25235) - http://www.bohemiancoding.com/sketch -->
    <title>golf copy 2</title>
    <desc>Created with Sketch.</desc>
    <defs></defs>
    <g id="Desktop" stroke="none" stroke-width="1" fill="none" fill-rule="evenodd" sketch:type="MSPage">
        <g id="Timeline---Desktop" sketch:type="MSArtboardGroup" transform="translate(-22.000000, -11014.000000)" fill="#F2EDE8">
            <path d="M345,11175.7 C345,11264.8628 272.552568,11337.4 183.5,11337.4 C179.440477,11337.4 176.159091,11334.1072 176.159091,11330.05 C176.159091,11325.9928 179.440477,11322.7 183.5,11322.7 C264.455545,11322.7 330.318182,11256.7558 330.318182,11175.7 C330.318182,11094.6442 264.455545,11028.7 183.5,11028.7 C102.544455,11028.7 36.6818182,11094.6442 36.6818182,11175.7 C36.6818182,11245.841 86.4972273,11306.5079 155.134727,11319.9585 C159.1135,11320.7375 161.704841,11324.5963 160.926705,11328.58 C160.141227,11332.5637 156.331295,11335.1583 152.308477,11334.3865 C76.8072273,11319.5909 22,11252.853 22,11175.7 C22,11086.5372 94.4474318,11014 183.5,11014 C272.552568,11014 345,11086.5372 345,11175.7 L345,11175.7 Z M240.597591,11201.6896 C249.186455,11193.0974 263.163545,11193.0827 271.745068,11201.6822 C280.333932,11210.2891 280.333932,11224.2761 271.745068,11232.8756 C270.313591,11234.3089 268.434318,11235.0292 266.555045,11235.0292 C264.683114,11235.0292 262.803841,11234.3089 261.365023,11232.8756 C258.502068,11230.0018 258.502068,11225.3492 261.365023,11222.4827 C264.227977,11219.6162 264.227977,11214.949 261.365023,11212.0825 C258.494727,11209.216 253.840591,11209.216 250.977636,11212.0825 C248.114682,11214.9564 243.467886,11214.9564 240.597591,11212.0825 C237.734636,11209.216 237.734636,11204.5634 240.597591,11201.6896 L240.597591,11201.6896 Z M152.359864,11113.3353 C155.215477,11110.4688 155.215477,11105.8088 152.359864,11102.9423 C149.489568,11100.0832 144.842773,11100.0758 141.979818,11102.9423 C139.109523,11105.8162 134.462727,11105.8162 131.599773,11102.9423 C128.729477,11100.0685 128.729477,11095.4233 131.599773,11092.5495 C140.195977,11083.95 154.158386,11083.9573 162.739909,11092.5421 C171.328773,11101.1416 171.328773,11115.1287 162.739909,11123.7282 C161.308432,11125.1688 159.429159,11125.8817 157.549886,11125.8817 C155.670614,11125.8817 153.791341,11125.1688 152.359864,11123.7282 C149.489568,11120.8617 149.489568,11116.2091 152.359864,11113.3353 L152.359864,11113.3353 Z M219.8375,11149.7177 C222.700455,11146.8512 222.700455,11142.184 219.8375,11139.3249 C216.981886,11136.4584 212.32775,11136.451 209.450114,11139.3249 C206.587159,11142.184 201.940364,11142.1913 199.070068,11139.3175 C196.199773,11136.451 196.199773,11131.7911 199.070068,11128.9246 C207.666273,11120.3251 221.636023,11120.3398 230.217545,11128.932 C238.799068,11137.5241 238.799068,11151.5112 230.217545,11160.1107 C228.786068,11161.5439 226.906795,11162.2642 225.027523,11162.2642 C223.14825,11162.2642 221.276318,11161.5439 219.8375,11160.1107 C216.974545,11157.2442 216.974545,11152.5842 219.8375,11149.7177 L219.8375,11149.7177 Z M271.745068,11087.353 C280.326591,11095.9525 280.326591,11109.9395 271.745068,11118.5317 C270.313591,11119.9649 268.434318,11120.6853 266.555045,11120.6853 C264.683114,11120.6853 262.803841,11119.9649 261.365023,11118.5317 C258.502068,11115.6652 258.502068,11111.0127 261.365023,11108.1388 C264.227977,11105.2723 264.227977,11100.6124 261.365023,11097.7459 C258.509409,11094.8794 253.855273,11094.8794 250.977636,11097.7459 C248.114682,11100.6124 243.467886,11100.6124 240.597591,11097.7459 C237.734636,11094.872 237.734636,11090.2195 240.597591,11087.3456 C249.186455,11078.7535 263.163545,11078.7462 271.745068,11087.353 L271.745068,11087.353 Z M287.322477,11165.2998 C288.709909,11163.9179 289.473364,11162.0731 289.473364,11160.1107 C289.473364,11158.1482 288.709909,11156.3034 287.322477,11154.9142 C284.466864,11152.0477 279.805386,11152.0477 276.942432,11154.9142 C274.072136,11157.7807 269.425341,11157.7807 266.555045,11154.9142 C263.692091,11152.0403 263.692091,11147.3878 266.555045,11144.514 C275.15125,11135.9218 289.121,11135.9218 297.702523,11144.5213 C301.857477,11148.6814 304.155182,11154.2233 304.155182,11160.1107 C304.155182,11165.998 301.857477,11171.5399 297.702523,11175.7 C296.263705,11177.1333 294.384432,11177.8535 292.5125,11177.8535 C290.633227,11177.8535 288.753955,11177.1333 287.322477,11175.7 C284.452182,11172.8262 284.452182,11168.1736 287.322477,11165.2998 L287.322477,11165.2998 Z M214.640136,11061.3634 C223.229,11069.9556 223.229,11083.95 214.647477,11092.5495 C213.216,11093.9827 211.336727,11094.6956 209.457455,11094.6956 C207.578182,11094.6956 205.698909,11093.9827 204.267432,11092.5495 C201.397136,11089.6756 201.397136,11085.023 204.267432,11082.1492 C207.130386,11079.29 207.123045,11074.6228 204.260091,11071.7563 C201.50725,11068.9854 196.66225,11068.978 193.880045,11071.7563 C191.00975,11074.6228 186.370295,11074.6302 183.5,11071.7563 C180.629705,11068.8824 180.629705,11064.2299 183.5,11061.3561 C191.824591,11053.0359 206.330227,11053.0432 214.640136,11061.3634 L214.640136,11061.3634 Z M183.5,11402.9399 L177.487795,11366.8 L189.512205,11366.8 L183.5,11402.9399 Z M249.568182,11337.4 C245.508659,11337.4 242.227273,11340.6928 242.227273,11344.75 C242.227273,11348.7998 238.938545,11352.1 234.886364,11352.1 L132.113636,11352.1 C128.061455,11352.1 124.772727,11348.7998 124.772727,11344.75 C124.772727,11340.6928 121.491341,11337.4 117.431818,11337.4 C113.372295,11337.4 110.090909,11340.6928 110.090909,11344.75 C110.090909,11356.9069 119.971773,11366.8 132.113636,11366.8 L162.600432,11366.8 L176.261864,11448.8628 C176.849136,11452.3981 179.910295,11455 183.5,11455 C187.089705,11455 190.150864,11452.3981 190.738136,11448.8628 L204.399568,11366.8 L234.886364,11366.8 C247.028227,11366.8 256.909091,11356.9069 256.909091,11344.75 C256.909091,11340.6928 253.627705,11337.4 249.568182,11337.4 L249.568182,11337.4 Z" id="golf-copy-2" sketch:type="MSShapeGroup"></path>
        </g>
    </g>
</svg>