<?xml version="1.0" encoding="UTF-8" standalone="no"?>
<svg width="232px" height="441px" viewBox="0 0 232 441" version="1.1" xmlns="http://www.w3.org/2000/svg" xmlns:xlink="http://www.w3.org/1999/xlink" xmlns:sketch="http://www.bohemiancoding.com/sketch/ns">
    <!-- Generator: Sketch 3.5.2 (25235) - http://www.bohemiancoding.com/sketch -->
    <title>golf copy 3</title>
    <desc>Created with Sketch.</desc>
    <defs></defs>
    <g id="Desktop" stroke="none" stroke-width="1" fill="none" fill-rule="evenodd" sketch:type="MSPage">
        <g id="Timeline---Desktop" sketch:type="MSArtboardGroup" transform="translate(0.000000, -9052.000000)" fill="#F2EDE8">
            <path d="M232,9213.7 C232,9302.86285 159.552568,9375.4 70.5,9375.4 C66.4404773,9375.4 63.1590909,9372.1072 63.1590909,9368.05 C63.1590909,9363.9928 66.4404773,9360.7 70.5,9360.7 C151.455545,9360.7 217.318182,9294.7558 217.318182,9213.7 C217.318182,9132.6442 151.455545,9066.7 70.5,9066.7 C-10.4555455,9066.7 -76.3181818,9132.6442 -76.3181818,9213.7 C-76.3181818,9283.84105 -26.5027727,9344.50795 42.1347273,9357.95845 C46.1135,9358.73755 48.7048409,9362.5963 47.9267045,9366.58 C47.1412273,9370.5637 43.3312955,9373.15825 39.3084773,9372.3865 C-36.1927727,9357.59095 -91,9290.85295 -91,9213.7 C-91,9124.53715 -18.5525682,9052 70.5,9052 C159.552568,9052 232,9124.53715 232,9213.7 L232,9213.7 Z M127.597591,9239.6896 C136.186455,9231.09745 150.163545,9231.08275 158.745068,9239.68225 C167.333932,9248.2891 167.333932,9262.27615 158.745068,9270.87565 C157.313591,9272.3089 155.434318,9273.0292 153.555045,9273.0292 C151.683114,9273.0292 149.803841,9272.3089 148.365023,9270.87565 C145.502068,9268.0018 145.502068,9263.34925 148.365023,9260.48275 C151.227977,9257.61625 151.227977,9252.949 148.365023,9250.0825 C145.494727,9247.216 140.840591,9247.216 137.977636,9250.0825 C135.114682,9252.95635 130.467886,9252.95635 127.597591,9250.0825 C124.734636,9247.216 124.734636,9242.56345 127.597591,9239.6896 L127.597591,9239.6896 Z M39.3598636,9151.33525 C42.2154773,9148.46875 42.2154773,9143.80885 39.3598636,9140.94235 C36.4895682,9138.0832 31.8427727,9138.07585 28.9798182,9140.94235 C26.1095227,9143.8162 21.4627273,9143.8162 18.5997727,9140.94235 C15.7294773,9138.0685 15.7294773,9133.4233 18.5997727,9130.54945 C27.1959773,9121.94995 41.1583864,9121.9573 49.7399091,9130.5421 C58.3287727,9139.1416 58.3287727,9153.12865 49.7399091,9161.72815 C48.3084318,9163.16875 46.4291591,9163.8817 44.5498864,9163.8817 C42.6706136,9163.8817 40.7913409,9163.16875 39.3598636,9161.72815 C36.4895682,9158.86165 36.4895682,9154.2091 39.3598636,9151.33525 L39.3598636,9151.33525 Z M106.8375,9187.71775 C109.700455,9184.85125 109.700455,9180.184 106.8375,9177.32485 C103.981886,9174.45835 99.32775,9174.451 96.4501136,9177.32485 C93.5871591,9180.184 88.9403636,9180.19135 86.0700682,9177.3175 C83.1997727,9174.451 83.1997727,9169.7911 86.0700682,9166.9246 C94.6662727,9158.3251 108.636023,9158.3398 117.217545,9166.93195 C125.799068,9175.5241 125.799068,9189.51115 117.217545,9198.11065 C115.786068,9199.5439 113.906795,9200.2642 112.027523,9200.2642 C110.14825,9200.2642 108.276318,9199.5439 106.8375,9198.11065 C103.974545,9195.24415 103.974545,9190.58425 106.8375,9187.71775 L106.8375,9187.71775 Z M158.745068,9125.353 C167.326591,9133.9525 167.326591,9147.93955 158.745068,9156.5317 C157.313591,9157.96495 155.434318,9158.68525 153.555045,9158.68525 C151.683114,9158.68525 149.803841,9157.96495 148.365023,9156.5317 C145.502068,9153.6652 145.502068,9149.01265 148.365023,9146.1388 C151.227977,9143.2723 151.227977,9138.6124 148.365023,9135.7459 C145.509409,9132.8794 140.855273,9132.8794 137.977636,9135.7459 C135.114682,9138.6124 130.467886,9138.6124 127.597591,9135.7459 C124.734636,9132.87205 124.734636,9128.2195 127.597591,9125.34565 C136.186455,9116.7535 150.163545,9116.74615 158.745068,9125.353 L158.745068,9125.353 Z M174.322477,9203.29975 C175.709909,9201.91795 176.473364,9200.0731 176.473364,9198.11065 C176.473364,9196.1482 175.709909,9194.30335 174.322477,9192.9142 C171.466864,9190.0477 166.805386,9190.0477 163.942432,9192.9142 C161.072136,9195.7807 156.425341,9195.7807 153.555045,9192.9142 C150.692091,9190.04035 150.692091,9185.3878 153.555045,9182.51395 C162.15125,9173.9218 176.121,9173.9218 184.702523,9182.5213 C188.857477,9186.6814 191.155182,9192.2233 191.155182,9198.11065 C191.155182,9203.998 188.857477,9209.5399 184.702523,9213.7 C183.263705,9215.13325 181.384432,9215.85355 179.5125,9215.85355 C177.633227,9215.85355 175.753955,9215.13325 174.322477,9213.7 C171.452182,9210.82615 171.452182,9206.1736 174.322477,9203.29975 L174.322477,9203.29975 Z M101.640136,9099.3634 C110.229,9107.95555 110.229,9121.94995 101.647477,9130.54945 C100.216,9131.9827 98.3367273,9132.69565 96.4574545,9132.69565 C94.5781818,9132.69565 92.6989091,9131.9827 91.2674318,9130.54945 C88.3971364,9127.6756 88.3971364,9123.02305 91.2674318,9120.1492 C94.1303864,9117.29005 94.1230455,9112.6228 91.2600909,9109.7563 C88.50725,9106.98535 83.66225,9106.978 80.8800455,9109.7563 C78.00975,9112.6228 73.3702955,9112.63015 70.5,9109.7563 C67.6297045,9106.88245 67.6297045,9102.2299 70.5,9099.35605 C78.8245909,9091.03585 93.3302273,9091.0432 101.640136,9099.3634 L101.640136,9099.3634 Z M70.5,9440.93995 L64.4877955,9404.8 L76.5122045,9404.8 L70.5,9440.93995 Z M136.568182,9375.4 C132.508659,9375.4 129.227273,9378.6928 129.227273,9382.75 C129.227273,9386.79985 125.938545,9390.1 121.886364,9390.1 L19.1136364,9390.1 C15.0614545,9390.1 11.7727273,9386.79985 11.7727273,9382.75 C11.7727273,9378.6928 8.49134091,9375.4 4.43181818,9375.4 C0.372295455,9375.4 -2.90909091,9378.6928 -2.90909091,9382.75 C-2.90909091,9394.9069 6.97177273,9404.8 19.1136364,9404.8 L49.6004318,9404.8 L63.2618636,9486.86275 C63.8491364,9490.3981 66.9102955,9493 70.5,9493 C74.0897045,9493 77.1508636,9490.3981 77.7381364,9486.86275 L91.3995682,9404.8 L121.886364,9404.8 C134.028227,9404.8 143.909091,9394.9069 143.909091,9382.75 C143.909091,9378.6928 140.627705,9375.4 136.568182,9375.4 L136.568182,9375.4 Z" id="golf-copy-3" sketch:type="MSShapeGroup"></path>
        </g>
    </g>
</svg>