<?xml version="1.0" encoding="UTF-8" standalone="no"?>
<svg width="584px" height="584px" viewBox="0 0 584 584" version="1.1" xmlns="http://www.w3.org/2000/svg" xmlns:xlink="http://www.w3.org/1999/xlink" xmlns:sketch="http://www.bohemiancoding.com/sketch/ns">
    <!-- Generator: Sketch 3.5.2 (25235) - http://www.bohemiancoding.com/sketch -->
    <title>grappling-iron</title>
    <desc>Created with Sketch.</desc>
    <defs></defs>
    <g id="Desktop" stroke="none" stroke-width="1" fill="none" fill-rule="evenodd" sketch:type="MSPage">
        <g id="Timeline---Desktop" sketch:type="MSArtboardGroup" transform="translate(-272.000000, -7369.000000)" fill="#F2EDE8">
            <g id="grappling-iron-copy-7" sketch:type="MSLayerGroup" transform="translate(272.000000, 7369.000000)">
                <g id="grappling-iron" sketch:type="MSShapeGroup">
                    <g id="Marine">
                        <g id="Icon-17">
                            <path d="M579.360252,446.302533 C575.973016,448.375733 571.670837,448.1908 568.488003,445.835333 L546.344434,429.483333 C494.173214,572.612 339.333703,584 292,584 C244.666297,584 89.8073196,572.612 37.6458324,429.483333 L15.5119973,445.8256 C12.3194301,448.200533 8.02698447,448.375733 4.63974849,446.302533 C1.26224596,444.229333 -0.518972951,440.3068 0.133167307,436.394 L19.6000407,319.594 C20.1743135,316.1192 22.6076727,313.218667 25.936508,312.0312 C29.2556099,310.872933 32.9835162,311.554267 35.631011,313.9 L127.25185,394.6088 C130.298416,397.285467 131.359361,401.5876 129.909079,405.3836 C128.46853,409.160133 124.857425,411.642133 120.818049,411.642133 L120.740181,411.642133 L95.5597807,411.447467 C112.534894,451.0524 158.136045,518.231867 273.107399,524.996533 C278.470523,525.308 282.5683,529.911867 282.247096,535.274933 C281.935626,540.638 277.175976,544.726 271.958854,544.424267 C235.400065,542.2732 112.953432,525.843333 72.1605989,404.712 C71.1483215,401.723867 71.6544602,398.443733 73.4940797,395.8936 C75.3336993,393.372667 78.2634637,391.873733 81.3781635,391.873733 L81.4560309,391.873733 L94.8200395,391.9808 L35.9132806,340.0924 L23.2890132,415.885867 L36.857424,405.870267 C39.397851,403.982 42.6877526,403.4564 45.6953845,404.458933 C48.693283,405.451733 51.0293078,407.8364 51.9442509,410.863467 C66.0090669,457.0676 117.557347,564.533333 292,564.533333 C466.423185,564.533333 517.9812,457.077333 532.055749,410.863467 C532.970692,407.846133 535.306717,405.461467 538.304616,404.468667 C541.292781,403.4564 544.602149,404.001467 547.142576,405.870267 L560.72072,415.8956 L548.086719,340.0924 L489.189694,391.9808 L502.543969,391.873733 L502.621837,391.873733 C505.74627,391.873733 508.676034,393.372667 510.50592,395.903333 C512.34554,398.443733 512.841945,401.7336 511.839401,404.721733 C471.017368,525.853067 348.580467,542.2732 312.041146,544.424267 C309.374184,544.570267 306.736423,543.626133 304.789736,541.786533 C302.843048,539.946933 301.733437,537.387067 301.733437,534.7104 L301.733437,180.066667 C301.733437,174.693867 306.094016,170.333333 311.466873,170.333333 C316.83973,170.333333 321.20031,174.693867 321.20031,180.066667 L321.20031,214.133333 L379.60093,214.133333 C384.973787,214.133333 389.334367,218.493867 389.334367,223.866667 C389.334367,229.239467 384.973787,233.6 379.60093,233.6 L321.20031,233.6 L321.20031,524.208133 C428.59905,514.173067 471.971244,449.8552 488.440219,411.4572 L463.269552,411.642133 L463.191685,411.642133 C459.152308,411.642133 455.541203,409.1504 454.100655,405.3836 C452.650373,401.5876 453.711317,397.285467 456.757883,394.6088 L548.368989,313.9 C551.026217,311.564 554.734657,310.872933 558.063492,312.0312 C561.392327,313.218667 563.825687,316.109467 564.399959,319.594 L583.866833,436.394 C584.518973,440.3068 582.737754,444.229333 579.360252,446.302533 L579.360252,446.302533 L579.360252,446.302533 Z M292,116.8 C270.528039,116.8 253.066253,99.3384 253.066253,77.8666667 C253.066253,56.3949333 270.528039,38.9333333 292,38.9333333 C313.471961,38.9333333 330.933747,56.3949333 330.933747,77.8666667 C330.933747,99.3384 313.471961,116.8 292,116.8 L292,116.8 L292,116.8 Z M311.466873,77.8666667 C311.466873,67.1308 302.735981,58.4 292,58.4 C281.264019,58.4 272.533126,67.1308 272.533126,77.8666667 C272.533126,88.6025333 281.264019,97.3333333 292,97.3333333 C302.735981,97.3333333 311.466873,88.6025333 311.466873,77.8666667 L311.466873,77.8666667 L311.466873,77.8666667 Z M204.39907,233.6 L262.79969,233.6 L262.79969,496.4 C262.79969,501.7728 267.160269,506.133333 272.533126,506.133333 C277.905984,506.133333 282.266563,501.7728 282.266563,496.4 L282.266563,143.1384 C282.266563,138.836267 279.443867,135.040267 275.316889,133.813867 C250.749695,126.4944 233.59938,103.494533 233.59938,77.8666667 C233.59938,45.6590667 259.792058,19.4666667 292,19.4666667 C324.207942,19.4666667 350.40062,45.6590667 350.40062,77.8666667 C350.40062,103.494533 333.250305,126.4944 308.68311,133.813867 C303.534122,135.342 300.604358,140.763467 302.142241,145.922133 C303.67039,151.0808 309.101648,154.0008 314.250636,152.472667 C346.993917,142.719867 369.867493,112.0404 369.867493,77.8666667 C369.867493,34.9329333 334.934189,0 292,0 C249.065811,0 214.132506,34.9329333 214.132506,77.8666667 C214.132506,109.5584 233.813515,138.252267 262.79969,150.0296 L262.79969,214.133333 L204.39907,214.133333 C199.026213,214.133333 194.665633,218.493867 194.665633,223.866667 C194.665633,229.239467 199.026213,233.6 204.39907,233.6 L204.39907,233.6 L204.39907,233.6 Z" id="grappling-iron"></path>
                        </g>
                    </g>
                </g>
            </g>
        </g>
    </g>
</svg>