<?xml version="1.0" encoding="UTF-8" standalone="no"?>
<svg width="255px" height="389px" viewBox="0 0 255 389" version="1.1" xmlns="http://www.w3.org/2000/svg" xmlns:xlink="http://www.w3.org/1999/xlink" xmlns:sketch="http://www.bohemiancoding.com/sketch/ns">
    <!-- Generator: Sketch 3.5.2 (25235) - http://www.bohemiancoding.com/sketch -->
    <title>lighthouse</title>
    <desc>Created with Sketch.</desc>
    <defs></defs>
    <g id="Desktop" stroke="none" stroke-width="1" fill="none" fill-rule="evenodd" sketch:type="MSPage">
        <g id="Timeline---Desktop" sketch:type="MSArtboardGroup" transform="translate(-945.000000, -7837.000000)" fill="#CECCCC" opacity="0.15">
            <g id="lighthouse-copy-8" sketch:type="MSLayerGroup" transform="translate(945.000000, 7837.000000)">
                <path d="M136.863362,116.7389 C133.323474,116.311 130.101269,118.910817 129.705787,122.470167 L103.772541,355.870167 C103.377059,359.429517 105.944451,362.632283 109.503789,363.027767 C109.743671,363.0537 109.983554,363.066667 110.223436,363.066667 C113.484542,363.066667 116.291816,360.615967 116.661364,357.2965 L121.400665,314.655617 C138.529573,298.5964 161.863011,298.233333 162.083443,298.233333 L226.916556,298.233333 C227.811253,298.233333 245.925625,298.006417 264.305813,284.9814 L272.338635,357.2965 C272.708184,360.615967 275.515458,363.066667 278.776564,363.066667 C279.016446,363.066667 279.256329,363.0537 279.496211,363.027767 C283.055549,362.632283 285.62294,359.429517 285.227458,355.870167 L268.740398,207.525017 C268.746881,207.43425 268.714464,207.343483 268.714464,207.252717 L259.294213,122.470167 C258.898731,118.904333 255.657075,116.298033 252.136637,116.7389 C248.577299,117.134383 246.009908,120.343633 246.40539,123.8965 L247.48162,133.5437 C231.026976,148.688767 214.630681,149.110183 213.949934,149.116667 L175.050066,149.116667 C174.135919,149.116667 156.429996,149.27875 138.510123,160.6181 L142.59461,123.8965 C142.990092,120.343633 140.4227,117.134383 136.863362,116.7389 L136.863362,116.7389 L136.863362,116.7389 Z M226.916556,285.266667 L162.083443,285.266667 C161.09798,285.266667 141.874962,285.42875 123.371592,296.858867 L128.610107,249.705583 C145.700116,233.763067 168.352805,233.4 168.566755,233.4 L220.433245,233.4 C221.302009,233.4 238.910682,233.173083 257.11582,220.245317 L262.613668,269.7326 C245.932108,284.871183 227.085122,285.266667 226.916556,285.266667 L226.916556,285.266667 L226.916556,285.266667 Z M175.050066,162.083333 L213.949934,162.083333 C214.760348,162.083333 231.292792,161.856417 249.186731,148.876783 L255.417193,204.996517 C238.813433,220.03785 220.595328,220.433333 220.433245,220.433333 L168.566755,220.433333 C167.600741,220.433333 148.889905,220.595417 130.594,231.915317 L136.519747,178.57045 C153.544922,162.46585 174.855567,162.083333 175.050066,162.083333 L175.050066,162.083333 L175.050066,162.083333 Z M123.183575,103.733333 L265.816424,103.733333 C269.395212,103.733333 272.299736,100.8288 272.299736,97.25 C272.299736,93.6712 269.395212,90.7666667 265.816424,90.7666667 L259.333113,90.7666667 L259.333113,58.35 C259.333113,57.9221 259.294213,57.5006833 259.203447,57.0792667 C251.844888,20.2669 228.868033,0 194.5,0 C160.131967,0 137.155111,20.2669 129.79007,57.0792667 C129.705787,57.5006833 129.666887,57.9221 129.666887,58.35 L129.666887,90.7666667 L123.183575,90.7666667 C119.604788,90.7666667 116.700264,93.6712 116.700264,97.25 C116.700264,100.8288 119.604788,103.733333 123.183575,103.733333 L123.183575,103.733333 L123.183575,103.733333 Z M181.533377,64.8333333 L207.466622,64.8333333 L207.466622,90.7666667 L181.533377,90.7666667 L181.533377,64.8333333 L181.533377,64.8333333 Z M220.433245,64.8333333 L246.36649,64.8333333 L246.36649,90.7666667 L220.433245,90.7666667 L220.433245,64.8333333 L220.433245,64.8333333 Z M194.5,12.9666667 C225.548578,12.9666667 238.910682,32.6371 244.570613,51.8666667 L144.429387,51.8666667 C150.089317,32.6371 163.451422,12.9666667 194.5,12.9666667 L194.5,12.9666667 L194.5,12.9666667 Z M142.633509,64.8333333 L168.566755,64.8333333 L168.566755,90.7666667 L142.633509,90.7666667 L142.633509,64.8333333 L142.633509,64.8333333 Z M324.166226,382.516667 C324.166226,386.095467 321.261703,389 317.682915,389 L213.949934,389 C210.371146,389 207.466622,386.095467 207.466622,382.516667 L207.466622,337.133333 L181.533377,337.133333 L181.533377,382.516667 C181.533377,386.095467 178.628854,389 175.050066,389 L71.317085,389 C67.7382972,389 64.8337737,386.095467 64.8337737,382.516667 C64.8337737,378.937867 67.7382972,376.033333 71.317085,376.033333 L168.566755,376.033333 L168.566755,330.65 C168.566755,327.0712 171.471278,324.166667 175.050066,324.166667 L213.949934,324.166667 C217.528722,324.166667 220.433245,327.0712 220.433245,330.65 L220.433245,376.033333 L317.682915,376.033333 C321.261703,376.033333 324.166226,378.937867 324.166226,382.516667 L324.166226,382.516667 L324.166226,382.516667 Z M272.494235,46.9587833 C271.625471,43.4837167 273.739031,39.9632667 277.207602,39.0945 L380.940583,13.1611667 C384.409155,12.2988833 387.936076,14.4059667 388.80484,17.87455 C389.673603,21.3496167 387.560044,24.8700667 384.091472,25.7388333 L280.358491,51.6721667 C279.82686,51.8083167 279.301712,51.8666667 278.776564,51.8666667 C275.87204,51.8666667 273.233332,49.9022167 272.494235,46.9587833 L272.494235,46.9587833 L272.494235,46.9587833 Z M388.80484,98.82545 C388.065742,101.768883 385.427035,103.733333 382.522511,103.733333 C381.997363,103.733333 381.472215,103.674983 380.940583,103.538833 L277.207602,77.6055 C273.739031,76.7367333 271.625471,73.2227667 272.494235,69.7412167 C273.362999,66.2726333 276.896403,64.1590667 280.358491,65.0278333 L384.091472,90.9611667 C387.560044,91.8299333 389.673603,95.3503833 388.80484,98.82545 L388.80484,98.82545 L388.80484,98.82545 Z M0.195160291,17.87455 C1.06392401,14.4059667 4.59732867,12.2988833 8.05941693,13.1611667 L111.792398,39.0945 C115.260969,39.9632667 117.374529,43.4837167 116.505765,46.9587833 C115.766667,49.9022167 113.12796,51.8666667 110.223436,51.8666667 C109.698288,51.8666667 109.17314,51.8083167 108.641508,51.6721667 L4.90852761,25.7388333 C1.43995606,24.8700667 -0.673603422,21.3496167 0.195160291,17.87455 L0.195160291,17.87455 L0.195160291,17.87455 Z M111.792398,77.6055 L8.05941693,103.538833 C7.5277854,103.674983 7.00263718,103.733333 6.47748895,103.733333 C3.57296548,103.733333 0.934257782,101.768883 0.195160291,98.82545 C-0.673603422,95.3503833 1.43995606,91.8299333 4.90852761,90.9611667 L108.641508,65.0278333 C112.11008,64.1590667 115.637001,66.2726333 116.505765,69.7412167 C117.374529,73.2227667 115.260969,76.7367333 111.792398,77.6055 L111.792398,77.6055 L111.792398,77.6055 Z" id="lighthouse" sketch:type="MSShapeGroup"></path>
            </g>
        </g>
    </g>
</svg>