<?xml version="1.0" encoding="UTF-8" standalone="no"?>
<svg width="447px" height="538px" viewBox="0 0 447 538" version="1.1" xmlns="http://www.w3.org/2000/svg" xmlns:xlink="http://www.w3.org/1999/xlink" xmlns:sketch="http://www.bohemiancoding.com/sketch/ns">
    <!-- Generator: Sketch 3.5.2 (25235) - http://www.bohemiancoding.com/sketch -->
    <title>yawl copy</title>
    <desc>Created with Sketch.</desc>
    <defs></defs>
    <g id="Desktop" stroke="none" stroke-width="1" fill="none" fill-rule="evenodd" sketch:type="MSPage">
        <g id="Timeline---Desktop" sketch:type="MSArtboardGroup" transform="translate(0.000000, -9576.000000)" fill="#F2EDE8">
            <path d="M445.789607,10101.9591 C446.59518,10106.8373 443.292328,10111.438 438.423082,10112.2526 C435.12023,10112.7896 431.674164,10113.0671 428.147541,10113.0671 C410.433869,10113.0671 399.057377,10106.354 392.344262,10100.2137 C385.631148,10106.354 374.254656,10113.0671 356.540984,10113.0671 C338.827311,10113.0671 327.45082,10106.354 320.737705,10100.2137 C314.02459,10106.354 302.648098,10113.0671 284.934426,10113.0671 C267.220754,10113.0671 255.844262,10106.354 249.131148,10100.2137 C242.418033,10106.354 231.041541,10113.0671 213.327869,10113.0671 C195.614197,10113.0671 184.237705,10106.354 177.52459,10100.2137 C170.811475,10106.354 159.434984,10113.0671 141.721311,10113.0671 C124.007639,10113.0671 112.631148,10106.354 105.918033,10100.2137 C99.204918,10106.354 87.8284262,10113.0671 70.1147541,10113.0671 C52.401082,10113.0671 41.0245902,10106.354 34.3114754,10100.2137 C27.5983607,10106.354 16.2218689,10113.0671 -1.49180328,10113.0671 C-19.2054754,10113.0671 -30.5819672,10106.354 -37.295082,10100.2137 C-44.0081967,10106.354 -55.3846885,10113.0671 -73.0983607,10113.0671 C-76.6697377,10113.0671 -79.9457377,10112.7896 -83.4007541,10112.2078 C-88.2789508,10111.3754 -91.5639016,10106.7568 -90.7314754,10101.8875 C-89.908,10097.0093 -85.2983279,10093.7333 -80.4111803,10094.5568 C-77.9318033,10094.9775 -75.6761967,10095.1654 -73.0983607,10095.1654 C-52.529377,10095.1654 -45.5298361,10082.6253 -45.2434098,10082.0972 C-43.6501639,10079.1524 -40.6605902,10077.2817 -37.1876721,10077.3265 C-33.8490164,10077.3802 -30.7788852,10079.224 -29.2930492,10082.2136 C-29.0603279,10082.6253 -22.0607869,10095.1654 -1.49180328,10095.1654 C19.0771803,10095.1654 26.0767213,10082.6253 26.3631475,10082.0972 C27.9563934,10079.1524 30.9459672,10077.2817 34.4188852,10077.3265 C37.757541,10077.3802 40.8187213,10079.224 42.322459,10082.2136 C42.5462295,10082.6253 49.5457705,10095.1654 70.1147541,10095.1654 C90.6837377,10095.1654 97.6832787,10082.6253 97.9697049,10082.0972 C99.5629508,10079.1524 102.543574,10077.2817 106.025443,10077.3265 C109.364098,10077.3802 112.425279,10079.224 113.920066,10082.2136 C114.152787,10082.6253 121.152328,10095.1654 141.721311,10095.1654 C162.290295,10095.1654 169.289836,10082.6253 169.576262,10082.0972 C171.169508,10079.1524 174.150131,10077.2817 177.632,10077.3265 C180.970656,10077.3802 184.031836,10079.224 185.526623,10082.2136 C185.759344,10082.6253 192.758885,10095.1654 213.327869,10095.1654 C233.896852,10095.1654 240.896393,10082.6253 241.18282,10082.0972 C242.776066,10079.1524 245.756689,10077.2817 249.238557,10077.3265 C252.577213,10077.3802 255.638393,10079.224 257.142131,10082.2136 C257.365902,10082.6253 264.365443,10095.1654 284.934426,10095.1654 C305.50341,10095.1654 312.502951,10082.6253 312.789377,10082.0972 C314.382623,10079.1524 317.354295,10077.2817 320.845115,10077.3265 C324.18377,10077.3802 327.244951,10079.224 328.748689,10082.2136 C328.972459,10082.6253 335.972,10095.1654 356.540984,10095.1654 C377.109967,10095.1654 384.109508,10082.6253 384.395934,10082.0972 C385.98918,10079.1524 388.960852,10077.2817 392.451672,10077.3265 C395.790328,10077.3802 398.851508,10079.224 400.346295,10082.2136 C400.579016,10082.6253 407.578557,10095.1654 428.147541,10095.1654 C430.698525,10095.1654 433.168951,10094.9685 435.496164,10094.5836 C440.410164,10093.796 444.984033,10097.0809 445.789607,10101.9591 L445.789607,10101.9591 Z M437.098361,9898.24741 L329.688525,9898.24741 C315.949016,9898.24741 306.129967,9909.0242 305.055869,9910.25046 C304.796295,9910.54584 304.554623,9910.85911 304.339803,9911.18134 L286.438164,9938.0338 C283.699213,9942.15118 284.809115,9947.70964 288.917541,9950.44859 C293.025967,9953.19649 298.575475,9952.06869 301.332328,9947.96921 L318.83118,9921.72541 C320.639246,9919.87259 325.213115,9916.14905 329.688525,9916.14905 L423.591574,9916.14905 C414.318525,9936.82544 403.667049,9954.61967 392.299508,9969.85397 L338.639344,9969.85397 C333.698492,9969.85397 329.688525,9973.86393 329.688525,9978.80479 C329.688525,9983.74564 333.698492,9987.75561 338.639344,9987.75561 L377.584361,9987.75561 C348.503148,10019.7906 316.790393,10036.6987 292.130885,10041.6306 C287.279541,10042.6062 284.137803,10047.3233 285.113443,10052.1657 C285.95482,10056.4173 289.696262,10059.3622 293.876295,10059.3622 C294.458098,10059.3622 295.048852,10059.3085 295.639607,10059.1831 C340.921803,10050.1339 407.310033,10005.7647 445.413672,9910.52793 C446.514623,9907.77108 446.174492,9904.6383 444.509639,9902.17682 C442.844787,9899.7243 440.070033,9898.24741 437.098361,9898.24741 L437.098361,9898.24741 Z M-22.2219016,10058.9057 C-21.2820656,10059.219 -20.3332787,10059.3622 -19.3934426,10059.3622 C-15.6430492,10059.3622 -12.1522295,10056.9902 -10.8991148,10053.2398 C-9.33272131,10048.5496 -11.8747541,10043.4834 -16.5649836,10041.917 C-33.6252459,10036.2332 -56.8705246,10013.8204 -67.4503934,9987.75561 L177.52459,9987.75561 C182.465443,9987.75561 186.47541,9983.74564 186.47541,9978.80479 C186.47541,9973.86393 182.465443,9969.85397 177.52459,9969.85397 L-72.3554426,9969.85397 C-72.7940328,9966.87334 -73.0983607,9963.88377 -73.0983607,9960.90315 L-73.0983607,9951.95233 L249.131148,9951.95233 L249.131148,10004.0013 C241.451344,10001.2713 235.427443,9995.16689 232.778,9987.44233 C236.958033,9986.68151 240.180328,9983.19964 240.180328,9978.80479 C240.180328,9973.86393 236.170361,9969.85397 231.229508,9969.85397 L213.327869,9969.85397 C208.387016,9969.85397 204.377049,9973.86393 204.377049,9978.80479 C204.377049,9983.74564 208.387016,9987.75561 213.327869,9987.75561 L214.231902,9987.75561 C218.394033,10008.1545 236.465738,10023.5589 258.081967,10023.5589 C279.698197,10023.5589 297.769902,10008.1545 301.932033,9987.75561 L302.836066,9987.75561 C307.776918,9987.75561 311.786885,9983.74564 311.786885,9978.80479 C311.786885,9973.86393 307.776918,9969.85397 302.836066,9969.85397 L284.934426,9969.85397 C279.993574,9969.85397 275.983607,9973.86393 275.983607,9978.80479 C275.983607,9983.19964 279.205902,9986.68151 283.385934,9987.44233 C280.736492,9995.16689 274.71259,10001.2713 267.032787,10004.0103 L267.032787,9943.00151 C267.032787,9938.06066 263.02282,9934.05069 258.081967,9934.05069 L-82.0491803,9934.05069 C-86.9900328,9934.05069 -91,9938.06066 -91,9943.00151 L-91,9960.90315 C-91,10003.1868 -54.0331148,10048.299 -22.2219016,10058.9057 L-22.2219016,10058.9057 Z M114.868852,9916.14905 C119.809705,9916.14905 123.819672,9912.13908 123.819672,9907.19823 L123.819672,9601.53669 C155.281803,9623.76157 231.229508,9687.25869 231.229508,9781.88675 C231.229508,9820.6259 200.429738,9862.44413 150.672131,9862.44413 C145.731279,9862.44413 141.721311,9866.4541 141.721311,9871.39495 C141.721311,9876.3358 145.731279,9880.34577 150.672131,9880.34577 C211.484,9880.34577 249.131148,9829.23659 249.131148,9781.88675 C249.131148,9652.86069 124.607344,9580.22479 119.308459,9577.19941 C116.542656,9575.62407 113.141344,9575.62407 110.375541,9577.22626 C107.618689,9578.82846 105.918033,9581.78223 105.918033,9584.96872 L105.918033,9907.19823 C105.918033,9912.13908 109.928,9916.14905 114.868852,9916.14905 L114.868852,9916.14905 Z M7.45901639,9665.5261 L61.1639344,9665.5261 C66.1047869,9665.5261 70.1147541,9661.51613 70.1147541,9656.57528 C70.1147541,9651.63443 66.1047869,9647.62446 61.1639344,9647.62446 L7.45901639,9647.62446 C2.51816393,9647.62446 -1.49180328,9651.63443 -1.49180328,9656.57528 C-1.49180328,9661.51613 2.51816393,9665.5261 7.45901639,9665.5261 L7.45901639,9665.5261 Z M-46.2459016,9719.23102 L61.1639344,9719.23102 C66.1047869,9719.23102 70.1147541,9715.22105 70.1147541,9710.2802 C70.1147541,9705.33934 66.1047869,9701.32938 61.1639344,9701.32938 L-46.2459016,9701.32938 C-51.1867541,9701.32938 -55.1967213,9705.33934 -55.1967213,9710.2802 C-55.1967213,9715.22105 -51.1867541,9719.23102 -46.2459016,9719.23102 L-46.2459016,9719.23102 Z M61.1639344,9755.0343 L-10.442623,9755.0343 C-15.3834754,9755.0343 -19.3934426,9759.04426 -19.3934426,9763.98511 C-19.3934426,9768.92597 -15.3834754,9772.93593 -10.442623,9772.93593 L61.1639344,9772.93593 C66.1047869,9772.93593 70.1147541,9768.92597 70.1147541,9763.98511 C70.1147541,9759.04426 66.1047869,9755.0343 61.1639344,9755.0343 L61.1639344,9755.0343 Z M284.934426,9656.57528 C284.934426,9651.63443 288.944393,9647.62446 293.885246,9647.62446 L321.641738,9647.62446 C322.805344,9641.91384 325.087803,9636.61495 328.193738,9631.92472 L308.519836,9612.26872 C305.020066,9608.7779 305.020066,9603.11203 308.510885,9599.61226 C312.010656,9596.11249 317.676525,9596.12144 321.167344,9599.60331 L340.859148,9619.26826 C345.558328,9616.16233 350.848262,9613.88882 356.540984,9612.72521 L356.532033,9584.95977 C356.532033,9580.01892 360.533049,9576.00895 365.473902,9576 L365.482852,9576 C370.423705,9576 374.424721,9580.00997 374.433672,9584.95082 L374.451574,9612.72521 C380.153246,9613.88882 385.44318,9616.16233 390.13341,9619.27721 L409.798361,9599.60331 C413.28918,9596.10354 418.964,9596.11249 422.45482,9599.59436 C425.95459,9603.09413 425.95459,9608.76 422.46377,9612.25977 L402.789869,9631.94262 C405.904754,9636.63285 408.178262,9641.92279 409.341869,9647.62446 L437.098361,9647.61551 C442.048164,9647.61551 446.058131,9651.62548 446.058131,9656.56633 C446.058131,9661.51613 442.057115,9665.51715 437.107311,9665.51715 L409.341869,9665.5261 C408.178262,9671.22777 405.904754,9676.5177 402.789869,9681.21689 L422.45482,9700.88184 C425.95459,9704.37266 425.95459,9710.03852 422.45482,9713.5383 C420.70941,9715.2837 418.418,9716.16089 416.12659,9716.16089 C413.83518,9716.16089 411.54377,9715.2837 409.798361,9713.5383 L390.13341,9693.87334 C385.44318,9696.98823 380.144295,9699.26174 374.442623,9700.42534 L374.442623,9728.18184 C374.442623,9733.12269 370.432656,9737.13266 365.491803,9737.13266 C360.550951,9737.13266 356.540984,9733.12269 356.540984,9728.18184 L356.540984,9700.42534 C350.839311,9699.26174 345.540426,9696.98823 340.850197,9693.87334 L321.185246,9713.5383 C319.439836,9715.2837 317.148426,9716.16089 314.857016,9716.16089 C312.565607,9716.16089 310.274197,9715.2837 308.528787,9713.5383 C305.029016,9710.03852 305.029016,9704.37266 308.528787,9700.88184 L328.193738,9681.21689 C325.078852,9676.5177 322.805344,9671.22777 321.641738,9665.5261 L293.885246,9665.5261 C288.944393,9665.5261 284.934426,9661.51613 284.934426,9656.57528 L284.934426,9656.57528 Z M338.639344,9656.57528 C338.639344,9671.37098 350.669246,9683.40984 365.464951,9683.41879 L365.491803,9683.41879 L365.518656,9683.41879 C380.30541,9683.40984 392.326361,9671.38889 392.335311,9656.60213 L392.335311,9656.57528 L392.335311,9656.54843 C392.326361,9641.75272 380.287508,9629.72282 365.491803,9629.72282 C350.687148,9629.72282 338.639344,9641.77062 338.639344,9656.57528 L338.639344,9656.57528 Z" id="yawl-copy" sketch:type="MSShapeGroup"></path>
        </g>
    </g>
</svg>