<?xml version="1.0" encoding="UTF-8" standalone="no"?>
<svg width="239px" height="389px" viewBox="0 0 239 389" version="1.1" xmlns="http://www.w3.org/2000/svg" xmlns:xlink="http://www.w3.org/1999/xlink" xmlns:sketch="http://www.bohemiancoding.com/sketch/ns">
    <!-- Generator: Sketch 3.5.2 (25235) - http://www.bohemiancoding.com/sketch -->
    <title>sailing-wheel</title>
    <desc>Created with Sketch.</desc>
    <defs></defs>
    <g id="Desktop" stroke="none" stroke-width="1" fill="none" fill-rule="evenodd" sketch:type="MSPage">
        <g id="Timeline---Desktop" sketch:type="MSArtboardGroup" transform="translate(-961.000000, -7283.000000)" fill="#F2EDE8">
            <g id="lighthouse-copy-6-+-lighthouse-copy-5-copy-copy-copy-copy-copy-copy-copy" sketch:type="MSLayerGroup" transform="translate(914.000000, 7283.000000)">
                <g id="lighthouse-copy-5" sketch:type="MSShapeGroup">
                    <g id="lighthouse" transform="translate(47.502703, -29.220657)">
                        <g id="sailing-wheel">
                            <path d="M240.393893,87.7406532 C236.645963,86.8145565 232.834866,89.1438302 231.922449,92.9113602 C231.010032,96.6718744 233.319149,100.467468 237.088135,101.379533 C285.298863,113.046949 319.633829,154.475748 322.644806,203.46767 L266.222322,203.46767 C263.03588,178.133311 242.920587,158.025785 217.576441,154.840574 L217.576441,91.2135161 C217.576441,87.3407478 214.439129,84.1976315 210.557846,84.1976315 C151.882393,84.1976315 101.362547,123.984713 87.697343,180.946681 C86.7919442,184.714211 89.1150991,188.502788 92.8840846,189.407837 C93.4385536,189.541139 93.9930226,189.597266 94.5334544,189.597266 C97.7058593,189.597266 100.576465,187.436374 101.34851,184.216083 C112.943229,135.876638 154.416106,101.449692 203.539251,98.4468932 L203.539251,154.840574 C178.195105,158.025785 158.079812,178.133311 154.89337,203.46767 L91.2417334,203.46767 C87.3604504,203.46767 84.2231385,206.610787 84.2231385,210.483555 C84.2231385,268.785556 123.730809,319.215735 180.293665,333.121218 C180.862171,333.261536 181.423659,333.324679 181.978128,333.324679 C185.129477,333.324679 187.993064,331.184834 188.779146,327.985591 C189.705601,324.225077 187.41052,320.422467 183.648554,319.49637 C135.655402,307.695652 101.481863,266.315965 98.4708861,217.49944 L154.89337,217.49944 C158.079812,242.833799 178.195105,262.941324 203.539251,266.126536 L203.539251,329.753594 C203.539251,333.626362 206.676563,336.769478 210.557846,336.769478 C268.945537,336.769478 319.409234,297.227952 333.277978,240.609764 C334.197414,236.842233 331.895314,233.04664 328.133348,232.120543 C324.364362,231.201462 320.567302,233.502672 319.640848,237.270202 C307.877683,285.307965 266.467973,319.517418 217.576441,322.520217 L217.576441,266.126536 C242.920587,262.941324 263.03588,242.833799 266.222322,217.49944 L329.873959,217.49944 C333.755242,217.49944 336.892554,214.356323 336.892554,210.483555 C336.892554,151.971077 297.216437,101.491787 240.393893,87.7406532 L240.393893,87.7406532 L240.393893,87.7406532 Z M210.557846,252.578863 C187.333316,252.578863 168.446277,233.699117 168.446277,210.483555 C168.446277,187.267993 187.333316,168.388247 210.557846,168.388247 C233.782377,168.388247 252.669416,187.267993 252.669416,210.483555 C252.669416,233.699117 233.782377,252.578863 210.557846,252.578863 L210.557846,252.578863 L210.557846,252.578863 Z M414.111135,203.453638 L393.069387,203.453638 C393.05535,199.587886 389.925057,196.451786 386.050793,196.451786 C382.176528,196.451786 379.046235,199.587886 379.032198,203.453638 L364.791469,203.453638 C363.752717,180.476616 357.646539,158.797533 347.588893,139.489818 L359.962675,132.347648 L359.969694,132.361679 C361.275153,134.613778 363.633401,135.869622 366.054816,135.869622 C367.247977,135.869622 368.455175,135.567939 369.557095,134.929493 C372.919002,132.993109 374.070051,128.706404 372.1259,125.345795 L372.118882,125.331763 L390.339154,114.814952 C393.701061,112.878568 394.852111,108.584846 392.90796,105.231254 C390.963809,101.870645 386.66141,100.72004 383.320559,102.66344 L365.100287,113.180251 C363.156136,109.833674 358.860756,108.690085 355.519905,110.626469 C352.172035,112.555837 351.020986,116.835527 352.944081,120.196136 L340.549242,127.345322 C328.498315,108.577831 312.4889,92.5816136 293.714158,80.5283238 L300.866107,68.1523033 L300.880144,68.1593192 C301.982063,68.7977647 303.189261,69.0994478 304.382423,69.0994478 C306.810856,69.0994478 309.169104,67.8365885 310.467544,65.5915054 C312.411695,62.2308967 311.260646,57.9441912 307.898739,56.0007911 L307.884701,55.9937753 L318.405575,37.7805388 C320.349726,34.41993 319.191658,30.1332245 315.836769,28.1968403 C312.4889,26.2604562 308.186501,27.4040454 306.249369,30.7646541 L295.728495,48.9778906 C292.366588,47.0555382 288.092264,48.1991274 286.148113,51.5597362 C284.210981,54.9063131 285.36203,59.1860028 288.7099,61.1294028 L281.564971,73.4984074 C262.249798,63.4446447 240.562339,57.347841 217.576441,56.3094901 L217.576441,42.0882919 L217.590478,42.0882919 C221.471761,42.0882919 224.609073,38.9451756 224.609073,35.0724073 C224.609073,31.199639 221.471761,28.0565226 217.590478,28.0565226 L217.576441,28.0565226 L217.576441,7.01588463 C217.576441,3.14311632 214.439129,-9.09494702e-13 210.557846,-9.09494702e-13 C206.676563,-9.09494702e-13 203.539251,3.14311632 203.539251,7.01588463 L203.539251,28.0565226 C199.664987,28.0635385 196.534694,31.199639 196.534694,35.0724073 C196.534694,38.9451756 199.664987,42.081276 203.539251,42.0882919 L203.539251,56.3094901 C180.553353,57.347841 158.865895,63.4446447 139.550722,73.4984074 L132.412811,61.1434346 L132.41983,61.1434346 C135.781736,59.2070504 136.932786,54.913329 134.988635,51.5597362 C133.044484,48.1991274 128.749104,47.0555382 125.401235,48.9849065 L125.394216,48.9919224 L114.866324,30.77167 C112.922173,27.4110613 108.626793,26.2604562 105.278923,28.2038562 C101.924035,30.1402404 100.765967,34.4339618 102.710117,37.7875546 L113.23801,56.007807 C109.883121,57.9512071 108.732072,62.2379126 110.676223,65.5915054 C111.974663,67.8365885 114.332911,69.0994478 116.761344,69.0994478 C117.954505,69.0994478 119.154685,68.7977647 120.256605,68.1593192 L127.394516,80.5283238 C108.619774,92.5816136 92.6103594,108.584846 80.5524134,127.352338 L68.1856492,120.217183 L68.1926678,120.210167 C70.1298,116.849559 68.9787504,112.562853 65.6238621,110.626469 C62.2619551,108.683069 57.9735937,109.833674 56.0294429,113.194283 L56.0224243,113.201299 L37.7951334,102.677472 C34.4332265,100.734072 30.144865,101.884677 28.2077328,105.245285 C26.263582,108.598878 27.4146316,112.8926 30.7765385,114.828984 L49.010848,125.352811 C47.0737158,128.713419 48.2247654,132.993109 51.5866723,134.929493 C52.6885917,135.567939 53.8957901,135.869622 55.0889512,135.869622 C57.5103664,135.869622 59.8615957,134.613778 61.1670543,132.368695 L73.5197813,139.496834 C63.4621349,158.811565 57.3629759,180.483632 56.3242239,203.46767 L42.1115693,203.46767 C42.1115693,199.594902 38.9742573,196.451786 35.0929744,196.451786 C31.2116914,196.451786 28.0743795,199.594902 28.0743795,203.46767 L7.01859488,203.46767 C3.13731191,203.46767 0,206.610787 0,210.483555 C0,214.356323 3.13731191,217.49944 7.01859488,217.49944 L28.0743795,217.49944 C28.0743795,221.372208 31.2116914,224.515324 35.0929744,224.515324 C38.9742573,224.515324 42.1115693,221.372208 42.1115693,217.49944 L56.3242239,217.49944 C57.3629759,240.483478 63.4691535,262.162561 73.5267999,281.477291 L61.1740729,288.60543 C59.2229036,285.244822 54.9205049,284.094216 51.5866723,286.037617 C48.2247654,287.974001 47.0737158,292.260706 49.010848,295.621315 L30.7905757,306.138126 C27.4286688,308.07451 26.2776192,312.361216 28.2147514,315.721824 C29.52021,317.973923 31.8784579,319.229767 34.3068918,319.229767 C35.5000529,319.229767 36.7002326,318.928084 37.8091706,318.289638 L56.0294429,307.772827 C57.3349015,310.024926 59.6931494,311.280769 62.1215832,311.280769 C63.3077258,311.280769 64.5149241,310.979086 65.6238621,310.340641 C68.9787504,308.404257 70.1298,304.117551 68.1926678,300.756942 L80.559432,293.621788 C92.617378,312.389279 108.626793,328.385496 127.401534,340.438786 L120.263623,352.807791 C116.901716,350.871406 112.613355,352.022011 110.676223,355.375604 C108.732072,358.736213 109.883121,363.022919 113.245028,364.966319 L102.724155,383.179555 C100.780004,386.540164 101.931053,390.826869 105.29296,392.763254 C106.39488,393.401699 107.602078,393.703382 108.795239,393.703382 C111.223673,393.703382 113.581921,392.447539 114.880361,390.19544 L125.401235,371.982203 C126.503154,372.613633 127.710352,372.915316 128.903513,372.915316 C131.331947,372.915316 133.690195,371.659473 134.988635,369.407374 C136.932786,366.053781 135.781736,361.760059 132.41983,359.823675 L139.550722,347.475718 C158.879932,357.522465 180.560372,363.626285 203.553289,364.65762 L203.553289,378.878818 C199.672006,378.878818 196.534694,382.021934 196.534694,385.894702 C196.534694,389.767471 199.672006,392.910587 203.553289,392.910587 L203.560307,392.910587 L203.560307,413.944209 C203.560307,417.816978 206.704638,420.960094 210.578902,420.960094 C214.460185,420.960094 217.597497,417.816978 217.597497,413.944209 L217.597497,392.910587 C221.471761,392.903571 224.609073,389.767471 224.609073,385.894702 C224.609073,382.021934 221.471761,378.878818 217.590478,378.878818 L217.590478,364.65762 C240.583395,363.619269 262.263835,357.515449 281.586026,347.461686 L288.730956,359.823675 L288.723937,359.823675 C285.36203,361.760059 284.210981,366.053781 286.148113,369.407374 C287.453572,371.659473 289.81182,372.915316 292.240253,372.915316 C293.433415,372.915316 294.633594,372.613633 295.742532,371.982203 L295.749551,371.975187 L306.270425,390.181408 C307.568865,392.433507 309.927113,393.68935 312.355546,393.68935 C313.548707,393.68935 314.755906,393.387667 315.857825,392.756238 C319.212714,390.812838 320.363763,386.519116 318.426631,383.165523 L307.905757,364.959303 C311.260646,363.015903 312.411695,358.729197 310.467544,355.375604 C308.523394,352.022011 304.235032,350.878422 300.887162,352.807791 L293.735214,340.417738 C312.509955,328.371464 328.512352,312.375247 340.563279,293.60074 L352.958118,300.749927 L352.951099,300.756942 C351.013967,304.117551 352.165016,308.404257 355.519905,310.340641 C356.628843,310.979086 357.829023,311.280769 359.022184,311.280769 C361.450618,311.280769 363.808865,310.024926 365.107305,307.772827 L365.114324,307.765811 L383.334596,318.275606 C384.436516,318.914052 385.643714,319.215735 386.836875,319.215735 C389.265309,319.215735 391.623557,317.959892 392.921997,315.707793 C394.866148,312.347184 393.715098,308.060478 390.353191,306.124094 L372.132919,295.607283 C374.063032,292.25369 372.919002,287.966985 369.557095,286.037617 C366.216243,284.101232 361.920863,285.244822 359.976713,288.591399 L347.60293,281.456244 C357.653558,262.141513 363.759735,240.469446 364.791469,217.485408 L379.032198,217.485408 L379.032198,217.49944 C379.032198,221.372208 382.16951,224.515324 386.050793,224.515324 C389.932076,224.515324 393.069387,221.372208 393.069387,217.49944 L393.069387,217.485408 L414.111135,217.485408 C417.992418,217.485408 421.12973,214.342291 421.12973,210.469523 C421.12973,206.596755 417.992418,203.453638 414.111135,203.453638 L414.111135,203.453638 L414.111135,203.453638 Z M210.557846,350.801248 C133.156782,350.801248 70.1859488,287.854731 70.1859488,210.483555 C70.1859488,133.112379 133.156782,70.1658622 210.557846,70.1658622 C287.958911,70.1658622 350.929744,133.112379 350.929744,210.483555 C350.929744,287.854731 287.958911,350.801248 210.557846,350.801248 L210.557846,350.801248 L210.557846,350.801248 Z M224.595036,210.483555 C224.595036,218.222076 218.299356,224.515324 210.557846,224.515324 C202.823355,224.515324 196.520657,218.222076 196.520657,210.483555 C196.520657,202.745034 202.823355,196.451786 210.557846,196.451786 C218.299356,196.451786 224.595036,202.745034 224.595036,210.483555 L224.595036,210.483555 L224.595036,210.483555 Z"></path>
                        </g>
                    </g>
                </g>
            </g>
        </g>
    </g>
</svg>