<?xml version="1.0" encoding="UTF-8" standalone="no"?>
<svg width="234px" height="390px" viewBox="0 0 234 390" version="1.1" xmlns="http://www.w3.org/2000/svg" xmlns:xlink="http://www.w3.org/1999/xlink" xmlns:sketch="http://www.bohemiancoding.com/sketch/ns">
    <!-- Generator: Sketch 3.5.2 (25235) - http://www.bohemiancoding.com/sketch -->
    <title>tennis copy</title>
    <desc>Created with Sketch.</desc>
    <defs></defs>
    <g id="Desktop" stroke="none" stroke-width="1" fill="none" fill-rule="evenodd" sketch:type="MSPage">
        <g id="Timeline---Desktop" sketch:type="MSArtboardGroup" transform="translate(0.000000, -10573.000000)" fill="#F2EDE8">
            <path d="M60.411295,10955.4035 C60.6907499,10958.9844 58.0196814,10962.1104 54.4452588,10962.3963 C49.2850924,10962.7993 44.1379239,10963.0007 39.0102522,10963.0007 C-12.5459193,10963.0007 -62.0874163,10942.646 -98.8324804,10905.8945 C-146.261819,10858.4716 -165.856153,10791.0255 -151.26601,10725.4836 C-150.479637,10721.9807 -146.983202,10719.797 -143.506264,10720.5509 C-140.00333,10721.3308 -137.800185,10724.8012 -138.573561,10728.3042 C-152.201859,10789.4853 -133.900815,10852.4406 -89.6429649,10896.705 C-51.9295572,10934.4119 0.224517727,10953.6423 53.4184247,10949.4374 C57.0708347,10949.171 60.1318402,10951.829 60.411295,10955.4035 M233.419847,10783.0968 C233.159889,10786.5088 230.313349,10789.1018 226.946893,10789.1018 C226.784419,10789.1018 226.608947,10789.0953 226.439974,10789.0823 C222.865552,10788.8029 220.187984,10785.6834 220.46094,10782.1025 C224.54878,10728.993 205.318386,10676.9689 167.702463,10639.3595 C123.288638,10594.9457 60.1318402,10576.7031 -1.22474816,10590.5459 C-4.66919173,10591.3258 -8.20462061,10589.1421 -8.99749253,10585.6392 C-9.7838655,10582.1363 -7.58722035,10578.6528 -4.08428622,10577.8665 C61.6655924,10563.0294 129.313164,10582.5847 176.891978,10630.17 C217.191968,10670.4635 237.800139,10726.1985 233.419847,10783.0968 M-89.6429649,10639.3595 C-73.1551284,10622.8717 -54.041716,10609.9323 -32.7576543,10600.8207 C-25.6413039,10627.5184 -33.1930839,10656.4453 -52.871905,10676.1241 C-67.5595323,10690.8052 -87.1018754,10698.8964 -107.892017,10698.8964 C-114.780904,10698.8964 -121.578806,10698.006 -128.181739,10696.2383 C-119.050714,10674.9413 -106.111305,10655.8344 -89.6429649,10639.3595 M-139.060982,10706.4222 C-129.052599,10710.0551 -118.569792,10711.8943 -107.892017,10711.8943 C-83.631436,10711.8943 -60.8266199,10702.4513 -43.6823895,10685.3136 C-18.849901,10660.4876 -10.5702385,10623.0472 -22.5673004,10589.935 C-23.1587049,10588.2973 -24.3935054,10586.965 -25.9792493,10586.2371 C-27.571492,10585.5092 -29.3782002,10585.4572 -31.0029377,10586.0811 C-56.5893044,10595.9205 -79.4136174,10610.7511 -98.8324804,10630.17 C-118.231847,10649.5759 -133.06895,10672.3937 -142.914859,10697.9866 C-143.538758,10699.6113 -143.486767,10701.4245 -142.765383,10703.0167 C-142.037501,10704.6025 -140.698717,10705.8308 -139.060982,10706.4222 M167.702463,10896.705 C144.988632,10919.4188 116.83518,10935.6272 85.9326722,10943.8353 C82.0138053,10927.7114 73.8251281,10913.1213 62.0165357,10901.2997 L2.27168702,10841.5614 C-28.1304018,10811.1528 -28.1304018,10761.6698 2.27168702,10731.2677 C16.9983081,10716.5411 36.5796448,10708.4239 57.415279,10708.4239 C78.2444142,10708.4239 97.83225,10716.5411 112.558871,10731.2677 L172.310219,10791.0125 C184.105813,10802.8146 198.695956,10811.0033 214.839348,10814.9287 C206.624675,10845.8312 190.416294,10873.9846 167.702463,10896.705 M223.820897,10803.497 C207.65151,10800.8454 193.015874,10793.3456 181.499734,10781.823 L121.748387,10722.0782 C104.571661,10704.8949 81.7213526,10695.426 57.415279,10695.426 C33.1092055,10695.426 10.2588968,10704.8949 -6.91782848,10722.0782 C-42.3890984,10757.5494 -42.3890984,10815.2731 -6.91782848,10850.7509 L52.8270202,10910.4892 C64.3561578,10922.0314 71.8559462,10936.667 74.5075179,10952.8169 C74.7934717,10954.5846 75.800809,10956.1573 77.2890686,10957.1582 C78.3743932,10957.8796 79.6351896,10958.263 80.9154827,10958.263 C81.396405,10958.263 81.8838263,10958.211 82.3582497,10958.1005 C118.186962,10949.9703 150.870182,10931.9163 176.891978,10905.8945 C202.913775,10879.8727 220.967858,10847.1765 229.104544,10811.3477 C229.50098,10809.606 229.156536,10807.7733 228.162196,10806.2851 C227.154859,10804.7968 225.588612,10803.7895 223.820897,10803.497" id="tennis-copy" sketch:type="MSShapeGroup"></path>
        </g>
    </g>
</svg>