<?xml version="1.0" encoding="UTF-8" standalone="no"?>
<svg width="142px" height="127px" viewBox="0 0 142 127" version="1.1" xmlns="http://www.w3.org/2000/svg" xmlns:xlink="http://www.w3.org/1999/xlink" xmlns:sketch="http://www.bohemiancoding.com/sketch/ns">
    <!-- Generator: Sketch 3.5.2 (25235) - http://www.bohemiancoding.com/sketch -->
    <title>Path Copy + Path + Path Copy Copy</title>
    <desc>Created with Sketch.</desc>
    <defs>
        <path id="path-1" d="M43.5643,40.5868673 C53.9682,36.8688776 64.5684,30.4113163 64.5684,19.4530306 C64.5684,8.29906122 54.1645,0.0803469388 35.3197,0.0803469388 C15.4934,0.0803469388 0.7709,12.9954694 0.7709,29.2372143 C0.7709,41.9566531 7.4451,51.1537857 16.4749,59.5681837 C24.1306,67.3955306 46.7051,90.6818878 56.1275,102.618592 C67.3166,115.729398 76.5427,126.492 91.6578,126.492 C108.3433,126.492 119.1398,117.294867 122.0843,113.576878 L122.0843,112.207092 C119.925,112.989827 115.999,113.968245 111.8767,113.968245 C106.7729,113.968245 101.2765,111.620041 96.5653,107.119316 C90.0874,101.248806 83.8058,93.2257755 76.9353,85.3984286 C68.2981,74.8315102 48.2755,53.1106224 39.0494,44.5005408 C28.4492,34.5206735 22.3639,26.3019592 22.3639,17.4961939 C22.3639,7.32064286 27.4677,1.8415 36.1049,2.03718367 C46.5088,2.23286735 49.4533,9.86453061 49.4533,20.2357653 C49.4533,29.8242653 47.0977,34.9120408 42.7791,39.8041327 L43.5643,40.5868673 Z"></path>
    </defs>
    <g id="Page-1" stroke="none" stroke-width="1" fill="none" fill-rule="evenodd" sketch:type="MSPage">
        <g id="Timeline---Desktop" sketch:type="MSArtboardGroup" transform="translate(-505.000000, -52.000000)">
            <g id="Path-Copy-+-Path-+-Path-Copy-Copy" sketch:type="MSLayerGroup" transform="translate(505.000000, 52.000000)">
                <path d="M25.6747,58.0027143 C13.3078,64.8516429 0.1557,77.962449 0.1557,93.6171429 C0.1557,113.381194 13.5041,126.492 34.7045,126.492 C52.5678,126.492 64.1495,115.142347 69.8422,105.553847 L69.057,104.575429 C65.3273,107.510684 60.4198,110.250255 50.6048,110.250255 C42.7528,110.250255 34.1156,104.771112 28.4229,97.139449 C24.6932,92.2473571 20.9635,84.4200102 20.9635,77.375398 C20.9635,69.1566837 22.5339,63.2861735 26.6562,59.3725 L25.6747,58.0027143 Z" id="Path-Copy" fill="#575E70" sketch:type="MSShapeGroup"></path>
                <g id="Rectangle-26-Copy" transform="translate(19.800000, 0.000000)">
                    <mask id="mask-2" sketch:name="Mask" fill="white">
                        <use xlink:href="#path-1"></use>
                    </mask>
                    <use id="Mask" sketch:type="MSShapeGroup" xlink:href="#path-1"></use>
                    <rect id="Rectangle-26" fill="#575E70" sketch:type="MSShapeGroup" mask="url(#mask-2)" x="-15.4745643" y="-2.87393823" width="91.4860261" height="160.693878">
                        <g transform="translate(30.268449, 77.473001) rotate(14.000000) translate(-30.268449, -77.473001) "></g>
                    </rect>
                    <rect fill="#575E70" sketch:type="MSShapeGroup" mask="url(#mask-2)" x="52.5206249" y="23.9171251" width="72.8" height="160.693878">
                        <g transform="translate(88.920625, 104.264064) rotate(14.000000) translate(-88.920625, -104.264064) "></g>
                    </rect>
                </g>
                <path d="M101.8391,77.7667653 C113.8134,60.3509184 124.4136,50.1753673 140.1176,48.0228469 L140.1176,46.4573776 L88.4907,46.4573776 L88.4907,48.0228469 C93.9871,48.609898 98.8946,49.784 101.6428,52.1322041 C104.391,54.4804082 105.5688,57.4156633 105.5688,61.9163878 C105.5688,65.4386939 103.8021,70.7221531 100.6613,76.5926633 L101.8391,77.7667653 Z" id="Path" fill="#575E70" sketch:type="MSShapeGroup"></path>
            </g>
        </g>
    </g>
</svg>