<?xml version="1.0" encoding="UTF-8" standalone="no"?>
<svg width="1000px" height="27px" viewBox="0 0 1000 27" version="1.1" xmlns="http://www.w3.org/2000/svg" xmlns:xlink="http://www.w3.org/1999/xlink" xmlns:sketch="http://www.bohemiancoding.com/sketch/ns">
    <!-- Generator: Sketch 3.5.2 (25235) - http://www.bohemiancoding.com/sketch -->
    <title>Fill 25 Copy 23</title>
    <desc>Created with Sketch.</desc>
    <defs></defs>
    <g id="Page-1" stroke="none" stroke-width="1" fill="none" fill-rule="evenodd" sketch:type="MSPage">
        <g id="Timeline---Desktop" sketch:type="MSArtboardGroup" transform="translate(-200.000000, -1165.000000)" fill="#AC987F">
            <g id="Stripe---Grey-Copy" sketch:type="MSLayerGroup" transform="translate(200.000000, 1165.000000)">
                <path d="M570.123271,25.783 C570.731822,25.801 570.909117,25.906 570.813282,26.07 C570.094521,26.1 569.902851,26.021 569.438052,25.998 C569.562638,25.904 570.046603,25.886 570.123271,25.783 L570.123271,25.783 Z M772.881,25.496 C772.564745,25.67 770.729508,25.744 770.13054,25.64 C770.207208,25.417 771.841192,25.518 772.881,25.496 L772.881,25.496 Z M752.262138,25.425 C752.089636,25.817 750.000437,25.68 748.82646,25.568 C749.593139,25.402 751.064203,25.303 752.262138,25.425 L752.262138,25.425 Z M479.056234,23.273 L480.431463,23.273 C480.83397,23.522 478.514767,23.606 479.056234,23.273 L479.056234,23.273 Z M960.860999,19.042 C960.860999,19.262 958.374086,19.377 958.11054,19.113 C958.297418,18.838 960.338699,18.871 960.860999,19.042 L960.860999,19.042 Z M957.770326,17.249 C957.664908,17.489 956.615517,17.535 955.705086,17.607 C955.748211,17.479 955.283413,17.456 955.36008,17.321 C956.045299,17.254 956.998856,17.087 957.770326,17.249 L957.770326,17.249 Z M985.255752,15.169 C984.982623,15.481 982.625087,15.398 981.824866,15.241 C982.33279,14.924 983.842189,15.242 985.255752,15.169 L985.255752,15.169 Z M938.866908,3.264 C938.574612,3.401 937.35751,3.458 936.801668,3.335 C936.811251,3.139 938.426068,3.166 938.866908,3.264 L938.866908,3.264 Z M793.844867,3.12 C793.049438,3.143 792.527138,3.109 792.124632,3.049 C792.186924,2.828 793.974244,2.898 793.844867,3.12 L793.844867,3.12 Z M786.968718,2.906 C787.376016,3.21 784.366803,3.169 783.882837,3.049 C783.743877,2.758 786.015162,2.97 786.968718,2.906 L786.968718,2.906 Z M768.755311,2.906 L771.850776,2.906 C772.05682,3.264 768.851146,3.121 768.755311,2.906 L768.755311,2.906 Z M780.097362,2.977 C779.771523,3.153 776.105842,3.261 776.316678,2.906 C777.495446,2.788 779.277974,2.821 780.097362,2.977 L780.097362,2.977 Z M713.425078,2.906 C713.655081,3.176 711.024415,3.039 710.67941,2.977 C710.583575,2.784 713.099239,2.772 713.425078,2.906 L713.425078,2.906 Z M669.101473,2.977 C668.301253,3 667.774161,2.965 667.376447,2.906 C667.409989,2.691 669.427312,2.713 669.101473,2.977 L669.101473,2.977 Z M664.630779,2.833 C664.597237,3.016 663.346592,3.003 662.915336,2.906 C662.948878,2.722 664.189939,2.736 664.630779,2.833 L664.630779,2.833 Z M706.553721,3.049 C705.144949,3.032 703.745761,3.013 702.777829,2.906 C702.75387,2.59 707.497694,2.531 706.553721,3.049 L706.553721,3.049 Z M675.282819,2.833 C674.909063,3.012 670.984628,3.123 671.161922,2.762 C672.379024,2.645 674.444265,2.667 675.282819,2.833 L675.282819,2.833 Z M685.594646,2.762 C683.409612,3.256 678.795165,2.895 675.968038,2.906 C677.913485,2.361 682.168551,2.857 685.594646,2.762 L685.594646,2.762 Z M659.134652,2.833 C655.952936,3.05 651.007859,3.057 648.47782,2.906 C651.597243,2.631 655.052089,2.627 659.134652,2.833 L659.134652,2.833 Z M547.098956,2.619 C548.253765,2.569 548.359184,2.739 548.474186,2.906 L547.098956,2.906 L547.098956,2.619 L547.098956,2.619 Z M552.94488,2.547 C552.896962,2.675 553.361761,2.698 553.289885,2.833 C552.432164,2.894 551.449857,2.927 550.189629,2.906 C550.572968,2.674 551.286937,2.512 552.94488,2.547 L552.94488,2.547 Z M531.631216,2.69 C531.142458,2.945 527.510319,2.848 526.480094,2.762 C527.270732,2.283 529.863064,2.725 531.631216,2.69 L531.631216,2.69 Z M522.359197,2.547 C523.260044,2.525 523.485256,2.646 523.389421,2.833 C522.488574,2.854 521.913565,2.807 522.014192,2.619 C522.306488,2.631 522.335238,2.59 522.359197,2.547 L522.359197,2.547 Z M501.39533,2.547 C501.735544,2.873 499.641553,2.9 499.675095,2.619 C500.07281,2.558 500.599901,2.524 501.39533,2.547 L501.39533,2.547 Z M621.672821,2.69 C621.001977,2.86 620.661764,3.1 619.957378,3.264 C616.123985,2.758 608.725537,3.376 605.519862,2.69 C611.29391,2.647 617.130251,2.324 621.672821,2.69 L621.672821,2.69 Z M512.04737,2.547 C511.376527,3.195 508.079809,2.602 505.861233,2.762 C506.522493,2.325 510.006089,2.641 512.04737,2.547 L512.04737,2.547 Z M471.494866,2.619 C471.485283,2.834 469.05587,2.827 469.434418,2.547 C470.162762,2.389 470.958191,2.532 471.494866,2.619 L471.494866,2.619 Z M389.704639,2.331 C390.754031,2.4 393.193027,2.178 393.145109,2.474 C392.10051,2.406 389.656722,2.629 389.704639,2.331 L389.704639,2.331 Z M426.47646,2.403 C424.444762,2.649 420.884498,2.757 418.574879,2.547 C420.151362,1.993 423.874544,2.474 426.47646,2.403 L426.47646,2.403 Z M986.285977,2.117 C986.04639,2.374 984.675952,2.217 984.225528,2.117 C984.469907,1.858 985.835553,2.015 986.285977,2.117 L986.285977,2.117 Z M966.357126,1.973 C966.53442,2.35 963.434164,2.35 963.611458,1.973 C964.109799,1.868 965.853993,1.868 966.357126,1.973 L966.357126,1.973 Z M891.438256,1.829 C892.545148,1.839 894.068921,1.759 893.848501,2.045 C892.779943,2.152 891.452631,2.129 891.438256,1.829 L891.438256,1.829 Z M918.593052,1.829 C918.545134,2.013 918.094711,2.108 917.21303,2.117 C917.208239,2.046 916.796149,2.061 916.527811,2.045 C916.446352,1.803 917.802414,1.674 918.593052,1.829 L918.593052,1.829 Z M881.81644,1.973 C881.198305,1.964 881.088095,2.061 880.44121,2.045 C880.259124,1.987 880.081829,1.928 880.100996,1.829 C880.613713,1.716 882.060818,1.724 881.81644,1.973 L881.81644,1.973 Z M169.763728,1.471 C167.617028,1.753 164.746775,1.511 162.552157,1.399 C161.895689,1.501 161.057134,1.566 160.146704,1.614 C151.454485,1.611 142.642474,1.327 133.341704,1.327 C128.463712,1.327 123.863641,1.487 119.249194,1.399 C116.771864,1.351 114.519746,1.202 112.032832,1.184 C109.737588,1.167 107.360885,1.302 105.156684,1.256 C101.064537,1.169 97.106559,0.948 93.1342057,0.897 C91.7446008,0.88 90.3789546,0.982 89.0085167,0.969 C84.0873987,0.921 79.2812825,0.588 74.5757928,0.538 C66.4825423,0.453 57.9676185,0.02 49.1460233,0.108 C37.1714626,0.227 25.8581621,-0.16 13.0594219,0.252 C11.3823126,0.306 7.77892334,0.475 6.18806532,0.467 C5.2968015,0.64 5.22492538,0.983 4.12282496,1.112 C2.55592565,1.2 2.21571204,0.814 1.03215201,1.04 C1.72695446,1.691 2.15341941,2.295 2.41217342,3.049 C1.63591138,3.175 -0.0651566745,3.107 0.00192769943,3.407 C2.45050735,4.154 4.59653574,5.65500022 3.43693442,6.92200022 C4.33298999,7.14100022 4.27636686,8.07800031 4.89929319,8.35500031 C5.37367555,9.25500031 -1.2870507,9.63000043 2.41217335,10.0770004 C1.78924702,10.2830004 3.90240479,11.106537 4.12282487,11.385537 C6.33660921,11.830537 5.21534172,12.0250003 6.18806514,12.7300003 C6.04431291,12.9170003 4.89929319,13.8790002 4.89929319,14.0930002 C6.36077419,14.7430002 9.62864372,13.7296083 9.79156291,14.4206083 C10.8409542,14.4166083 9.2644714,15.733 9.79156291,15.958 C9.9544821,16.185 11.9790051,16.5490006 12.3479692,16.8180006 C14.2502903,17.0660006 6.34922985,17.3579993 7.55674858,17.7509993 C6.47860686,17.9089993 9.02465535,18.4650005 9.26903414,18.8980005 C12.546585,19.0750005 9.8243338,20.5370003 5.76572917,20.7630003 C7.91242914,20.7050003 7.76585699,21.9959994 7.16209762,22.3409994 C10.3773558,22.4819994 12.6876334,22.3619994 13.9334861,22.9139994 C20.6515069,22.7319994 18.3673203,22.8999994 24.14616,22.9139994 C24.9080468,22.9709994 25.5580954,23.7379999 26.0708117,23.8469999 C31.1548489,23.7909999 49.9559447,24.1039995 52.2224382,24.6359995 C94.1070462,25.2359995 174.162546,25.811 216.502369,25.855 C233.666386,25.872 252.028337,26.063 269.43194,25.927 C291.104985,25.757 314.675559,26.058 334.374406,25.998 C341.145136,25.978 348.994008,26.16 356.373289,26.142 C364.969672,26.12 372.416038,26.042 381.11784,26.142 C388.918794,26.232 397.036003,26.006 403.452144,26.142 C406.82553,26.213 409.877869,26.048 413.418966,26.07 C415.656709,26.084 417.798617,26.282 419.950109,26.285 C420.630536,26.286 421.210336,26.153 422.010557,26.142 C423.491205,26.121 425.192273,26.314 426.47646,26.285 C434.440333,26.107 444.34007,26.422 452.59624,26.07 C454.805233,26.342 457.737778,26.41 460.152815,26.142 C465.318312,26.591 469.985468,25.949 473.90032,26.357 C475.13659,26.375 475.160548,26.141 476.305774,26.142 C479.468323,26.646 483.124422,26.278 485.92759,26.214 C490.613913,26.105 496.455045,26.586 501.39533,26.429 C502.516598,26.28 503.417445,26.086 505.521019,26.142 C506.901041,26.779 509.857545,26.317 512.392376,26.285 C513.892191,26.266 515.684302,26.464 517.203284,26.429 C518.382052,26.401 519.464986,26.187 520.63417,26.142 C524.146516,26.005 528.142828,26.282 531.631216,25.998 C532.99207,25.978 532.690191,26.305 534.041462,26.285 C537.491515,26.119 541.080529,26.322 544.353288,26.285 C548.181889,26.243 551.655902,25.878 554.32011,26.214 C555.484503,26.195 555.067621,25.844 556.380558,25.855 C557.233488,25.923 555.455752,26.224 557.065777,26.214 C563.501085,26.357 571.556002,26.11 577.344425,26.5 C580.617184,26.288 583.568897,25.995 586.621236,26.429 C588.466056,26.383 588.17376,25.892 590.746925,25.998 C590.636715,26.282 589.548989,25.918 589.7167,26.214 C597.661407,26.522 605.457569,26.343 614.456459,26.5 C615.39564,26.433 615.922732,26.28 616.861913,26.214 C618.404854,26.462 619.420703,26.239 621.327816,26.214 C628.946684,26.475 636.613469,26.122 642.981693,26.429 C644.04546,26.436 643.964,26.203 645.387147,26.285 C646.216118,26.375 647.059465,26.463 648.137606,26.5 C649.19179,26.481 649.680547,26.345 650.54306,26.285 C652.349547,26.722 657.026286,26.01 659.474866,26.5 C660.404463,26.408 661.02739,26.251 662.225325,26.214 C663.293883,26.206 663.207632,26.439 664.630779,26.357 C670.438369,25.794 677.841609,26.744 682.154176,25.855 C682.839395,25.904 681.943339,26.282 683.189192,26.214 C695.341047,26.636 706.328509,25.628 715.835323,26.429 C720.612689,26.233 725.768602,26.412 730.613053,26.357 C731.475566,26.206 729.745747,26.078 730.613053,25.927 C734.537488,25.728 736.339183,26.026 739.549649,26.214 C740.119867,26.005 740.891337,25.707 743.670547,25.783 C744.954733,25.849 744.537852,26.272 746.425798,26.214 C747.067891,25.784 751.998593,25.724 755.352811,25.855 C756.277617,25.891 757.015545,26.083 757.763057,26.142 C761.246653,26.417 762.511672,26.143 764.634414,25.927 C767.62446,26.419 770.120957,25.745 774.601235,25.927 C775.434998,26.078 774.299355,26.245 774.94624,26.357 C777.931495,26.239 781.956557,26.338 783.882837,25.998 C784.155966,26.228 785.071189,26.323 786.628505,26.285 C786.916009,26.132 786.412876,25.819 788.688953,25.927 C789.062709,26.11 787.514977,26.296 789.033959,26.285 C791.223784,26.189 793.33215,25.57 795.905315,25.998 C796.279071,26.181 794.300082,26.276 795.905315,26.285 C804.06565,26.533 808.287174,25.78 816.179171,25.998 C816.351674,26.346 818.10066,26.364 819.959855,26.357 C820.108399,26.222 819.499848,25.925 820.649866,25.998 C822.537812,25.891 822.144889,26.26 823.05532,26.357 C825.024725,26.115 825.551817,26.054 828.211233,26.214 C828.407694,25.777 831.589411,25.963 833.70736,25.927 C834.1482,25.719 833.386313,25.477 835.077798,25.425 C835.130507,25.557 836.251774,25.469 836.457819,25.568 C836.711782,25.789 835.513846,25.706 835.7726,25.927 C837.195747,25.756 838.762647,26.037 840.233711,25.855 C840.463715,25.688 840.439756,25.415 842.643957,25.496 C843.961686,25.531 841.973113,25.906 844.019187,25.855 C844.694822,25.725 842.811668,25.437 844.704406,25.353 C845.854423,25.448 847.488407,25.441 848.485089,25.568 C848.164043,25.74 845.9838,25.524 846.424641,25.855 C849.09364,25.8 850.708457,25.965 853.291205,25.927 C853.391832,25.801 852.328066,25.569 853.291205,25.496 C854.21122,25.497 855.255819,25.469 855.701451,25.568 C856.008123,25.743 854.172886,25.936 855.701451,25.927 C862.706977,25.878 868.064143,26.131 875.635094,25.927 C875.917806,25.605 873.03797,25.942 873.224848,25.64 C876.78032,25.508 882.357906,25.359 885.252118,25.712 C888.687796,25.449 895.286024,25.325 897.629185,25.855 C897.993357,25.598 899.100249,25.493 900.034639,25.353 C899.536298,25.29 898.942122,25.245 898.999623,25.066 C900.403603,24.979 902.373008,24.74 903.470317,24.923 C904.356789,25.069 902.914475,25.235 904.155536,25.281 C905.01805,25.265 906.235152,25.547 908.281225,25.496 C909.158114,25.367 906.877245,25.025 908.621439,24.923 C911.007726,24.983 911.640236,25.143 913.782144,25.353 C915.253208,25.147 917.51491,25.437 919.96349,25.209 C920.361204,25.222 920.337245,25.323 920.308495,25.425 C921.314761,25.276 922.407278,25.146 924.429392,25.209 C924.659396,26.078 928.718,25.389 931.99076,25.783 C932.560977,25.663 932.891607,25.493 934.056,25.496 C935.622899,25.48 936.45187,25.617 937.49647,25.712 C940.424224,25.242 947.578293,25.961 948.833729,25.425 C948.325805,25.232 945.853266,25.607 945.053046,25.353 C947.089535,24.849 949.514156,25.034 952.614413,25.209 C955.048617,25.059 958.843676,25.042 959.830775,25.568 C960.630996,25.497 960.247656,25.177 960.860999,25.066 C962.40394,25.101 963.438956,25.03 964.646474,24.995 C965.62399,25.124 965.54253,25.475 966.706923,25.568 C969.304047,25.525 967.837774,25.162 968.767372,24.995 C969.232171,24.896 971.163242,24.857 971.168034,25.066 C971.278244,25.348 969.030917,25.372 970.142601,25.64 C972.821185,25.507 972.255759,25.126 973.233274,25.066 C975.782481,25.278 977.833346,25.153 980.444845,25.353 C981.460694,24.986 985.701384,25.008 988.006212,25.138 C987.737874,25.386 988.394343,25.44 988.696223,25.568 C994.024639,25.116 998.103376,1.18200001 998.927556,1.04000001 C1003.32158,1.29200001 992.450332,24.5989995 997.673329,24.6359995 C995.507192,24.4309631 987.028697,1.634 977.009166,1.399 C975.461434,1.675 973.952035,1.481 972.543264,1.471 C968.800914,1.444 963.046033,1.561 958.455545,1.471 C954.89049,1.401 951.871693,1.23 948.833729,1.399 C947.506417,1.473 946.720571,1.867 945.053046,1.686 C944.856584,2.037 946.466609,2.013 946.773281,2.26 C943.529272,2.351 942.321753,1.872 939.897132,2.188 C939.336499,2.018 937.697723,2.074 938.176897,1.686 C935.852903,1.771 933.519325,1.62 931.645754,1.901 C930.31365,1.892 930.581988,1.55 929.245092,1.542 C927.246936,1.579 927.088809,2.001 925.464408,2.117 C925.363782,1.898 926.561717,1.838 925.804622,1.686 C923.840008,1.304 919.412439,1.265 917.558036,1.614 C914.544031,1.55 910.993351,1.557 907.93622,1.758 C904.318455,1.431 898.961289,1.48 895.573528,1.542 C889.574268,1.653 882.108736,1.239 876.665318,1.399 C875.448216,1.435 874.456325,1.719 873.224848,1.614 C873.220056,1.805 873.416518,2.037 872.544421,2.045 C867.364549,1.349 859.635471,2.179 852.610778,1.973 C851.518261,1.865 854.067468,1.561 852.265773,1.542 C850.119073,1.673 852.931825,2.008 850.885751,2.117 C847.018817,1.879 838.810564,1.724 834.737584,2.045 C833.501315,2.062 833.482148,1.829 832.33213,1.829 C824.698887,2.214 816.054586,1.995 808.622596,1.973 C807.649872,1.96 808.196131,1.632 806.902361,1.686 C805.11025,1.629 804.123151,1.836 802.431667,1.973 C800.591638,1.907 798.742026,1.933 797.280545,2.117 C765.69818,2.019 725.821312,1.965 692.466002,1.973 C688.407398,1.974 684.013371,2.058 681.464165,2.26 C680.251855,2.298 680.62561,2.006 679.408508,2.045 C663.610138,2.05 647.164883,2.002 633.704883,1.973 C629.627111,1.964 624.816203,1.813 621.672821,2.331 C618.021514,2.352 618.654024,2.053 617.547132,2.117 C616.488157,2.062 616.890663,2.313 615.831689,2.26 C615.462725,2.098 614.787089,1.999 613.766448,1.973 C595.720752,2.071 576.663998,1.733 559.816236,2.045 C559.039974,2.098 559.063933,2.318 558.096001,2.331 C555.014912,2.354 551.98174,2.365 550.189629,2.117 C548.23939,2.539 544.338913,2.358 542.29284,2.045 C539.911344,2.475 537.525057,2.228 535.076478,1.973 C534.659596,2.197 533.864167,2.342 532.326018,2.331 C530.859746,2.303 530.945997,1.949 529.575559,1.901 C527.78824,1.887 527.064687,2.096 525.794875,2.188 C523.19296,1.92 520.543127,1.946 516.518065,1.973 C515.281796,2.955 510.034839,1.658 508.266687,2.26 C507.217296,2.192 506.805206,1.992 505.521019,1.973 C504.265583,1.974 504.787883,2.346 503.115565,2.26 C501.99909,2.253 502.871186,1.832 501.39533,1.901 C495.673991,1.953 489.023055,1.765 485.587377,2.117 C480.910637,1.495 475.711599,2.318 471.154653,2.26 C468.715657,1.58 466.727084,2.247 462.903275,2.188 C458.969255,1.757 452.438112,2.089 448.130337,2.331 C449.227646,2.327 450.631626,2.447 449.845781,2.619 C441.762114,2.593 434.215121,2.702 427.16647,2.474 C430.122975,2.144 434.862007,2.621 437.1285,2.188 C429.36588,2.059 418.919884,2.263 411.00872,1.973 C408.315761,2.171 404.429659,2.002 401.391696,2.26 C401.703159,2.279 402.546505,2.527 401.736701,2.547 C399.954173,2.513 397.472052,2.624 396.235782,2.474 C396.034529,2.223 397.860183,2.239 396.925793,2.045 C385.952706,2.216 371.055183,2.036 360.839192,2.117 C359.971887,2.081 361.79754,2.473 360.153973,2.403 C357.906646,2.423 360.767316,2.097 359.123748,2.117 C332.888966,1.903 313.295537,1.893 285.580108,1.973 C284.823012,2.029 285.647192,2.417 284.204878,2.331 C282.082137,2.44 282.733813,1.97 281.454419,1.901 C272.858035,2.061 264.362278,1.748 257.054873,2.045 C230.106122,1.586 199.204184,2.091 169.763728,1.471 Z M862.917813,26.285 C863.305944,26.453 865.184307,26.335 865.323267,26.214 C865.035763,26.153 862.6351,26.017 862.917813,26.285 L862.917813,26.285 Z" id="Fill-25-Copy-23" sketch:type="MSShapeGroup" transform="translate(500.000000, 13.278363) scale(-1, 1) translate(-500.000000, -13.278363) "></path>
            </g>
        </g>
    </g>
</svg>