<?xml version="1.0" encoding="UTF-8" standalone="no"?>
<svg width="1000px" height="27px" viewBox="0 0 1000 27" version="1.1" xmlns="http://www.w3.org/2000/svg" xmlns:xlink="http://www.w3.org/1999/xlink" xmlns:sketch="http://www.bohemiancoding.com/sketch/ns">
    <!-- Generator: Sketch 3.5.2 (25235) - http://www.bohemiancoding.com/sketch -->
    <title>Fill 25 Copy 23</title>
    <desc>Created with Sketch.</desc>
    <defs></defs>
    <g id="Page-1" stroke="none" stroke-width="1" fill="none" fill-rule="evenodd" sketch:type="MSPage">
        <g id="Timeline---Desktop" sketch:type="MSArtboardGroup" transform="translate(-200.000000, -1165.000000)" fill="#C8C3B0">
            <g id="Stripe---Grey-Copy" sketch:type="MSLayerGroup" transform="translate(584.000000, 1165.000000)">
                <path d="M186.123271,25.783 C186.731822,25.801 186.909117,25.906 186.813282,26.07 C186.094521,26.1 185.902851,26.021 185.438052,25.998 C185.562638,25.904 186.046603,25.886 186.123271,25.783 L186.123271,25.783 Z M388.881,25.496 C388.564745,25.67 386.729508,25.744 386.13054,25.64 C386.207208,25.417 387.841192,25.518 388.881,25.496 L388.881,25.496 Z M368.262138,25.425 C368.089636,25.817 366.000437,25.68 364.82646,25.568 C365.593139,25.402 367.064203,25.303 368.262138,25.425 L368.262138,25.425 Z M95.0562337,23.273 L96.4314634,23.273 C96.8339696,23.522 94.514767,23.606 95.0562337,23.273 L95.0562337,23.273 Z M576.860999,19.042 C576.860999,19.262 574.374086,19.377 574.11054,19.113 C574.297418,18.838 576.338699,18.871 576.860999,19.042 L576.860999,19.042 Z M573.770326,17.249 C573.664908,17.489 572.615517,17.535 571.705086,17.607 C571.748211,17.479 571.283413,17.456 571.36008,17.321 C572.045299,17.254 572.998856,17.087 573.770326,17.249 L573.770326,17.249 Z M601.255752,15.169 C600.982623,15.481 598.625087,15.398 597.824866,15.241 C598.33279,14.924 599.842189,15.242 601.255752,15.169 L601.255752,15.169 Z M554.866908,3.264 C554.574612,3.401 553.35751,3.458 552.801668,3.335 C552.811251,3.139 554.426068,3.166 554.866908,3.264 L554.866908,3.264 Z M409.844867,3.12 C409.049438,3.143 408.527138,3.109 408.124632,3.049 C408.186924,2.828 409.974244,2.898 409.844867,3.12 L409.844867,3.12 Z M402.968718,2.906 C403.376016,3.21 400.366803,3.169 399.882837,3.049 C399.743877,2.758 402.015162,2.97 402.968718,2.906 L402.968718,2.906 Z M384.755311,2.906 L387.850776,2.906 C388.05682,3.264 384.851146,3.121 384.755311,2.906 L384.755311,2.906 Z M396.097362,2.977 C395.771523,3.153 392.105842,3.261 392.316678,2.906 C393.495446,2.788 395.277974,2.821 396.097362,2.977 L396.097362,2.977 Z M329.425078,2.906 C329.655081,3.176 327.024415,3.039 326.67941,2.977 C326.583575,2.784 329.099239,2.772 329.425078,2.906 L329.425078,2.906 Z M285.101473,2.977 C284.301253,3 283.774161,2.965 283.376447,2.906 C283.409989,2.691 285.427312,2.713 285.101473,2.977 L285.101473,2.977 Z M280.630779,2.833 C280.597237,3.016 279.346592,3.003 278.915336,2.906 C278.948878,2.722 280.189939,2.736 280.630779,2.833 L280.630779,2.833 Z M322.553721,3.049 C321.144949,3.032 319.745761,3.013 318.777829,2.906 C318.75387,2.59 323.497694,2.531 322.553721,3.049 L322.553721,3.049 Z M291.282819,2.833 C290.909063,3.012 286.984628,3.123 287.161922,2.762 C288.379024,2.645 290.444265,2.667 291.282819,2.833 L291.282819,2.833 Z M301.594646,2.762 C299.409612,3.256 294.795165,2.895 291.968038,2.906 C293.913485,2.361 298.168551,2.857 301.594646,2.762 L301.594646,2.762 Z M275.134652,2.833 C271.952936,3.05 267.007859,3.057 264.47782,2.906 C267.597243,2.631 271.052089,2.627 275.134652,2.833 L275.134652,2.833 Z M163.098956,2.619 C164.253765,2.569 164.359184,2.739 164.474186,2.906 L163.098956,2.906 L163.098956,2.619 L163.098956,2.619 Z M168.94488,2.547 C168.896962,2.675 169.361761,2.698 169.289885,2.833 C168.432164,2.894 167.449857,2.927 166.189629,2.906 C166.572968,2.674 167.286937,2.512 168.94488,2.547 L168.94488,2.547 Z M147.631216,2.69 C147.142458,2.945 143.510319,2.848 142.480094,2.762 C143.270732,2.283 145.863064,2.725 147.631216,2.69 L147.631216,2.69 Z M138.359197,2.547 C139.260044,2.525 139.485256,2.646 139.389421,2.833 C138.488574,2.854 137.913565,2.807 138.014192,2.619 C138.306488,2.631 138.335238,2.59 138.359197,2.547 L138.359197,2.547 Z M117.39533,2.547 C117.735544,2.873 115.641553,2.9 115.675095,2.619 C116.07281,2.558 116.599901,2.524 117.39533,2.547 L117.39533,2.547 Z M237.672821,2.69 C237.001977,2.86 236.661764,3.1 235.957378,3.264 C232.123985,2.758 224.725537,3.376 221.519862,2.69 C227.29391,2.647 233.130251,2.324 237.672821,2.69 L237.672821,2.69 Z M128.04737,2.547 C127.376527,3.195 124.079809,2.602 121.861233,2.762 C122.522493,2.325 126.006089,2.641 128.04737,2.547 L128.04737,2.547 Z M87.4948664,2.619 C87.485283,2.834 85.0558703,2.827 85.4344178,2.547 C86.1627624,2.389 86.9581914,2.532 87.4948664,2.619 L87.4948664,2.619 Z M5.70463938,2.331 C6.75403066,2.4 9.19302683,2.178 9.14510942,2.474 C8.10050988,2.406 5.65672197,2.629 5.70463938,2.331 L5.70463938,2.331 Z M42.4764598,2.403 C40.4447616,2.649 36.884498,2.757 34.5748789,2.547 C36.1513617,1.993 39.8745444,2.474 42.4764598,2.403 L42.4764598,2.403 Z M602.285977,2.117 C602.04639,2.374 600.675952,2.217 600.225528,2.117 C600.469907,1.858 601.835553,2.015 602.285977,2.117 L602.285977,2.117 Z M582.357126,1.973 C582.53442,2.35 579.434164,2.35 579.611458,1.973 C580.109799,1.868 581.853993,1.868 582.357126,1.973 L582.357126,1.973 Z M507.438256,1.829 C508.545148,1.839 510.068921,1.759 509.848501,2.045 C508.779943,2.152 507.452631,2.129 507.438256,1.829 L507.438256,1.829 Z M534.593052,1.829 C534.545134,2.013 534.094711,2.108 533.21303,2.117 C533.208239,2.046 532.796149,2.061 532.527811,2.045 C532.446352,1.803 533.802414,1.674 534.593052,1.829 L534.593052,1.829 Z M497.81644,1.973 C497.198305,1.964 497.088095,2.061 496.44121,2.045 C496.259124,1.987 496.081829,1.928 496.100996,1.829 C496.613713,1.716 498.060818,1.724 497.81644,1.973 L497.81644,1.973 Z M-214.236272,1.471 C-216.382972,1.753 -219.253225,1.511 -221.447843,1.399 C-222.104311,1.501 -222.942866,1.566 -223.853296,1.614 C-232.545515,1.611 -241.357526,1.327 -250.658296,1.327 C-255.536288,1.327 -260.136359,1.487 -264.750806,1.399 C-267.228136,1.351 -269.480254,1.202 -271.967168,1.184 C-274.262412,1.167 -276.639115,1.302 -278.843316,1.256 C-282.935463,1.169 -286.893441,0.948 -290.865794,0.897 C-292.255399,0.88 -293.621045,0.982 -294.991483,0.969 C-299.912601,0.921 -304.718718,0.588 -309.424207,0.538 C-317.517458,0.453 -326.032381,0.02 -334.853977,0.108 C-346.828537,0.227 -358.141838,-0.16 -370.940578,0.252 C-372.617687,0.306 -376.221077,0.475 -377.811935,0.467 C-378.703199,0.64 -378.775075,0.983 -379.877175,1.112 C-381.444074,1.2 -381.784288,0.814 -382.967848,1.04 C-382.273046,1.691 -381.846581,2.295 -381.587827,3.049 C-382.364089,3.175 -384.065157,3.107 -383.998072,3.407 C-381.549493,4.154 -379.403464,5.65500022 -380.563066,6.92200022 C-379.66701,7.14100022 -379.723633,8.07800031 -379.100707,8.35500031 C-378.626324,9.25500031 -385.287051,9.63000043 -381.587827,10.0770004 C-382.210753,10.2830004 -380.097595,11.106537 -379.877175,11.385537 C-377.663391,11.830537 -378.784658,12.0250003 -377.811935,12.7300003 C-377.955687,12.9170003 -379.100707,13.8790002 -379.100707,14.0930002 C-377.639226,14.7430002 -374.371356,13.7296083 -374.208437,14.4206083 C-373.159046,14.4166083 -374.735529,15.733 -374.208437,15.958 C-374.045518,16.185 -372.020995,16.5490006 -371.652031,16.8180006 C-369.74971,17.0660006 -377.65077,17.3579993 -376.443251,17.7509993 C-377.521393,17.9089993 -374.975345,18.4650005 -374.730966,18.8980005 C-371.453415,19.0750005 -374.175666,20.5370003 -378.234271,20.7630003 C-376.087571,20.7050003 -376.234143,21.9959994 -376.837902,22.3409994 C-373.622644,22.4819994 -371.312367,22.3619994 -370.066514,22.9139994 C-363.348493,22.7319994 -365.63268,22.8999994 -359.85384,22.9139994 C-359.091953,22.9709994 -358.441905,23.7379999 -357.929188,23.8469999 C-352.845151,23.7909999 -334.044055,24.1039995 -331.777562,24.6359995 C-289.892954,25.2359995 -209.837454,25.811 -167.497631,25.855 C-150.333614,25.872 -131.971663,26.063 -114.56806,25.927 C-92.8950151,25.757 -69.3244411,26.058 -49.6255939,25.998 C-42.8548639,25.978 -35.0059921,26.16 -27.626711,26.142 C-19.0303276,26.12 -11.5839621,26.042 -2.88216048,26.142 C4.91879386,26.232 13.0360031,26.006 19.4521443,26.142 C22.82553,26.213 25.877869,26.048 29.4189656,26.07 C31.6567086,26.084 33.7986168,26.282 35.9501085,26.285 C36.6305358,26.286 37.2103364,26.153 38.0105572,26.142 C39.4912051,26.121 41.1922732,26.314 42.4764598,26.285 C50.4403333,26.107 60.3400702,26.422 68.5962399,26.07 C70.8052325,26.342 73.737778,26.41 76.1528155,26.142 C81.3183123,26.591 85.985468,25.949 89.9003204,26.357 C91.1365896,26.375 91.1605483,26.141 92.3057744,26.142 C95.4683235,26.646 99.1244218,26.278 101.92759,26.214 C106.613913,26.105 112.455045,26.586 117.39533,26.429 C118.516598,26.28 119.417445,26.086 121.521019,26.142 C122.901041,26.779 125.857545,26.317 128.392376,26.285 C129.892191,26.266 131.684302,26.464 133.203284,26.429 C134.382052,26.401 135.464986,26.187 136.63417,26.142 C140.146516,26.005 144.142828,26.282 147.631216,25.998 C148.99207,25.978 148.690191,26.305 150.041462,26.285 C153.491515,26.119 157.080529,26.322 160.353288,26.285 C164.181889,26.243 167.655902,25.878 170.32011,26.214 C171.484503,26.195 171.067621,25.844 172.380558,25.855 C173.233488,25.923 171.455752,26.224 173.065777,26.214 C179.501085,26.357 187.556002,26.11 193.344425,26.5 C196.617184,26.288 199.568897,25.995 202.621236,26.429 C204.466056,26.383 204.17376,25.892 206.746925,25.998 C206.636715,26.282 205.548989,25.918 205.7167,26.214 C213.661407,26.522 221.457569,26.343 230.456459,26.5 C231.39564,26.433 231.922732,26.28 232.861913,26.214 C234.404854,26.462 235.420703,26.239 237.327816,26.214 C244.946684,26.475 252.613469,26.122 258.981693,26.429 C260.04546,26.436 259.964,26.203 261.387147,26.285 C262.216118,26.375 263.059465,26.463 264.137606,26.5 C265.19179,26.481 265.680547,26.345 266.54306,26.285 C268.349547,26.722 273.026286,26.01 275.474866,26.5 C276.404463,26.408 277.02739,26.251 278.225325,26.214 C279.293883,26.206 279.207632,26.439 280.630779,26.357 C286.438369,25.794 293.841609,26.744 298.154176,25.855 C298.839395,25.904 297.943339,26.282 299.189192,26.214 C311.341047,26.636 322.328509,25.628 331.835323,26.429 C336.612689,26.233 341.768602,26.412 346.613053,26.357 C347.475566,26.206 345.745747,26.078 346.613053,25.927 C350.537488,25.728 352.339183,26.026 355.549649,26.214 C356.119867,26.005 356.891337,25.707 359.670547,25.783 C360.954733,25.849 360.537852,26.272 362.425798,26.214 C363.067891,25.784 367.998593,25.724 371.352811,25.855 C372.277617,25.891 373.015545,26.083 373.763057,26.142 C377.246653,26.417 378.511672,26.143 380.634414,25.927 C383.62446,26.419 386.120957,25.745 390.601235,25.927 C391.434998,26.078 390.299355,26.245 390.94624,26.357 C393.931495,26.239 397.956557,26.338 399.882837,25.998 C400.155966,26.228 401.071189,26.323 402.628505,26.285 C402.916009,26.132 402.412876,25.819 404.688953,25.927 C405.062709,26.11 403.514977,26.296 405.033959,26.285 C407.223784,26.189 409.33215,25.57 411.905315,25.998 C412.279071,26.181 410.300082,26.276 411.905315,26.285 C420.06565,26.533 424.287174,25.78 432.179171,25.998 C432.351674,26.346 434.10066,26.364 435.959855,26.357 C436.108399,26.222 435.499848,25.925 436.649866,25.998 C438.537812,25.891 438.144889,26.26 439.05532,26.357 C441.024725,26.115 441.551817,26.054 444.211233,26.214 C444.407694,25.777 447.589411,25.963 449.70736,25.927 C450.1482,25.719 449.386313,25.477 451.077798,25.425 C451.130507,25.557 452.251774,25.469 452.457819,25.568 C452.711782,25.789 451.513846,25.706 451.7726,25.927 C453.195747,25.756 454.762647,26.037 456.233711,25.855 C456.463715,25.688 456.439756,25.415 458.643957,25.496 C459.961686,25.531 457.973113,25.906 460.019187,25.855 C460.694822,25.725 458.811668,25.437 460.704406,25.353 C461.854423,25.448 463.488407,25.441 464.485089,25.568 C464.164043,25.74 461.9838,25.524 462.424641,25.855 C465.09364,25.8 466.708457,25.965 469.291205,25.927 C469.391832,25.801 468.328066,25.569 469.291205,25.496 C470.21122,25.497 471.255819,25.469 471.701451,25.568 C472.008123,25.743 470.172886,25.936 471.701451,25.927 C478.706977,25.878 484.064143,26.131 491.635094,25.927 C491.917806,25.605 489.03797,25.942 489.224848,25.64 C492.78032,25.508 498.357906,25.359 501.252118,25.712 C504.687796,25.449 511.286024,25.325 513.629185,25.855 C513.993357,25.598 515.100249,25.493 516.034639,25.353 C515.536298,25.29 514.942122,25.245 514.999623,25.066 C516.403603,24.979 518.373008,24.74 519.470317,24.923 C520.356789,25.069 518.914475,25.235 520.155536,25.281 C521.01805,25.265 522.235152,25.547 524.281225,25.496 C525.158114,25.367 522.877245,25.025 524.621439,24.923 C527.007726,24.983 527.640236,25.143 529.782144,25.353 C531.253208,25.147 533.51491,25.437 535.96349,25.209 C536.361204,25.222 536.337245,25.323 536.308495,25.425 C537.314761,25.276 538.407278,25.146 540.429392,25.209 C540.659396,26.078 544.718,25.389 547.99076,25.783 C548.560977,25.663 548.891607,25.493 550.056,25.496 C551.622899,25.48 552.45187,25.617 553.49647,25.712 C556.424224,25.242 563.578293,25.961 564.833729,25.425 C564.325805,25.232 561.853266,25.607 561.053046,25.353 C563.089535,24.849 565.514156,25.034 568.614413,25.209 C571.048617,25.059 574.843676,25.042 575.830775,25.568 C576.630996,25.497 576.247656,25.177 576.860999,25.066 C578.40394,25.101 579.438956,25.03 580.646474,24.995 C581.62399,25.124 581.54253,25.475 582.706923,25.568 C585.304047,25.525 583.837774,25.162 584.767372,24.995 C585.232171,24.896 587.163242,24.857 587.168034,25.066 C587.278244,25.348 585.030917,25.372 586.142601,25.64 C588.821185,25.507 588.255759,25.126 589.233274,25.066 C591.782481,25.278 593.833346,25.153 596.444845,25.353 C597.460694,24.986 601.701384,25.008 604.006212,25.138 C603.737874,25.386 604.394343,25.44 604.696223,25.568 C610.024639,25.116 614.103376,1.18200001 614.927556,1.04000001 C619.321582,1.29200001 608.450332,24.5989995 613.673329,24.6359995 C611.507192,24.4309631 603.028697,1.634 593.009166,1.399 C591.461434,1.675 589.952035,1.481 588.543264,1.471 C584.800914,1.444 579.046033,1.561 574.455545,1.471 C570.89049,1.401 567.871693,1.23 564.833729,1.399 C563.506417,1.473 562.720571,1.867 561.053046,1.686 C560.856584,2.037 562.466609,2.013 562.773281,2.26 C559.529272,2.351 558.321753,1.872 555.897132,2.188 C555.336499,2.018 553.697723,2.074 554.176897,1.686 C551.852903,1.771 549.519325,1.62 547.645754,1.901 C546.31365,1.892 546.581988,1.55 545.245092,1.542 C543.246936,1.579 543.088809,2.001 541.464408,2.117 C541.363782,1.898 542.561717,1.838 541.804622,1.686 C539.840008,1.304 535.412439,1.265 533.558036,1.614 C530.544031,1.55 526.993351,1.557 523.93622,1.758 C520.318455,1.431 514.961289,1.48 511.573528,1.542 C505.574268,1.653 498.108736,1.239 492.665318,1.399 C491.448216,1.435 490.456325,1.719 489.224848,1.614 C489.220056,1.805 489.416518,2.037 488.544421,2.045 C483.364549,1.349 475.635471,2.179 468.610778,1.973 C467.518261,1.865 470.067468,1.561 468.265773,1.542 C466.119073,1.673 468.931825,2.008 466.885751,2.117 C463.018817,1.879 454.810564,1.724 450.737584,2.045 C449.501315,2.062 449.482148,1.829 448.33213,1.829 C440.698887,2.214 432.054586,1.995 424.622596,1.973 C423.649872,1.96 424.196131,1.632 422.902361,1.686 C421.11025,1.629 420.123151,1.836 418.431667,1.973 C416.591638,1.907 414.742026,1.933 413.280545,2.117 C381.69818,2.019 341.821312,1.965 308.466002,1.973 C304.407398,1.974 300.013371,2.058 297.464165,2.26 C296.251855,2.298 296.62561,2.006 295.408508,2.045 C279.610138,2.05 263.164883,2.002 249.704883,1.973 C245.627111,1.964 240.816203,1.813 237.672821,2.331 C234.021514,2.352 234.654024,2.053 233.547132,2.117 C232.488157,2.062 232.890663,2.313 231.831689,2.26 C231.462725,2.098 230.787089,1.999 229.766448,1.973 C211.720752,2.071 192.663998,1.733 175.816236,2.045 C175.039974,2.098 175.063933,2.318 174.096001,2.331 C171.014912,2.354 167.98174,2.365 166.189629,2.117 C164.23939,2.539 160.338913,2.358 158.29284,2.045 C155.911344,2.475 153.525057,2.228 151.076478,1.973 C150.659596,2.197 149.864167,2.342 148.326018,2.331 C146.859746,2.303 146.945997,1.949 145.575559,1.901 C143.78824,1.887 143.064687,2.096 141.794875,2.188 C139.19296,1.92 136.543127,1.946 132.518065,1.973 C131.281796,2.955 126.034839,1.658 124.266687,2.26 C123.217296,2.192 122.805206,1.992 121.521019,1.973 C120.265583,1.974 120.787883,2.346 119.115565,2.26 C117.99909,2.253 118.871186,1.832 117.39533,1.901 C111.673991,1.953 105.023055,1.765 101.587377,2.117 C96.9106375,1.495 91.7115985,2.318 87.1546528,2.26 C84.7156567,1.58 82.7270841,2.247 78.9032748,2.188 C74.9692555,1.757 68.4381125,2.089 64.1303373,2.331 C65.227646,2.327 66.6316261,2.447 65.8457806,2.619 C57.7621136,2.593 50.2151215,2.702 43.1664705,2.474 C46.1229747,2.144 50.8620065,2.621 53.1285,2.188 C45.3658796,2.059 34.9198842,2.263 27.0087198,1.973 C24.3157614,2.171 20.4296595,2.002 17.3916957,2.26 C17.7031588,2.279 18.5465053,2.527 17.736701,2.547 C15.9541734,2.513 13.4720515,2.624 12.2357824,2.474 C12.0345292,2.223 13.8601826,2.239 12.9257931,2.045 C1.95270618,2.216 -12.9448166,2.036 -23.1608084,2.117 C-24.0281135,2.081 -22.2024602,2.473 -23.8460273,2.403 C-26.0933539,2.423 -23.2326845,2.097 -24.8762517,2.117 C-51.1110336,1.903 -70.7044625,1.893 -98.4198924,1.973 C-99.1769875,2.029 -98.3528081,2.417 -99.7951221,2.331 C-101.917863,2.44 -101.266187,1.97 -102.545581,1.901 C-111.141965,2.061 -119.637722,1.748 -126.945127,2.045 C-153.893878,1.586 -184.795816,2.091 -214.236272,1.471 Z M478.917813,26.285 C479.305944,26.453 481.184307,26.335 481.323267,26.214 C481.035763,26.153 478.6351,26.017 478.917813,26.285 L478.917813,26.285 Z" id="Fill-25-Copy-23" sketch:type="MSShapeGroup" transform="translate(116.000000, 13.278363) scale(-1, 1) translate(-116.000000, -13.278363) "></path>
            </g>
        </g>
    </g>
</svg>