<?xml version="1.0" encoding="UTF-8" standalone="no"?>
<svg width="1200px" height="70px" viewBox="0 0 1200 70" version="1.1" xmlns="http://www.w3.org/2000/svg" xmlns:xlink="http://www.w3.org/1999/xlink" xmlns:sketch="http://www.bohemiancoding.com/sketch/ns">
    <!-- Generator: Sketch 3.5.2 (25235) - http://www.bohemiancoding.com/sketch -->
    <title>Fill 6 Copy 3</title>
    <desc>Created with Sketch.</desc>
    <defs></defs>
    <g id="Page-1" stroke="none" stroke-width="1" fill="none" fill-rule="evenodd" sketch:type="MSPage">
        <g id="Timeline---Desktop" sketch:type="MSArtboardGroup" transform="translate(0.000000, -6816.000000)" fill="#575E70">
            <path d="M122.791602,6874.36372 C121.367052,6874.50295 119.003354,6874.60902 118.771206,6873.95932 C119.715629,6873.70076 123.414183,6873.62949 122.791602,6874.36372 L122.791602,6874.36372 Z M174.550249,6873.42729 C170.946666,6874.52284 164.209072,6873.8317 157.081046,6873.98086 C161.106719,6872.88531 169.548496,6873.39745 174.550249,6873.42729 L174.550249,6873.42729 Z M454.099707,6875.87528 C454.036393,6876.37416 451.31392,6876.27969 450.596369,6876.02114 C450.659682,6875.52391 453.382156,6875.61673 454.099707,6875.87528 L454.099707,6875.87528 Z M401.908418,6875.34988 C401.734307,6875.92335 397.576731,6875.72943 396.66924,6875.47916 C397.940783,6875.2753 400.737122,6875.01343 401.908418,6875.34988 L401.908418,6875.34988 Z M364.210606,6874.97034 C358.095594,6875.8902 348.76743,6875.22226 338.642573,6875.26038 C323.415717,6875.31674 300.34856,6876.0029 286.43018,6874.9173 C288.5459,6873.74551 292.608506,6874.47974 295.768896,6874.46317 C318.018256,6874.34384 344.725929,6874.01898 364.210606,6874.97034 L364.210606,6874.97034 Z M199.543187,6873.13061 C193.000809,6873.81678 185.324068,6873.66098 175.695166,6873.6212 C177.372969,6872.61847 182.300856,6873.19691 185.028606,6873.16707 C190.415515,6873.10741 195.681073,6872.81073 199.543187,6873.13061 L199.543187,6873.13061 Z M439.595678,6875.72943 C432.029735,6876.12555 421.69911,6876.19848 413.484205,6875.64656 C420.802171,6874.96371 432.694525,6874.98691 439.595678,6875.72943 L439.595678,6875.72943 Z M225.654659,6873.21182 C225.770734,6874.16484 220.557936,6873.70573 221.032786,6872.98144 C221.90862,6872.74443 225.665211,6872.65659 225.654659,6873.21182 L225.654659,6873.21182 Z M218.120373,6873.13558 C216.891039,6873.72894 213.218866,6873.50353 211.646585,6873.98252 C211.593824,6873.46706 208.913559,6873.72728 209.420066,6873.04774 C212.16892,6873.03117 216.964905,6872.54554 218.120373,6873.13558 L218.120373,6873.13558 Z M244.289883,6872.66985 C242.300789,6873.41734 234.977547,6873.27481 232.613849,6873.28143 C234.819264,6872.5124 239.615248,6872.61018 244.289883,6872.66985 L244.289883,6872.66985 Z M259.996865,6872.28036 C260.962393,6872.2903 261.933197,6872.30025 262.898726,6872.31019 C263.046457,6872.93338 259.469254,6873.04443 259.996865,6872.28036 L259.996865,6872.28036 Z M347.021037,6872.79084 C345.839188,6872.66985 342.958432,6873.04443 343.581013,6872.39306 C345.016115,6872.26047 346.952448,6872.11296 347.021037,6872.79084 L347.021037,6872.79084 Z M1043.17748,6865.57282 C1043.45712,6866.017 1038.57671,6866.18772 1039.12015,6865.53304 C1039.91685,6865.28111 1042.42828,6865.30597 1043.17748,6865.57282 L1043.17748,6865.57282 Z M1049.03397,6865.08554 C1048.37973,6865.55624 1046.61751,6865.65734 1044.33823,6865.58608 C1043.47822,6864.6198 1047.84684,6864.78389 1049.03397,6865.08554 L1049.03397,6865.08554 Z M1058.38323,6864.45075 C1057.32801,6865.29106 1053.55032,6865.21813 1050.17361,6865.27945 C1050.42158,6864.16899 1055.65021,6864.72754 1058.38323,6864.45075 L1058.38323,6864.45075 Z M1200.63246,6818.65317 C1192.81854,6816.79521 1176.82665,6816.6477 1164.79184,6817.19796 C1157.41056,6815.68972 1143.40776,6815.96982 1131.2305,6816.13225 C1124.61953,6816.21843 1117.14328,6816.21014 1112.03601,6816.48527 C1107.06063,6816.75543 1102.50735,6817.48801 1097.41063,6817.61397 C1089.15879,6817.81949 1085.03287,6817.99352 1078.76485,6818.33826 C1072.16444,6818.70123 1065.14721,6818.8736 1058.35685,6819.22663 C1047.49334,6819.79347 1036.7459,6820.97852 1026.80043,6821.28016 C1021.31856,6821.44756 1020.03118,6821.80888 1016.26932,6822.08567 C1010.15431,6822.53482 1003.64886,6822.11716 997.63937,6822.62764 C995.724142,6822.80332 996.003776,6823.71324 994.025234,6823.86904 C955.398827,6826.47781 906.104123,6826.75128 867.614894,6828.24792 C861.86921,6827.40927 855.142168,6828.09544 847.3388,6827.86174 C845.191423,6827.77224 845.745415,6828.58603 843.223434,6828.36725 C840.727834,6828.45675 840.917774,6827.7507 838.638494,6827.77556 C819.375413,6828.891 795.131684,6827.16729 776.422595,6828.78989 C774.929455,6828.7584 775.894983,6828.00428 773.578771,6828.21311 C771.431394,6828.12361 771.990661,6828.9374 769.463404,6828.72028 C768.059959,6828.60426 768.30266,6828.00262 766.039208,6828.13853 C763.422257,6828.54294 760.80003,6828.10538 757.866513,6828.60426 C751.160576,6827.67446 744.417706,6828.64901 737.532381,6828.76337 C733.322045,6828.83299 729.185574,6828.36062 724.811678,6828.27112 C713.536629,6828.03743 698.114557,6828.2214 687.699515,6827.89655 C664.985857,6827.19215 641.639067,6828.00925 623.278201,6827.79545 C567.435844,6827.14408 506.101055,6831.15336 456.495061,6829.58214 C425.825029,6830.18046 387.309419,6828.24295 356.660492,6829.48932 C345.522622,6828.46504 324.365417,6829.249 313.206443,6828.68713 C303.245145,6829.59208 289.337317,6828.59763 277.777358,6828.87774 C276.062622,6828.91917 274.31623,6829.30203 272.501247,6829.37164 C261.384482,6829.79926 249.328569,6829.30038 237.652535,6829.56888 C212.253338,6830.15063 187.123222,6830.45062 162.098628,6830.4473 C141.769773,6830.44565 121.272082,6831.33899 101.085682,6831.11193 C62.6017295,6830.67603 24.5398658,6830.68431 -12.8361034,6832.51575 C-14.6352572,6833.90964 -22.0270885,6833.64114 -23.5677129,6835.32672 C-25.24024,6837.1449 -23.4147057,6839.25147 -21.2303958,6840.82104 C-21.5891713,6841.51715 -25.5409784,6841.00998 -25.4037995,6841.8735 C-20.9191053,6843.02208 -21.6577608,6847.8236 -25.5831872,6849.34842 C-22.5335952,6850.61302 -26.1107983,6853.40908 -22.6602218,6854.84771 C-28.949346,6858.3117 -19.8216742,6862.23479 -26,6864.84356 C-21.9004619,6866.23081 -18.7981087,6869.17934 -22.048193,6871.63065 C-19.6106298,6872.91846 -19.193817,6875.32834 -16.6982166,6876.05926 C-5.16463826,6875.388 6.80685726,6876.02114 15.9609096,6874.56593 C15.2644629,6874.8278 15.2433585,6875.0184 15.8923201,6875.29353 C21.6643854,6875.46922 23.7801059,6874.42008 28.1962106,6874.14163 C29.6102083,6874.61234 27.0301901,6874.70681 26.3654002,6875.03498 C33.1610309,6875.99296 42.4311577,6875.43938 50.7199279,6875.28027 C54.2654743,6875.21232 58.4916391,6875.56535 59.5099285,6874.45654 C57.7846403,6874.19964 54.5451082,6874.38859 53.1680433,6874.02893 C54.4923471,6873.53005 58.6446463,6873.61955 60.1641663,6873.73391 C60.3224496,6874.74327 67.7828703,6874.8941 69.386808,6874.37367 C68.289377,6874.28748 66.9017598,6874.28251 67.1233565,6873.80352 C70.5528285,6873.36431 75.0586272,6873.70905 75.7445216,6874.62062 C77.6755782,6874.63885 79.617187,6874.65874 81.5482435,6874.67863 C82.3554885,6874.22947 79.3111725,6874.08528 81.0417369,6873.9444 C86.185945,6874.09854 95.8570562,6873.4422 102.515508,6873.9792 C101.824338,6874.43665 99.1493493,6874.23113 99.5028488,6875.04161 C109.928444,6876.40897 120.781404,6874.79631 130.874604,6874.81123 C131.222827,6874.24108 128.922443,6874.30903 130.389202,6873.89302 C133.85033,6873.80352 138.00263,6873.24331 140.825349,6873.99909 C138.683248,6874.22284 135.011075,6873.93611 134.372665,6874.66372 C137.469742,6875.60015 140.18694,6874.42505 143.690277,6874.3919 C145.494707,6874.56759 146.064527,6875.10459 148.254113,6875.16591 C176.344127,6874.82283 205.943109,6874.52284 234.259996,6874.20959 C244.147428,6874.10185 254.894865,6874.10517 264.360208,6875.05818 C247.814325,6876.02114 229.701436,6875.51894 210.301177,6875.79076 C194.541433,6876.01451 179.003287,6876.54488 164.356803,6876.6062 C159.180939,6876.62775 153.651574,6876.04931 149.209089,6877.18298 C151.034623,6878.25864 154.817595,6877.62219 157.286815,6877.62882 C167.775723,6877.657 179.277645,6877.05702 189.835143,6877.22607 C214.965259,6877.6338 239.145675,6876.36588 263.020076,6876.86973 C268.586373,6876.98741 273.218798,6877.06862 277.513553,6877.01558 C342.198672,6876.21837 413.162363,6878.39123 478.24319,6878.12439 C487.682152,6878.72769 501.252309,6878.9763 512.44294,6878.65145 C541.904743,6877.79291 573.967669,6876.61117 604.326411,6877.02221 C606.088632,6877.04707 607.713674,6877.25922 609.52338,6877.25756 C677.674904,6877.17469 750.464129,6877.42993 817.34411,6877.16143 C821.623036,6876.06754 829.305054,6877.11668 835.963505,6876.80012 C837.498854,6876.72719 839.028926,6876.3493 840.659244,6876.30124 C859.758765,6875.72777 880.573023,6877.06862 894.771037,6875.02172 C883.559301,6874.55433 864.802727,6875.28027 857.732739,6873.91954 C861.589576,6872.9483 870.036629,6873.51844 872.991251,6872.25053 C877.270177,6872.71792 884.968023,6872.62676 888.708786,6871.86103 C880.573023,6871.5511 872.495297,6872.29693 866.111203,6871.45165 C881.617693,6869.79756 901.176236,6870.5782 920.196615,6870.53676 C945.326731,6870.48041 970.535989,6868.55284 992.980564,6868.35229 C994.605606,6868.59428 990.39527,6868.85449 992.305222,6869.25558 C995.032971,6869.16608 996.515559,6868.65726 999.897546,6868.78488 C999.897546,6867.77386 995.645,6869.10642 994.711129,6868.36887 C997.196177,6867.56668 1002.62002,6867.749 1005.85955,6867.20371 C1007.67453,6867.30647 1007.54791,6868.56279 1009.84829,6867.9744 C1011.29922,6867.85507 1007.98582,6867.40591 1009.93798,6867.06283 C1017.66221,6866.63522 1026.45749,6865.56287 1034.44024,6865.8496 C1031.13212,6867.12913 1021.19721,6866.18772 1018.02099,6867.50867 C1026.1673,6867.38934 1034.50883,6866.30539 1043.12472,6866.11976 C1046.28511,6866.05181 1049.19753,6866.43798 1052.3843,6866.39489 C1055.15425,6866.35843 1057.28053,6865.89933 1059.99772,6865.74353 C1065.15776,6865.44685 1070.73989,6865.46674 1075.73109,6865.17172 C1079.67762,6864.93803 1084.65299,6863.69497 1087.94528,6864.92974 C1085.45496,6865.9822 1078.22669,6865.44354 1076.71772,6866.82416 C1079.14473,6867.1689 1079.60375,6868.09208 1081.77223,6868.51638 C1086.02478,6868.13186 1090.06628,6868.29097 1093.99171,6868.27274 C1102.19606,6868.23793 1111.08103,6867.05786 1119.68637,6866.70814 C1129.20447,6866.32031 1137.00256,6866.9435 1146.34128,6867.15896 C1150.54106,6867.25675 1156.43975,6866.53246 1158.44468,6868.01087 C1147.86607,6868.49649 1135.11371,6869.20255 1124.60898,6869.67491 C1116.67898,6870.03291 1117.92415,6870.52019 1113.39197,6871.56933 C1110.47428,6872.24224 1105.41976,6872.35991 1106.20063,6873.68419 C1111.17072,6875.04326 1117.41236,6873.68253 1123.58014,6874.04219 C1126.95157,6874.2361 1129.70042,6875.07973 1133.32511,6875.23387 C1142.11511,6875.60844 1151.32193,6874.60571 1161.18298,6875.33165 C1163.06655,6875.36646 1161.48372,6876.42223 1163.98987,6876.2714 C1168.1791,6876.15373 1171.2709,6876.55151 1174.99056,6876.56477 C1181.86533,6876.58963 1186.72463,6875.57032 1190.77668,6875.44767 C1199.32926,6875.18912 1208.59939,6876.65592 1216.8354,6876.07417 C1219.61591,6875.87694 1221.78439,6875.14105 1225.07668,6874.88084 C1225.44073,6873.96097 1225.45656,6872.88034 1226,6871.60745 C1224.08477,6870.63952 1220.96659,6870.02628 1221.09322,6868.45837 C1215.23673,6867.72911 1206.10906,6868.6788 1205.60256,6866.66174 C1211.14775,6866.60207 1218.44989,6866.33523 1219.74253,6864.61483 C1221.14598,6862.75356 1215.51637,6860.9619 1212.7042,6859.6194 C1216.20226,6858.67136 1214.92544,6856.5797 1216.12312,6854.54938 C1221.35175,6853.17207 1222.82906,6850.38762 1220.29125,6847.84515 C1219.38376,6846.99324 1215.71686,6846.95512 1215.25784,6845.97062 C1217.48436,6845.01429 1219.76364,6843.28064 1216.80901,6842.15691 C1210.85229,6841.60831 1204.84807,6842.15691 1201.86179,6840.72988 C1201.23921,6839.89289 1203.52377,6840.03046 1203.17027,6839.28462 C1199.86742,6837.75151 1189.2941,6839.03767 1187.70071,6837.30567 C1191.77387,6836.78524 1197.78864,6836.91452 1201.72461,6836.351 C1201.75099,6835.23059 1205.23323,6835.26706 1207.11152,6834.76486 C1204.83752,6834.7284 1202.76401,6834.63392 1201.35529,6834.34222 C1201.21283,6833.70743 1204.37322,6833.68091 1202.64266,6833.07927 C1196.06862,6832.13952 1185.54806,6832.79917 1179.59661,6831.38871 C1180.35637,6830.11914 1175.65007,6829.66666 1176.36235,6828.98547 C1182.60399,6827.93798 1194.83929,6828.89597 1196.93391,6826.45792 C1196.14249,6825.02094 1187.07285,6826.00213 1186.60328,6825.25961 C1185.92266,6824.17898 1196.87059,6824.51046 1197.86778,6823.00221 C1196.44323,6822.65416 1194.08481,6822.58455 1193.31977,6822.04423 C1196.73341,6821.80391 1198.87551,6821.1426 1202.1467,6820.85587 C1202.40523,6819.62275 1206.7422,6819.76032 1208.15092,6818.91007 C1206.99017,6818.04656 1203.57125,6818.9399 1200.63246,6818.65317 L1200.63246,6818.65317 Z M13.887398,6877.82606 C11.8191626,6877.91887 7.98342998,6877.28243 6.8754467,6878.30339 C19.59615,6878.67465 34.8230059,6877.91556 49.8810262,6877.8244 C59.3147124,6877.76805 68.5953914,6878.52217 76.050536,6877.35867 C55.7797182,6876.90951 32.6756288,6877.00067 13.887398,6877.82606 L13.887398,6877.82606 Z M105.623137,6877.65534 C118.924213,6877.97688 134.193278,6878.4625 144.571388,6877.13657 C133.021981,6877.21281 114.977682,6876.80509 105.623137,6877.65534 L105.623137,6877.65534 Z M745.319921,6883.36512 C735.83875,6883.47783 726.067393,6883.36181 716.881684,6883.26071 C674.841632,6882.79497 631.67777,6882.62923 592.133319,6882.73365 C578.652856,6882.77011 566.195958,6883.53252 553.111203,6883.98334 C541.123879,6884.39603 528.783056,6883.7397 518.753169,6885.09712 C527.891393,6884.79215 537.578333,6885.40042 547.180854,6885.19988 C557.701419,6884.9811 567.921246,6884.53691 578.589542,6884.60487 C607.069989,6884.78055 635.307734,6884.98441 659.831097,6884.87337 C681.167689,6884.7789 702.778639,6885.54793 723.635106,6885.33413 C744.470467,6885.12032 764.920673,6885.0706 786.357511,6885.05403 C804.30684,6885.03911 819.444002,6885.27115 833.494286,6883.88721 C804.322669,6883.2922 775.836946,6883.00049 745.319921,6883.36512 L745.319921,6883.36512 Z M835.219574,6884.0861 C838.422173,6883.77782 844.247,6884.34797 846.288854,6883.6502 C843.524172,6883.40159 836.644124,6883.26899 835.219574,6884.0861 L835.219574,6884.0861 Z M892.750287,6872.08313 C896.870929,6872.14611 900.880773,6872.16931 903.803739,6871.8312 C901.091818,6871.54281 895.034843,6871.61739 892.750287,6872.08313 L892.750287,6872.08313 Z M964.056925,6872.9831 C958.775538,6873.13227 952.486414,6872.84554 948.872278,6873.92451 C951.689721,6874.21456 955.034775,6874.25102 958.131852,6874.19964 C969.005917,6874.02561 982.280612,6873.6527 989.086795,6872.32345 C980.924651,6871.84943 972.509254,6872.74443 964.056925,6872.9831 L964.056925,6872.9831 Z M906.700324,6871.85938 C912.968343,6871.76159 920.729502,6872.16103 924.755175,6871.31077 C918.692924,6871.47817 911.527965,6871.27763 906.700324,6871.85938 L906.700324,6871.85938 Z M927.055559,6871.51795 C929.366496,6871.28591 933.513519,6871.67043 934.653159,6871.04559 C932.231424,6871.2395 928.079125,6870.85333 927.055559,6871.51795 L927.055559,6871.51795 Z M959.656648,6870.56825 C962.310532,6870.75554 966.167369,6870.58814 968.414992,6870.10915 C965.423437,6870.24009 961.250034,6869.97324 959.656648,6870.56825 L959.656648,6870.56825 Z M971.876121,6870.32627 C974.60387,6870.23677 977.431866,6870.17876 978.909177,6869.66828 C976.513822,6869.87048 972.451217,6869.51248 971.876121,6870.32627 L971.876121,6870.32627 Z M982.971782,6869.70971 C985.921128,6869.75446 988.015744,6869.51911 989.41919,6869.04509 C986.796962,6869.10807 983.610191,6868.98211 982.971782,6869.70971 L982.971782,6869.70971 Z M1011.88487,6870.72902 C1019.07093,6871.15663 1028.76315,6871.24448 1036.29743,6870.42737 C1038.43426,6870.19699 1039.64249,6869.7064 1041.6052,6869.57049 C1043.42546,6869.44287 1045.56756,6869.70308 1047.40892,6869.6285 C1050.05226,6869.52243 1052.8697,6868.94068 1055.62383,6868.7998 C1061.00019,6868.52301 1070.53412,6869.12962 1070.89817,6866.94681 C1053.34982,6868.54455 1028.96364,6868.46666 1011.88487,6870.72902 L1011.88487,6870.72902 Z M1204.87973,6822.52654 C1204.84807,6823.20276 1202.24695,6823.02376 1200.18399,6823.02542 C1200.8435,6822.55471 1202.60045,6822.45361 1204.87973,6822.52654 L1204.87973,6822.52654 Z" id="Fill-6-Copy-3" sketch:type="MSShapeGroup" transform="translate(600.000000, 6850.685925) scale(-1, 1) translate(-600.000000, -6850.685925) "></path>
        </g>
    </g>
</svg>