<?xml version="1.0" encoding="UTF-8" standalone="no"?>
<svg width="48px" height="49px" viewBox="0 0 48 49" version="1.1" xmlns="http://www.w3.org/2000/svg" xmlns:xlink="http://www.w3.org/1999/xlink" xmlns:sketch="http://www.bohemiancoding.com/sketch/ns">
    <!-- Generator: Sketch 3.5.2 (25235) - http://www.bohemiancoding.com/sketch -->
    <title>lighthouse</title>
    <desc>Created with Sketch.</desc>
    <defs></defs>
    <g id="Page-1" stroke="none" stroke-width="1" fill="none" fill-rule="evenodd" sketch:type="MSPage">
        <g id="Timeline---Desktop" sketch:type="MSArtboardGroup" transform="translate(-577.000000, -1337.000000)" fill="#F8F3ED">
            <g id="Oval-3-Copy-+--copy-Copy-+-lighthouse-+-Line-Copy-5-Copy-+-books-apple-copy-+-College-+-University-of-Madiso" sketch:type="MSLayerGroup" transform="translate(17.000000, 965.500000)">
                <g id="Oval-3-Copy-+--copy-Copy-+-lighthouse-+-Line-Copy-5-Copy" transform="translate(518.000000, 0.000000)" sketch:type="MSShapeGroup">
                    <path d="M58.8880241,386.4048 C58.4512256,386.352 58.053627,386.6728 58.0048271,387.112 L54.804838,415.912 C54.7560382,416.3512 55.0728371,416.7464 55.5120356,416.7952 C55.5416355,416.7984 55.5712354,416.8 55.6008353,416.8 C56.0032339,416.8 56.3496328,416.4976 56.3952326,416.088 L56.9800306,410.8264 C59.0936234,408.8448 61.9728137,408.8 62.0000136,408.8 L69.9999864,408.8 C70.110386,408.8 72.3455784,408.772 74.6135707,407.1648 L75.6047673,416.088 C75.6503672,416.4976 75.996766,416.8 76.3991647,416.8 C76.4287646,416.8 76.4583644,416.7984 76.4879643,416.7952 C76.9271629,416.7464 77.2439618,416.3512 77.1951619,415.912 L75.1607689,397.6072 C75.1615689,397.596 75.1575689,397.5848 75.1575689,397.5736 L73.9951728,387.112 C73.946373,386.672 73.5463743,386.3504 73.1119758,386.4048 C72.6727773,386.4536 72.3559784,386.8496 72.4047782,387.288 L72.5375778,388.4784 C70.5071847,390.3472 68.4839915,390.3992 68.3999918,390.4 L63.6000081,390.4 C63.4872085,390.4 61.3024159,390.42 59.0912235,391.8192 L59.5952217,387.288 C59.6440216,386.8496 59.3272227,386.4536 58.8880241,386.4048 L58.8880241,386.4048 L58.8880241,386.4048 Z M69.9999864,407.2 L62.0000136,407.2 C61.878414,407.2 59.506422,407.22 57.2232298,408.6304 L57.8696276,402.812 C59.9784204,400.8448 62.7736109,400.8 62.8000109,400.8 L69.1999891,400.8 C69.3071887,400.8 71.4799814,400.772 73.7263737,399.1768 L74.4047714,405.2832 C72.3463784,407.1512 70.0207863,407.2 69.9999864,407.2 L69.9999864,407.2 L69.9999864,407.2 Z M63.6000081,392 L68.3999918,392 C68.4999915,392 70.5399846,391.972 72.7479771,390.3704 L73.5167744,397.2952 C71.4679814,399.1512 69.219989,399.2 69.1999891,399.2 L62.8000109,399.2 C62.6808113,399.2 60.3720191,399.22 58.1144268,400.6168 L58.8456243,394.0344 C60.9464172,392.0472 63.5760082,392 63.6000081,392 L63.6000081,392 L63.6000081,392 Z M57.2000299,384.8 L74.7999701,384.8 C75.2415686,384.8 75.5999674,384.4416 75.5999674,384 C75.5999674,383.5584 75.2415686,383.2 74.7999701,383.2 L73.9999728,383.2 L73.9999728,379.2 C73.9999728,379.1472 73.9951728,379.0952 73.9839729,379.0432 C73.0759759,374.5008 70.2407856,372 66,372 C61.7592144,372 58.924024,374.5008 58.0152271,379.0432 C58.0048271,379.0952 58.0000272,379.1472 58.0000272,379.2 L58.0000272,383.2 L57.2000299,383.2 C56.7584314,383.2 56.4000326,383.5584 56.4000326,384 C56.4000326,384.4416 56.7584314,384.8 57.2000299,384.8 L57.2000299,384.8 L57.2000299,384.8 Z M64.4000054,380 L67.5999945,380 L67.5999945,383.2 L64.4000054,383.2 L64.4000054,380 L64.4000054,380 Z M69.1999891,380 L72.3999782,380 L72.3999782,383.2 L69.1999891,383.2 L69.1999891,380 L69.1999891,380 Z M66,373.6 C69.831187,373.6 71.4799814,376.0272 72.178379,378.4 L59.821621,378.4 C60.5200186,376.0272 62.168813,373.6 66,373.6 L66,373.6 L66,373.6 Z M59.6000217,380 L62.8000109,380 L62.8000109,383.2 L59.6000217,383.2 L59.6000217,380 L59.6000217,380 Z M81.9999456,419.2 C81.9999456,419.6416 81.6415468,420 81.1999483,420 L68.3999918,420 C67.9583933,420 67.5999945,419.6416 67.5999945,419.2 L67.5999945,413.6 L64.4000054,413.6 L64.4000054,419.2 C64.4000054,419.6416 64.0416066,420 63.6000081,420 L50.8000516,420 C50.3584531,420 50.0000543,419.6416 50.0000543,419.2 C50.0000543,418.7584 50.3584531,418.4 50.8000516,418.4 L62.8000109,418.4 L62.8000109,412.8 C62.8000109,412.3584 63.1584096,412 63.6000081,412 L68.3999918,412 C68.8415903,412 69.1999891,412.3584 69.1999891,412.8 L69.1999891,418.4 L81.1999483,418.4 C81.6415468,418.4 81.9999456,418.7584 81.9999456,419.2 L81.9999456,419.2 L81.9999456,419.2 Z M75.6239673,377.7944 C75.5167676,377.3656 75.7775668,376.9312 76.2055653,376.824 L89.0055218,373.624 C89.4335204,373.5176 89.8687189,373.7776 89.9759185,374.2056 C90.0831182,374.6344 89.822319,375.0688 89.3943205,375.176 L76.594364,378.376 C76.5287642,378.3928 76.4639644,378.4 76.3991647,378.4 C76.0407659,378.4 75.715167,378.1576 75.6239673,377.7944 L75.6239673,377.7944 L75.6239673,377.7944 Z M89.9759185,384.1944 C89.8847188,384.5576 89.5591199,384.8 89.2007212,384.8 C89.1359214,384.8 89.0711216,384.7928 89.0055218,384.776 L76.2055653,381.576 C75.7775668,381.4688 75.5167676,381.0352 75.6239673,380.6056 C75.7311669,380.1776 76.1671654,379.9168 76.594364,380.024 L89.3943205,383.224 C89.822319,383.3312 90.0831182,383.7656 89.9759185,384.1944 L89.9759185,384.1944 L89.9759185,384.1944 Z M42.0240815,374.2056 C42.1312811,373.7776 42.5672796,373.5176 42.9944782,373.624 L55.7944347,376.824 C56.2224332,376.9312 56.4832323,377.3656 56.3760327,377.7944 C56.284833,378.1576 55.9592341,378.4 55.6008353,378.4 C55.5360355,378.4 55.4712358,378.3928 55.405636,378.376 L42.6056795,375.176 C42.177681,375.0688 41.9168818,374.6344 42.0240815,374.2056 L42.0240815,374.2056 L42.0240815,374.2056 Z M55.7944347,381.576 L42.9944782,384.776 C42.9288784,384.7928 42.8640786,384.8 42.7992788,384.8 C42.4408801,384.8 42.1152812,384.5576 42.0240815,384.1944 C41.9168818,383.7656 42.177681,383.3312 42.6056795,383.224 L55.405636,380.024 C55.8336345,379.9168 56.268833,380.1776 56.3760327,380.6056 C56.4832323,381.0352 56.2224332,381.4688 55.7944347,381.576 L55.7944347,381.576 L55.7944347,381.576 Z" id="lighthouse"></path>
                </g>
            </g>
        </g>
    </g>
</svg>