<?xml version="1.0" encoding="UTF-8" standalone="no"?>
<svg width="54px" height="54px" viewBox="0 0 54 54" version="1.1" xmlns="http://www.w3.org/2000/svg" xmlns:xlink="http://www.w3.org/1999/xlink" xmlns:sketch="http://www.bohemiancoding.com/sketch/ns">
    <!-- Generator: Sketch 3.5.2 (25235) - http://www.bohemiancoding.com/sketch -->
    <title>sailing-wheel</title>
    <desc>Created with Sketch.</desc>
    <defs></defs>
    <g id="Page-1" stroke="none" stroke-width="1" fill="none" fill-rule="evenodd" sketch:type="MSPage">
        <g id="Timeline---Desktop" sketch:type="MSArtboardGroup" transform="translate(-573.000000, -947.000000)" fill="#575E70">
            <g id="1947-+-Pelham-High-School,--+-GRADUATED-HIGH-SCHOO-+-Oval-3-Copy-+--copy-+-Line-Copy-Copy-Copy-Copy-Copy" sketch:type="MSLayerGroup" transform="translate(562.000000, 936.000000)">
                <g id="Oval-3-Copy-+--copy-+-Line" sketch:type="MSShapeGroup">
                    <g id="Oval-3-Copy-+--copy">
                        <g id="sailing-wheel" transform="translate(11.000000, 11.000000)">
                            <path d="M30.8248725,11.2552124 C30.3442885,11.1364144 29.8556048,11.4352094 29.7386087,11.9185014 C29.6216126,12.4008933 29.9177027,12.8877852 30.4009866,13.0047833 C36.5828806,14.5014583 40.9855338,19.8158697 41.3716209,26.100465 L34.1367621,26.100465 C33.7281757,22.8506192 31.1488617,20.2712621 27.89907,19.862669 L27.89907,11.700705 C27.89907,11.2039133 27.4967834,10.80072 26.9991,10.80072 C19.4753508,10.80072 12.9973668,15.9045349 11.2451252,23.2115131 C11.129029,23.6948051 11.4269191,24.180797 11.910203,24.2968951 C11.9813006,24.3139948 12.0523983,24.3211946 12.1216959,24.3211946 C12.5284824,24.3211946 12.8965701,24.0439993 12.9955668,23.6309062 C14.4823173,17.4300095 19.80024,13.0137831 26.09913,12.6285895 L26.09913,19.862669 C22.8493384,20.2712621 20.2700243,22.8506192 19.861438,26.100465 L11.69961,26.100465 C11.2019266,26.100465 10.79964,26.5036583 10.79964,27.00045 C10.79964,34.4793253 15.8655711,40.9484175 23.1184294,42.7321878 C23.191327,42.7501875 23.2633246,42.7582874 23.3344222,42.7582874 C23.7385087,42.7582874 24.1056965,42.4837919 24.2064931,42.0733988 C24.3252892,41.5910068 24.030999,41.1032149 23.548615,40.9844169 C17.3946202,39.4706422 13.0126662,34.1625306 12.6265791,27.900435 L19.861438,27.900435 C20.2700243,31.1502808 22.8493384,33.7296378 26.09913,34.138231 L26.09913,42.300195 C26.09913,42.7969867 26.5014166,43.20018 26.9991,43.20018 C34.4859505,43.20018 40.9567348,38.1278645 42.7350755,30.8649856 C42.8529716,30.3816936 42.5577814,29.8948018 42.0753975,29.7760037 C41.5921136,29.6581057 41.1052298,29.9533008 40.9864338,30.4365927 C39.4780841,36.59879 34.1682611,40.9871169 27.89907,41.3723105 L27.89907,34.138231 C31.1488617,33.7296378 33.7281757,31.1502808 34.1367621,27.900435 L42.29859,27.900435 C42.7962735,27.900435 43.19856,27.4972417 43.19856,27.00045 C43.19856,19.4945751 38.1110296,13.019183 30.8248725,11.2552124 L30.8248725,11.2552124 L30.8248725,11.2552124 Z M26.9991,32.40036 C24.0210993,32.40036 21.59928,29.9785004 21.59928,27.00045 C21.59928,24.0223996 24.0210993,21.60054 26.9991,21.60054 C29.9771008,21.60054 32.39892,24.0223996 32.39892,27.00045 C32.39892,29.9785004 29.9771008,32.40036 26.9991,32.40036 L26.9991,32.40036 L26.9991,32.40036 Z M53.10003,26.098665 L50.4019199,26.098665 C50.40012,25.6027733 49.9987334,25.20048 49.5019499,25.20048 C49.0051665,25.20048 48.6037799,25.6027733 48.6019799,26.098665 L46.7759408,26.098665 C46.6427452,23.1512141 45.8597713,20.3702605 44.5701143,17.8935018 L46.1567614,16.977317 L46.1576614,16.979117 C46.3250558,17.2680122 46.6274458,17.4291095 46.9379354,17.4291095 C47.0909303,17.4291095 47.2457251,17.3904102 47.3870204,17.3085115 C47.8181061,17.0601157 47.9657011,16.5102248 47.7164095,16.079132 L47.7155095,16.077332 L50.0518316,14.7282545 C50.4829172,14.4798587 50.6305123,13.9290678 50.3812206,13.498875 C50.1319289,13.0677822 49.5802473,12.9201847 49.1518616,13.1694805 L46.8155395,14.518558 C46.5662478,14.0892652 46.0154662,13.9425676 45.5870804,14.1909635 C45.1577947,14.4384594 45.0101997,14.9874502 45.2567914,15.418543 L43.6674444,16.3356277 C42.1221959,13.9281679 40.0693644,11.8762021 37.6619446,10.3300278 L38.579014,8.74245429 L38.580814,8.74335428 C38.7221093,8.82525291 38.8769041,8.86395227 39.029899,8.86395227 C39.3412886,8.86395227 39.6436785,8.70195497 39.810173,8.41395977 C40.0594647,7.98286695 39.9118696,7.43297612 39.480784,7.18368027 L39.478984,7.18278029 L40.8280391,4.84641923 C41.0773308,4.41532641 40.9288357,3.86543558 40.49865,3.61703972 C40.0693644,3.36864386 39.5176827,3.51534141 39.269291,3.94643423 L37.920236,6.28279529 C37.4891504,6.0361994 36.9410686,6.18289695 36.6917769,6.61398977 C36.4433852,7.04328261 36.5909803,7.59227346 37.020266,7.84156931 L36.1040965,9.42824286 C33.6273791,8.13856436 30.8464718,7.35647739 27.89907,7.22327961 L27.89907,5.39901002 L27.90087,5.39901002 C28.3985534,5.39901002 28.80084,4.99581674 28.80084,4.49902502 C28.80084,4.0022333 28.3985534,3.59904002 27.90087,3.59904002 L27.89907,3.59904002 L27.89907,0.899985 C27.89907,0.40319328 27.4967834,0 26.9991,0 C26.5014166,0 26.09913,0.40319328 26.09913,0.899985 L26.09913,3.59904002 C25.6023466,3.59994 25.20096,4.0022333 25.20096,4.49902502 C25.20096,4.99581674 25.6023466,5.39811003 26.09913,5.39901002 L26.09913,7.22327961 C23.1517283,7.35647739 20.370821,8.13856436 17.8941035,9.42824286 L16.978834,7.84336928 L16.979734,7.84336928 C17.4108196,7.59497342 17.5584147,7.0441826 17.309123,6.61398977 C17.0598313,6.18289695 16.5090497,6.0361994 16.079764,6.28369527 L16.078864,6.28459526 L14.728909,3.94733421 C14.4796173,3.5162414 13.9288357,3.36864386 13.49955,3.6179397 C13.0693644,3.86633556 12.9208693,4.41712638 13.170161,4.84731921 L14.520116,7.18458026 C14.0899303,7.4338761 13.9423353,7.98376694 14.1916269,8.41395977 C14.3581214,8.70195497 14.6605113,8.86395227 14.9719009,8.86395227 C15.1248958,8.86395227 15.2787907,8.82525291 15.420086,8.74335428 L16.3353555,10.3300278 C13.9279357,11.8762021 11.8751042,13.9290678 10.3289557,16.3365277 L8.74320856,15.421243 L8.74410853,15.420343 C8.99250025,14.9892502 8.84490517,14.4393593 8.41471951,14.1909635 C7.98363388,13.9416676 7.43375221,14.0892652 7.18446052,14.520358 L7.18356055,14.521258 L4.84633846,13.1712805 C4.41525282,12.9219846 3.86537115,13.0695822 3.61697943,13.500675 C3.36768774,13.9308678 3.51528282,14.4816586 3.94636845,14.7300545 L6.28449052,16.080032 C6.0360988,16.5111248 6.18369388,17.0601157 6.61477951,17.3085115 C6.7560748,17.3904102 6.91086964,17.4291095 7.06386454,17.4291095 C7.37435419,17.4291095 7.67584414,17.2680122 7.84323856,16.980017 L9.42718576,17.8944018 C8.13752875,20.3720605 7.35545482,23.1521141 7.22225926,26.100465 L5.39982001,26.100465 C5.39982001,25.6036733 4.99753342,25.20048 4.49985,25.20048 C4.00216659,25.20048 3.59988,25.6036733 3.59988,26.100465 L0.899970001,26.100465 C0.40228659,26.100465 0,26.5036583 0,27.00045 C0,27.4972417 0.40228659,27.900435 0.899970001,27.900435 L3.59988,27.900435 C3.59988,28.3972267 4.00216659,28.80042 4.49985,28.80042 C4.99753342,28.80042 5.39982001,28.3972267 5.39982001,27.900435 L7.22225926,27.900435 C7.35545482,30.8487859 8.13842872,33.6297395 9.42808573,36.1073982 L7.84413853,37.021783 C7.59394687,36.5906902 7.04226526,36.4430926 6.61477951,36.6923885 C6.18369388,36.9407843 6.0360988,37.4906752 6.28449052,37.921768 L3.94816839,39.2708455 C3.51708276,39.5192413 3.36948768,40.0691322 3.6178794,40.500225 C3.78527382,40.7891202 4.08766374,40.9502175 4.39905336,40.9502175 C4.55204827,40.9502175 4.70594314,40.9115181 4.8481384,40.8296195 L7.18446052,39.480542 C7.35185494,39.7694372 7.65424486,39.9305345 7.96563448,39.9305345 C8.11772941,39.9305345 8.27252425,39.8918351 8.41471951,39.8099365 C8.84490517,39.5615406 8.99250025,39.0116498 8.74410853,38.580557 L10.3298557,37.6652722 C11.8760041,40.0727321 13.9288357,42.1246979 16.3362555,43.6708722 L15.420986,45.2575457 C14.9899003,45.0091498 14.4400187,45.1567474 14.1916269,45.5869402 C13.9423353,46.018033 14.0899303,46.5679239 14.521016,46.8172197 L13.1719609,49.1535808 C12.9226692,49.5846736 13.0702643,50.1345644 13.50135,50.3829603 C13.6426452,50.4648589 13.7974401,50.5035583 13.950435,50.5035583 C14.2618246,50.5035583 14.5642145,50.342461 14.730709,50.0535658 L16.079764,47.7172047 C16.2210593,47.7982034 16.3758541,47.8369027 16.528849,47.8369027 C16.8402387,47.8369027 17.1426286,47.6758054 17.309123,47.3869102 C17.5584147,46.9567174 17.4108196,46.4059266 16.979734,46.1575307 L17.8941035,44.5735571 C20.3726209,45.8623356 23.1526282,46.6453226 26.10093,46.7776204 L26.10093,48.60189 C25.6032466,48.60189 25.20096,49.0050832 25.20096,49.501875 C25.20096,49.9986667 25.6032466,50.40186 26.10093,50.40186 L26.1018299,50.40186 L26.1018299,53.100015 C26.1018299,53.5968067 26.5050165,54 27.0017999,54 C27.4994834,54 27.9017699,53.5968067 27.9017699,53.100015 L27.9017699,50.40186 C28.3985534,50.40096 28.80084,49.9986667 28.80084,49.501875 C28.80084,49.0050832 28.3985534,48.60189 27.90087,48.60189 L27.90087,46.7776204 C30.8491717,46.6444226 33.629179,45.8614356 36.1067964,44.5717571 L37.0229659,46.1575307 L37.0220659,46.1575307 C36.5909803,46.4059266 36.4433852,46.9567174 36.6917769,47.3869102 C36.8591714,47.6758054 37.1615613,47.8369027 37.4729509,47.8369027 C37.6259458,47.8369027 37.7798407,47.7982034 37.9220359,47.7172047 L37.9229359,47.7163047 L39.2719909,50.0517658 C39.4384854,50.340661 39.7408753,50.5017583 40.0522649,50.5017583 C40.2052598,50.5017583 40.3600547,50.4630589 40.50135,50.3820603 C40.9315356,50.1327645 41.0791307,49.5819736 40.830739,49.1517808 L39.4816839,46.8163197 C39.9118696,46.5670239 40.0594647,46.017133 39.810173,45.5869402 C39.5608813,45.1567474 39.0109996,45.0100498 38.5817139,45.2575457 L37.6646445,43.6681722 C40.0720643,42.122898 42.1239959,40.0709322 43.6692444,37.6625723 L45.2585914,38.579657 L45.2576914,38.580557 C45.0092997,39.0116498 45.1568948,39.5615406 45.5870804,39.8099365 C45.7292757,39.8918351 45.8831706,39.9305345 46.0361655,39.9305345 C46.3475551,39.9305345 46.649945,39.7694372 46.8164395,39.480542 L46.8173394,39.479642 L49.1536615,40.8278195 C49.2949568,40.9097182 49.4497517,40.9484175 49.6027466,40.9484175 C49.9141362,40.9484175 50.2165261,40.7873202 50.3830206,40.498425 C50.6323123,40.0673322 50.4847172,39.5174414 50.0536315,39.2690455 L47.7173094,37.919968 C47.9648012,37.4897752 47.8181061,36.9398843 47.3870204,36.6923885 C46.9586347,36.4439926 46.4078531,36.5906902 46.1585614,37.019983 L44.5719143,36.1046983 C45.8606713,33.6270395 46.6436452,30.8469859 46.7759408,27.898635 L48.6019799,27.898635 L48.6019799,27.900435 C48.6019799,28.3972267 49.0042665,28.80042 49.5019499,28.80042 C49.9996333,28.80042 50.4019199,28.3972267 50.4019199,27.900435 L50.4019199,27.898635 L53.10003,27.898635 C53.5977134,27.898635 54,27.4954417 54,26.99865 C54,26.5018583 53.5977134,26.098665 53.10003,26.098665 L53.10003,26.098665 L53.10003,26.098665 Z M26.9991,45.00015 C17.0742309,45.00015 8.99970001,36.9254846 8.99970001,27.00045 C8.99970001,17.0754154 17.0742309,9.00074999 26.9991,9.00074999 C36.9239692,9.00074999 44.9985,17.0754154 44.9985,27.00045 C44.9985,36.9254846 36.9239692,45.00015 26.9991,45.00015 L26.9991,45.00015 L26.9991,45.00015 Z M28.79904,27.00045 C28.79904,27.9931334 27.9917669,28.80042 26.9991,28.80042 C26.0073331,28.80042 25.19916,27.9931334 25.19916,27.00045 C25.19916,26.0077665 26.0073331,25.20048 26.9991,25.20048 C27.9917669,25.20048 28.79904,26.0077665 28.79904,27.00045 L28.79904,27.00045 L28.79904,27.00045 Z"></path>
                        </g>
                    </g>
                </g>
            </g>
        </g>
    </g>
</svg>