<?xml version="1.0" encoding="UTF-8" standalone="no"?>
<svg width="59px" height="59px" viewBox="0 0 59 59" version="1.1" xmlns="http://www.w3.org/2000/svg" xmlns:xlink="http://www.w3.org/1999/xlink" xmlns:sketch="http://www.bohemiancoding.com/sketch/ns">
    <!-- Generator: Sketch 3.5.2 (25235) - http://www.bohemiancoding.com/sketch -->
    <title>grappling-iron</title>
    <desc>Created with Sketch.</desc>
    <defs></defs>
    <g id="Page-1" stroke="none" stroke-width="1" fill="none" fill-rule="evenodd" sketch:type="MSPage">
        <g id="Timeline---Desktop" sketch:type="MSArtboardGroup" transform="translate(-571.000000, -401.000000)" fill="#F8F3ED">
            <g id="grappling-iron" sketch:type="MSLayerGroup" transform="translate(571.000000, 401.000000)">
                <g id="Marine" sketch:type="MSShapeGroup">
                    <g>
                        <g id="Icon-17">
                            <path d="M58.5312583,45.0887833 C58.1890547,45.2982333 57.7544167,45.27955 57.4328633,45.0415833 L55.1957562,43.3895833 C49.9250336,57.8495 34.2820008,59 29.5,59 C24.7179992,59 9.07299976,57.8495 3.80326046,43.3895833 L1.56713672,45.0406 C1.24459996,45.2805333 0.810945348,45.2982333 0.468741714,45.0887833 C0.127521424,44.8793333 -0.0524304865,44.48305 0.0134535465,44.08775 L1.9801411,32.28775 C2.03815838,31.9367 2.28399433,31.6436667 2.6202979,31.5237 C2.95561813,31.4066833 3.33223879,31.4755167 3.5997083,31.7125 L12.8559232,39.8663 C13.1637098,40.1367167 13.2708943,40.57135 13.1243761,40.95485 C12.9788412,41.3363833 12.6140207,41.5871333 12.205933,41.5871333 L12.1980662,41.5871333 L9.65415593,41.5674667 C11.3691074,45.56865 15.976073,52.3556167 27.5913297,53.0390333 C28.1331521,53.0705 28.5471399,53.5356167 28.5146895,54.0774333 C28.4832225,54.61925 28.0023674,55.03225 27.4752952,55.0017667 C23.7818559,54.78445 11.4113912,53.1245833 7.29019749,40.887 C7.18792974,40.5851167 7.23906362,40.2537333 7.42491559,39.9961 C7.61076756,39.7414167 7.90675404,39.5899833 8.22142405,39.5899833 L8.2292908,39.5899833 L9.5794218,39.6008 L3.62822527,34.35865 L2.35282839,42.0158667 L3.72360962,41.0040167 C3.98026234,40.81325 4.31263254,40.76015 4.61648576,40.8614333 C4.91935565,40.9617333 5.15535815,41.20265 5.24779247,41.5084667 C6.66872422,46.17635 11.8765128,57.0333333 29.5,57.0333333 C47.1215205,57.0333333 52.3302924,46.1773333 53.7522075,41.5084667 C53.8446418,41.2036333 54.0806444,40.9627167 54.3835142,40.8624167 C54.6854008,40.76015 55.0197377,40.8152167 55.2763904,41.0040167 L56.648155,42.01685 L55.3717747,34.35865 L49.4215615,39.6008 L50.7707092,39.5899833 L50.778576,39.5899833 C51.0942293,39.5899833 51.3902158,39.7414167 51.5750844,39.9970833 C51.7609364,40.2537333 51.8110869,40.5861 51.7098025,40.8879833 C47.5856587,53.1255667 35.2161774,54.78445 31.5247048,55.0017667 C31.2552686,55.0165167 30.9887825,54.9211333 30.7921137,54.7352833 C30.595445,54.5494333 30.4833438,54.2908167 30.4833438,54.0204 L30.4833438,18.1916667 C30.4833438,17.6488667 30.9238818,17.2083333 31.4666875,17.2083333 C32.0094933,17.2083333 32.4500313,17.6488667 32.4500313,18.1916667 L32.4500313,21.6333333 L38.350094,21.6333333 C38.8928997,21.6333333 39.3334377,22.0738667 39.3334377,22.6166667 C39.3334377,23.1594667 38.8928997,23.6 38.350094,23.6 L32.4500313,23.6 L32.4500313,52.9593833 C43.3002465,51.9455667 47.6820264,45.4477 49.3458441,41.56845 L46.8029171,41.5871333 L46.7950503,41.5871333 C46.3869627,41.5871333 46.0221421,41.3354 45.8766072,40.95485 C45.730089,40.57135 45.8372735,40.1367167 46.1450601,39.8663 L55.4002917,31.7125 C55.6687446,31.4765 56.0433985,31.4066833 56.3797021,31.5237 C56.7160057,31.6436667 56.9618416,31.9357167 57.0198589,32.28775 L58.9865465,44.08775 C59.0524305,44.48305 58.8724786,44.8793333 58.5312583,45.0887833 L58.5312583,45.0887833 L58.5312583,45.0887833 Z M29.5,11.8 C27.3307436,11.8 25.5666249,10.0359 25.5666249,7.86666667 C25.5666249,5.69743333 27.3307436,3.93333333 29.5,3.93333333 C31.6692564,3.93333333 33.4333751,5.69743333 33.4333751,7.86666667 C33.4333751,10.0359 31.6692564,11.8 29.5,11.8 L29.5,11.8 L29.5,11.8 Z M31.4666875,7.86666667 C31.4666875,6.78205 30.5846282,5.9 29.5,5.9 C28.4153718,5.9 27.5333124,6.78205 27.5333124,7.86666667 C27.5333124,8.95128333 28.4153718,9.83333333 29.5,9.83333333 C30.5846282,9.83333333 31.4666875,8.95128333 31.4666875,7.86666667 L31.4666875,7.86666667 L31.4666875,7.86666667 Z M20.649906,23.6 L26.5499687,23.6 L26.5499687,50.15 C26.5499687,50.6928 26.9905067,51.1333333 27.5333124,51.1333333 C28.0761182,51.1333333 28.5166562,50.6928 28.5166562,50.15 L28.5166562,14.4609 C28.5166562,14.0262667 28.2314865,13.6427667 27.8145488,13.5188667 C25.3325891,12.7794 23.5999373,10.4557833 23.5999373,7.86666667 C23.5999373,4.61281667 26.2461154,1.96666667 29.5,1.96666667 C32.7538845,1.96666667 35.4000626,4.61281667 35.4000626,7.86666667 C35.4000626,10.4557833 33.6674109,12.7794 31.1854512,13.5188667 C30.6652624,13.67325 30.3692759,14.2209667 30.5246442,14.7421333 C30.6790292,15.2633 31.227735,15.5583 31.7479239,15.4039167 C35.0558923,14.4186167 37.3667502,11.31915 37.3667502,7.86666667 C37.3667502,3.52918333 33.8375294,0 29.5,0 C25.1624706,0 21.6332498,3.52918333 21.6332498,7.86666667 C21.6332498,11.0684 23.6215709,13.9672667 26.5499687,15.1571 L26.5499687,21.6333333 L20.649906,21.6333333 C20.1071002,21.6333333 19.6665622,22.0738667 19.6665622,22.6166667 C19.6665622,23.1594667 20.1071002,23.6 20.649906,23.6 L20.649906,23.6 L20.649906,23.6 Z" id="grappling-iron"></path>
                        </g>
                    </g>
                </g>
            </g>
        </g>
    </g>
</svg>