<?xml version="1.0" encoding="UTF-8" standalone="no"?>
<svg width="131px" height="203px" viewBox="0 0 131 203" version="1.1" xmlns="http://www.w3.org/2000/svg" xmlns:xlink="http://www.w3.org/1999/xlink" xmlns:sketch="http://www.bohemiancoding.com/sketch/ns">
    <!-- Generator: Sketch 3.5.2 (25235) - http://www.bohemiancoding.com/sketch -->
    <title>books-apple copy 2</title>
    <desc>Created with Sketch.</desc>
    <defs></defs>
    <g id="Desktop" stroke="none" stroke-width="1" fill="none" fill-rule="evenodd" sketch:type="MSPage">
        <g id="Timeline---Desktop" sketch:type="MSArtboardGroup" transform="translate(-2.000000, -2033.000000)" fill="#EDE9E4">
            <g id="books-apple-copy-2" sketch:type="MSLayerGroup" transform="translate(0.000000, 2010.000000)">
                <path d="M105.414106,191.853038 C106.528722,191.853038 107.433333,190.241751 107.433333,188.37762 C107.433333,186.513488 106.528722,185.098941 105.414106,185.098941 L49.2408056,184.053622 L49.2408056,158.082546 L87.2410256,158.082546 L103.394872,158.082546 L105.414103,158.082546 C106.528718,158.082546 107.433333,156.569628 107.433333,154.705497 C107.433333,152.841366 106.528718,151.328448 105.414103,151.328448 L8.49102564,151.328448 C5.09467949,151.328448 2.43333333,155.779399 2.43333333,161.459596 L2.43333333,181.721891 C2.43333333,187.30753 5.15121795,191.853038 8.49102564,191.853038 L81.1833333,191.853038 L105.414106,191.853038 Z M6.9,182.639344 L6.9,162.377049 C6.9,160.452131 7.62741667,159 8.59166667,159 L20.4333333,159 L20.4333333,186.016393 L8.59166667,186.016393 C7.64264167,186.016393 6.9,184.533869 6.9,182.639344 L6.9,182.639344 Z M132.85624,152.319855 C132.85624,156.648104 130.376169,158.983822 128.282586,158.983822 L124.525003,158.983822 L124.525003,185.639709 C126.618586,185.639709 129.387528,187.975431 129.387528,192.30368 L129.387528,216.067665 C129.387528,221.578769 123.778217,225.62353 120.208333,225.62353 L11.5221325,225.623528 C7.95224913,225.623528 5.81666667,221.138678 5.81666667,215.627574 L5.81666667,206.523972 C5.81666667,204.684716 7.40312731,203.857124 8.59452731,203.857124 C9.78592731,203.857124 11.5221325,204.684716 11.5221325,206.523972 L11.5221325,215.627571 C11.5221325,217.463495 11.5221325,218.959557 13.4690724,218.959557 L30.8384047,218.959557 L30.8384047,206.523972 C30.8384047,204.684716 32.1539856,203.857124 33.3453856,203.857124 C34.5367856,203.857124 36.0333338,204.684716 36.0333338,206.523972 L36.0333333,218.959559 L40.35,218.959559 L40.3499995,206.523972 C40.3499995,204.684716 41.4167286,203.857124 42.6081286,203.857124 C43.7995286,203.857124 45.1437007,204.684716 45.1437007,206.523972 L45.1437007,218.959557 L48.9833333,218.959559 L48.9833346,206.523972 C48.9833346,204.684716 49.7938052,203.857124 51.440919,203.857124 C53.0880328,203.857124 53.8332644,204.978333 53.8332644,206.523972 L53.8332644,218.959557 L120.208333,218.959559 C121.397575,218.959559 122.366667,217.463498 122.366667,215.627574 L122.366667,192.303677 C122.366667,192.303677 121.647752,193.033951 120.208337,192.774101 C118.768922,192.514252 118.054146,191.05687 118.049996,190.101913 C118.041335,188.108735 118.05,185.639706 118.05,185.639706 L118.05,155.651838 C118.05,153.812583 119.016933,152.319853 120.208333,152.319853 L126.683333,152.319853 L126.683333,128.995956 C126.683333,127.160032 125.714242,125.663971 124.525,125.663971 L118.05,125.663971 L118.05,142.323897 C118.05,144.163153 116.425875,145.007378 115.234475,145.007378 C114.043075,145.007378 112.216188,144.163152 112.216188,142.323896 L112.216188,125.838925 L92.15,125.663971 L92.15,142.323897 C92.15,144.163153 90.3532663,145.007378 89.1618663,145.007378 C87.9704663,145.007378 86.3765422,144.163152 86.3765422,142.323896 L86.3765422,125.66397 L27.4,125.663971 L20.925,125.663971 C14.922329,125.66397 11.5221325,123.726576 11.5221325,128.995955 L11.5221325,137 C11.5221325,138.839256 9.78592731,140.442562 8.59452731,140.442562 C7.40312731,140.442562 5.81666667,139.492233 5.81666667,137.652977 L5.81666667,126.927281 C5.81666667,121.416177 7.95224913,119.953676 11.5221325,119.953676 L124.525,119 C128.094883,119 132.85624,123.484852 132.85624,128.995955 L132.85624,152.319855 Z M59.1166667,110.786885 C63.38305,110.786885 67.09795,109.186164 69.2666667,107.997443 C71.4353833,109.186164 75.1502833,110.786885 79.4166667,110.786885 C85.7164333,110.786885 92.75715,107.213967 95.7649333,102.53 C96.0626667,102.080852 103.1,91.3452131 103.1,73.6393443 C103.1,60.6039344 92.4763333,50 79.4166667,50 C75.5901167,50 72.1019,51.4014754 69.2666667,52.8907541 C66.4314333,51.4014754 62.9432167,50 59.1166667,50 C46.057,50 35.4333333,60.6039344 35.4333333,73.6393443 C35.4333333,93.6483607 41.6688167,101.422328 43.0255333,102.871082 C46.0840667,106.714164 52.3635333,110.786885 59.1166667,110.786885 L59.1166667,110.786885 Z M59.35,57 C62.3679333,57 65.4535333,58.5601967 67.80495,59.9211475 C68.8537833,60.5290164 70.1462167,60.5290164 71.19505,59.9211475 C73.5464667,58.5601967 76.6320667,57 79.65,57 C88.97785,57 96.5666667,64.5747213 96.5666667,73.8852459 C96.5666667,89.4264262 90.4259167,98.9429508 90.3345667,99.0780328 C88.75455,101.536525 83.9806667,104.278689 79.65,104.278689 C75.2888833,104.278689 71.5435333,101.58718 71.51985,101.570295 C70.921,101.124525 70.2105,100.901639 69.5,100.901639 C68.7895,100.901639 68.079,101.124525 67.48015,101.570295 C67.4429333,101.597311 63.7111167,104.278689 59.35,104.278689 C55.0396333,104.278689 50.5398,101.472361 48.4928833,98.8348852 C48.4252167,98.747082 48.3101833,98.6187541 48.2323667,98.5377049 C48.17485,98.476918 42.4333333,92.1956066 42.4333333,73.8852459 C42.4333333,64.5747213 50.02215,57 59.35,57 L59.35,57 Z M76.3389509,44.5084262 C76.5757842,44.5860984 78.7343509,45.2783934 81.5898842,45.2783934 L81.5932676,45.2783934 C85.6397342,45.2783934 89.1584009,43.9005574 91.7601842,41.3002295 C97.9516842,35.1202295 95.0961509,26.2791148 94.9709676,25.9042623 C94.6326342,24.8979016 93.8409342,24.1076721 92.8327009,23.7699672 C92.5924842,23.6922951 90.4339176,23 87.5750009,23 C83.5285342,23 80.0132509,24.374459 77.4080842,26.9747869 C71.2165842,33.1581639 74.0755009,41.9959016 74.1973009,42.3707541 C74.5356342,43.3804918 75.3273342,44.1707213 76.3389509,44.5084262 L76.3389509,44.5084262 Z M82.4335031,31.9958361 C83.7597698,30.6720328 85.5698531,30 87.8163865,30 C88.2934365,30 88.7434198,30.0303934 89.1426531,30.0776721 C89.3490365,31.8979016 89.2543031,34.738 87.2175365,36.7709836 C85.8912698,38.0947869 84.0778031,38.7701967 81.8346531,38.7701967 C81.3576031,38.7701967 80.9076198,38.7364262 80.5083865,38.6925246 C80.3020031,36.868918 80.3967365,34.0288197 82.4335031,31.9958361 L82.4335031,31.9958361 Z M55.9177303,28.1168087 C54.9534803,26.5160874 55.4745136,24.4425792 57.0748303,23.4834972 C58.6785303,22.5210382 60.755897,23.0411038 61.7167636,24.6384481 L71.8667636,41.523694 C72.8310136,43.1244153 72.3099803,45.1979235 70.7096636,46.1570054 C70.164947,46.4845792 69.5627136,46.6399235 68.9706303,46.6399235 C67.820297,46.6399235 66.7004136,46.055694 66.0677303,45.0020546 L55.9177303,28.1168087 L55.9177303,28.1168087 Z M25.7666667,176.131148 L25.7666667,169.377049 C25.7666667,167.512918 27.2824,166 29.15,166 C31.0176,166 32.5333333,167.512918 32.5333333,169.377049 L32.5333333,176.131148 C32.5333333,177.995279 31.0176,179.508197 29.15,179.508197 C27.2824,179.508197 25.7666667,177.995279 25.7666667,176.131148 L25.7666667,176.131148 Z M37.7666667,176.131148 L37.7666667,169.377049 C37.7666667,167.512918 39.2824,166 41.15,166 C43.0176,166 44.5333333,167.512918 44.5333333,169.377049 L44.5333333,176.131148 C44.5333333,177.995279 43.0176,179.508197 41.15,179.508197 C39.2824,179.508197 37.7666667,177.995279 37.7666667,176.131148 L37.7666667,176.131148 Z" sketch:type="MSShapeGroup"></path>
            </g>
        </g>
    </g>
</svg>