<?xml version="1.0" encoding="UTF-8" standalone="no"?>
<svg width="171px" height="198px" viewBox="0 0 171 198" version="1.1" xmlns="http://www.w3.org/2000/svg" xmlns:xlink="http://www.w3.org/1999/xlink" xmlns:sketch="http://www.bohemiancoding.com/sketch/ns">
    <!-- Generator: Sketch 3.5.2 (25235) - http://www.bohemiancoding.com/sketch -->
    <title>book-closed</title>
    <desc>Created with Sketch.</desc>
    <defs></defs>
    <g id="Desktop" stroke="none" stroke-width="1" fill="none" fill-rule="evenodd" sketch:type="MSPage">
        <g id="Timeline---Desktop" sketch:type="MSArtboardGroup" transform="translate(-17.000000, -1282.000000)" fill="#EDE9E4">
            <g id="Oval-3-Copy-+--copy-Copy-+-lighthouse-+-Line-Copy-5-Copy-+-books-apple-copy-+-College-+-University-of-Madiso" sketch:type="MSLayerGroup" transform="translate(17.000000, 1282.500000)">
                <g id="books-apple-copy-+-College-+-University-of-Madiso" sketch:type="MSShapeGroup">
                    <g id="books-apple-copy">
                        <path d="M171,29.55 L171,180.583333 C171,189.481167 163.469423,197 154.557692,197 L16.4423077,197 C7.53057692,197 0,189.481167 0,180.583333 L0,13.1333333 C0,5.8903 5.8995,0 13.1538462,0 L167.711538,0 C169.526769,0 171,1.47093333 171,3.28333333 C171,5.09573333 169.526769,6.56666667 167.711538,6.56666667 L13.1538462,6.56666667 C9.52667308,6.56666667 6.57692308,9.51181667 6.57692308,13.1333333 L6.57692308,16.4166667 C6.57692308,25.6855167 14.8079423,26.2469667 16.45875,26.2666667 C18.2608269,26.2863667 19.7307692,27.7507333 19.7307692,29.55 L19.7307692,180.583333 C19.7307692,182.395733 18.2575385,183.866667 16.4423077,183.866667 C14.6270769,183.866667 13.1538462,182.395733 13.1538462,180.583333 L13.1538462,32.4984333 C11.0295,32.0847333 8.69140385,31.2474833 6.57692308,29.8225167 L6.57692308,180.583333 C6.57692308,185.8301 11.1873462,190.433333 16.4423077,190.433333 L154.557692,190.433333 C159.812654,190.433333 164.423077,185.8301 164.423077,180.583333 L164.423077,32.8333333 L69.0576923,32.8333333 C67.2424615,32.8333333 65.7692308,31.3624 65.7692308,29.55 C65.7692308,27.7376 67.2424615,26.2666667 69.0576923,26.2666667 L167.711538,26.2666667 C169.526769,26.2666667 171,27.7376 171,29.55 L171,29.55 Z M164.423077,16.4166667 C164.423077,14.6042667 162.949846,13.1333333 161.134615,13.1333333 L55.9038462,13.1333333 C54.0886154,13.1333333 52.6153846,14.6042667 52.6153846,16.4166667 L52.6153846,47.8907 L45.0749423,40.3620167 C43.7891538,39.0782333 41.7108462,39.0782333 40.4250577,40.3620167 L32.8846154,47.8907 L32.8846154,16.4166667 C32.8846154,14.6042667 31.4113846,13.1333333 29.5961538,13.1333333 L16.4423077,13.1333333 C14.6270769,13.1333333 13.1538462,14.6042667 13.1538462,16.4166667 C13.1538462,18.2290667 14.6270769,19.7 16.4423077,19.7 L26.3076923,19.7 L26.3076923,55.8166667 C26.3076923,57.1431333 27.1100769,58.34155 28.3366731,58.8504667 C29.5665577,59.3561 30.9773077,59.0770167 31.9210962,58.1379833 L42.75,47.3259667 L53.5789038,58.1379833 C54.207,58.7651 55.0488462,59.1 55.9038462,59.1 C56.3280577,59.1 56.7555577,59.0179167 57.1633269,58.8504667 C58.3899231,58.34155 59.1923077,57.1431333 59.1923077,55.8166667 L59.1923077,19.7 L161.134615,19.7 C162.949846,19.7 164.423077,18.2290667 164.423077,16.4166667 L164.423077,16.4166667 Z M49.3269231,65.6666667 L121.673077,65.6666667 C123.488308,65.6666667 124.961538,67.1376 124.961538,68.95 L124.961538,121.483333 C124.961538,123.295733 123.488308,124.766667 121.673077,124.766667 L49.3269231,124.766667 C47.5116923,124.766667 46.0384615,123.295733 46.0384615,121.483333 L46.0384615,68.95 C46.0384615,67.1376 47.5116923,65.6666667 49.3269231,65.6666667 L49.3269231,65.6666667 Z M52.6153846,118.2 L118.384615,118.2 L118.384615,72.2333333 L52.6153846,72.2333333 L52.6153846,118.2 Z M69.0576923,91.9333333 L88.7884615,91.9333333 C90.6036923,91.9333333 92.0769231,90.4624 92.0769231,88.65 C92.0769231,86.8376 90.6036923,85.3666667 88.7884615,85.3666667 L69.0576923,85.3666667 C67.2424615,85.3666667 65.7692308,86.8376 65.7692308,88.65 C65.7692308,90.4624 67.2424615,91.9333333 69.0576923,91.9333333 L69.0576923,91.9333333 Z M101.942308,98.5 L69.0576923,98.5 C67.2424615,98.5 65.7692308,99.9709333 65.7692308,101.783333 C65.7692308,103.595733 67.2424615,105.066667 69.0576923,105.066667 L101.942308,105.066667 C103.757538,105.066667 105.230769,103.595733 105.230769,101.783333 C105.230769,99.9709333 103.757538,98.5 101.942308,98.5 L101.942308,98.5 Z" id="book-closed"></path>
                    </g>
                </g>
            </g>
        </g>
    </g>
</svg>