<?xml version="1.0" encoding="UTF-8" standalone="no"?>
<svg width="218px" height="264px" viewBox="0 0 218 264" version="1.1" xmlns="http://www.w3.org/2000/svg" xmlns:xlink="http://www.w3.org/1999/xlink" xmlns:sketch="http://www.bohemiancoding.com/sketch/ns">
    <!-- Generator: Sketch 3.5.2 (25235) - http://www.bohemiancoding.com/sketch -->
    <title>captain copy</title>
    <desc>Created with Sketch.</desc>
    <defs></defs>
    <g id="Desktop" stroke="none" stroke-width="1" fill="none" fill-rule="evenodd" sketch:type="MSPage">
        <g id="Timeline---Desktop" sketch:type="MSArtboardGroup" transform="translate(-982.000000, -1631.000000)" fill="#626878">
            <g id="captain" sketch:type="MSLayerGroup" transform="translate(982.000000, 1631.000000)">
                <path d="M192.890432,131.100328 C195.141013,130.331475 197.093271,128.943148 198.611206,127.168197 C200.440626,126.640984 201.8094,125.019803 201.8094,123.016393 L201.8094,109.836066 C201.8094,107.410885 199.843981,105.442623 197.422303,105.442623 C195.000626,105.442623 193.035206,107.410885 193.035206,109.836066 L193.035206,118.622951 C193.035206,121.043738 191.0654,123.016393 188.64811,123.016393 C186.239593,123.016393 184.278561,124.967082 184.261013,127.383475 C184.256626,127.585574 184.019723,148.019475 176.201916,159.952066 C171.24011,164.349902 164.027723,163.86223 160.399593,163.242754 C157.069787,152.171279 148.861529,140.590164 131.615852,140.590164 C114.370174,140.590164 106.161916,152.171279 102.83211,163.242754 C99.2610128,163.853443 92.241658,164.327934 87.2930128,160.176131 C87.2842387,160.162951 87.2798516,160.13659 87.2666903,160.119016 C79.3348193,148.204 78.9706903,127.563607 78.9706903,127.352721 C78.9399806,124.949508 76.9833354,123.016393 74.5835935,123.016393 C72.1663032,123.016393 70.1964967,121.043738 70.1964967,118.622951 L70.1964967,109.836066 C70.1964967,107.410885 68.2310774,105.442623 65.8093999,105.442623 C63.3877225,105.442623 61.4223032,107.410885 61.4223032,109.836066 L61.4223032,118.622951 C61.4223032,124.413508 65.1688838,129.342951 70.3632064,131.109115 C70.8282387,137.962885 72.5874645,152.984066 79.2163677,163.809508 C79.2251419,163.840262 79.2207548,163.86223 79.229529,163.892984 C79.3128838,172.051607 81.2475935,185.970033 91.9477225,196.848197 C101.116755,206.162295 114.462303,210.885246 131.615852,210.885246 C148.707981,210.885246 162.031593,206.193049 171.205013,196.936066 C181.979723,186.066689 183.9934,172.038426 184.1294,163.849049 C190.767077,153.019213 192.460497,137.980459 192.890432,131.100328 L192.890432,131.100328 Z M164.979723,190.745705 C157.508497,198.276066 146.286303,202.098361 131.615852,202.098361 C116.897142,202.098361 105.6574,198.254098 98.1993354,190.679803 C92.1758516,184.555344 89.6532709,177.121639 88.6354645,170.887344 C91.9126258,172.04282 95.2292709,172.442623 98.1554645,172.442623 C99.1952064,172.442623 100.160368,172.385508 101.081658,172.31082 C100.976368,173.51023 100.906174,174.678885 100.906174,175.737705 C100.906174,178.158492 102.862819,180.122361 105.284497,180.126754 L105.293271,180.126754 C107.706174,180.126754 109.671593,178.167279 109.680368,175.746492 C109.684755,174.670098 110.048884,149.377049 131.615852,149.377049 C153.182819,149.377049 153.546948,174.670098 153.551335,175.737705 C153.551335,178.162885 155.516755,180.131148 157.938432,180.131148 C160.36011,180.131148 162.325529,178.162885 162.325529,175.737705 C162.325529,174.678885 162.255335,173.51023 162.150045,172.31082 C163.071335,172.385508 164.036497,172.442623 165.071852,172.442623 C168.024368,172.442623 171.371723,172.034033 174.675206,170.85659 C173.622303,177.13482 171.051464,184.621246 164.979723,190.745705 L164.979723,190.745705 Z M118.454561,114.229508 C120.876239,114.229508 122.841658,116.19777 122.841658,118.622951 C122.841658,121.048131 120.876239,123.016393 118.454561,123.016393 L114.067464,123.016393 C114.067464,125.441574 112.102045,127.409836 109.680368,127.409836 C107.25869,127.409836 105.293271,125.441574 105.293271,123.016393 L100.906174,123.016393 C98.4844967,123.016393 96.5190774,121.048131 96.5190774,118.622951 C96.5190774,116.19777 98.4844967,114.229508 100.906174,114.229508 L118.454561,114.229508 L118.454561,114.229508 Z M162.325529,114.229508 C164.747206,114.229508 166.712626,116.19777 166.712626,118.622951 C166.712626,121.048131 164.747206,123.016393 162.325529,123.016393 L157.938432,123.016393 C157.938432,125.441574 155.973013,127.409836 153.551335,127.409836 C151.129658,127.409836 149.164239,125.441574 149.164239,123.016393 L144.777142,123.016393 C142.355464,123.016393 140.390045,121.048131 140.390045,118.622951 C140.390045,116.19777 142.355464,114.229508 144.777142,114.229508 L162.325529,114.229508 L162.325529,114.229508 Z M140.390045,162.557377 C140.390045,164.982557 138.424626,166.95082 136.002948,166.95082 L127.228755,166.95082 C124.807077,166.95082 122.841658,164.982557 122.841658,162.557377 C122.841658,160.132197 124.807077,158.163934 127.228755,158.163934 L136.002948,158.163934 C138.424626,158.163934 140.390045,160.132197 140.390045,162.557377 L140.390045,162.557377 Z M166.133529,213.099541 C167.335593,215.204 166.607335,217.888393 164.501529,219.092197 L136.002948,235.400656 L136.002948,259.213115 C136.002948,261.638295 134.037529,263.606557 131.615852,263.606557 C129.194174,263.606557 127.228755,261.638295 127.228755,259.213115 L127.228755,235.400656 L98.7301741,219.092197 C96.6243677,217.888393 95.8961096,215.204 97.0981741,213.099541 C98.3002387,210.995082 100.985142,210.261377 103.082174,211.46518 L131.615852,227.791213 L160.149529,211.46518 C162.250948,210.261377 164.935852,210.995082 166.133529,213.099541 L166.133529,213.099541 Z M260.227981,263.382492 C259.767335,263.536262 259.297916,263.606557 258.841658,263.606557 C257.003464,263.606557 255.292497,262.442295 254.678303,260.601443 L250.291206,247.421115 C247.290432,238.414557 241.043206,219.672131 197.422303,219.672131 C196.47469,219.672131 195.549013,219.36459 194.790045,218.793443 L177.241658,205.613115 C175.302561,204.158885 174.91211,201.404197 176.364239,199.462295 C177.820755,197.524787 180.567077,197.124984 182.506174,198.583607 L198.891981,210.894033 C241.951335,211.289443 253.436755,229.100459 258.617916,244.644459 L263.005013,257.824787 C263.772755,260.122557 262.526819,262.613639 260.227981,263.382492 L260.227981,263.382492 Z M86.8674645,199.462295 C88.3195935,201.404197 87.9291419,204.158885 85.9900451,205.613115 L68.441658,218.793443 C67.6826903,219.36459 66.7570128,219.672131 65.8093999,219.672131 C22.1884967,219.672131 15.9412709,238.414557 12.9404967,247.421115 L8.55339994,260.601443 C7.9392064,262.442295 6.22823865,263.606557 4.39004511,263.606557 C3.93378704,263.606557 3.46436769,263.536262 3.00372253,263.382492 C0.704883816,262.613639 -0.541051668,260.122557 0.226690267,257.824787 L4.61378704,244.644459 C9.79494833,229.100459 21.2803677,211.289443 64.3397225,210.894033 L80.725529,198.583607 C82.6690128,197.124984 85.4153354,197.524787 86.8674645,199.462295 L86.8674645,199.462295 Z M78.9706903,250.42623 L78.9706903,259.213115 C78.9706903,261.638295 77.0052709,263.606557 74.5835935,263.606557 C72.1619161,263.606557 70.1964967,261.638295 70.1964967,259.213115 L70.1964967,254.819672 L52.6481096,254.819672 L52.6481096,259.213115 C52.6481096,261.638295 50.6826903,263.606557 48.2610128,263.606557 C45.8393354,263.606557 43.8739161,261.638295 43.8739161,259.213115 L43.8739161,250.42623 C43.8739161,248.001049 45.8393354,246.032787 48.2610128,246.032787 L74.5835935,246.032787 C77.0052709,246.032787 78.9706903,248.001049 78.9706903,250.42623 L78.9706903,250.42623 Z M158.070045,259.213115 C158.070045,261.638295 156.104626,263.606557 153.682948,263.606557 C151.261271,263.606557 149.273916,261.638295 149.273916,259.213115 C149.273916,256.787934 151.2174,254.819672 153.639077,254.819672 L153.682948,254.819672 C156.104626,254.819672 158.070045,256.787934 158.070045,259.213115 L158.070045,259.213115 Z M158.070045,241.639344 C158.070045,244.064525 156.104626,246.032787 153.682948,246.032787 C151.261271,246.032787 149.273916,244.064525 149.273916,241.639344 C149.273916,239.214164 151.2174,237.245902 153.639077,237.245902 L153.682948,237.245902 C156.104626,237.245902 158.070045,239.214164 158.070045,241.639344 L158.070045,241.639344 Z M62.1593354,94.7006557 C62.9709483,95.9220328 64.3397225,96.6557377 65.8093999,96.6557377 L197.422303,96.6557377 C198.887593,96.6557377 200.256368,95.9220328 201.072368,94.7006557 L218.620755,68.34 C219.379723,67.1977049 219.563981,65.7698361 219.120884,64.4737705 C218.677787,63.1820984 217.655593,62.1672131 216.357013,61.7322623 C215.795464,61.5477377 208.587464,59.2148197 194.145142,56.965377 C197.264368,51.5394754 197.422303,44.8306885 197.422303,43.9344262 C197.422303,22.0638689 177.074948,0 131.615852,0 C86.1567548,0 65.8093999,22.0638689 65.8093999,43.9344262 C65.8093999,44.8306885 65.9673354,51.5394754 69.0865612,56.965377 C54.6442387,59.2148197 47.4318516,61.5477377 46.8746903,61.7322623 C45.5761096,62.1672131 44.5539161,63.1820984 44.1108193,64.4737705 C43.6677225,65.7698361 43.8519806,67.1977049 44.6109483,68.34 L62.1593354,94.7006557 L62.1593354,94.7006557 Z M77.6852709,54.0085902 C75.1846258,51.5043279 74.5923677,45.7445246 74.5835935,43.9344262 C74.5835935,22.9118033 97.501787,8.78688525 131.615852,8.78688525 C165.729916,8.78688525 188.64811,22.9118033 188.64811,43.9212459 C188.639335,45.7445246 188.047077,51.5043279 185.546432,54.0085902 C185.072626,54.483082 184.756755,55.0498361 184.546174,55.6429508 C171.288368,54.0261639 153.783852,52.7213115 131.615852,52.7213115 C109.447852,52.7213115 91.9389483,54.0261639 78.685529,55.6429508 C78.4749483,55.0498361 78.1590774,54.483082 77.6852709,54.0085902 L77.6852709,54.0085902 Z M131.615852,61.5081967 C172.468497,61.5081967 197.483723,66.1125246 207.925013,68.568459 L195.075206,87.8688525 L68.1564967,87.8688525 L55.3066903,68.568459 C65.7479806,66.1125246 90.7632064,61.5081967 131.615852,61.5081967 L131.615852,61.5081967 Z M131.615852,43.9344262 C121.319335,43.9344262 115.931981,38.8336393 115.352884,38.2537049 C113.637529,36.5358689 113.637529,33.7592131 115.352884,32.041377 C117.05069,30.3411148 119.797013,30.323541 121.512368,31.9974426 C121.679077,32.1512131 123.565529,33.8207213 127.228755,34.6642623 L127.228755,21.9672131 C127.228755,19.5420328 129.194174,17.5737705 131.615852,17.5737705 C134.037529,17.5737705 136.002948,19.5420328 136.002948,21.9672131 L136.002948,34.6686557 C139.740755,33.807541 141.622819,32.0897049 141.723723,31.9930492 C143.474174,30.3499016 146.238045,30.3982295 147.900755,32.120459 C149.567852,33.8426885 149.572239,36.5578361 147.878819,38.2537049 C147.299723,38.8336393 141.912368,43.9344262 131.615852,43.9344262 L131.615852,43.9344262 Z" id="captain-copy" sketch:type="MSShapeGroup"></path>
            </g>
        </g>
    </g>
</svg>