<?xml version="1.0" encoding="UTF-8" standalone="no"?>
<svg width="231px" height="253px" viewBox="0 0 231 253" version="1.1" xmlns="http://www.w3.org/2000/svg" xmlns:xlink="http://www.w3.org/1999/xlink" xmlns:sketch="http://www.bohemiancoding.com/sketch/ns">
    <!-- Generator: Sketch 3.5.2 (25235) - http://www.bohemiancoding.com/sketch -->
    <title>mother copy</title>
    <desc>Created with Sketch.</desc>
    <defs></defs>
    <g id="Desktop" stroke="none" stroke-width="1" fill="none" fill-rule="evenodd" sketch:type="MSPage">
        <g id="Timeline---Desktop" sketch:type="MSArtboardGroup" transform="translate(0.000000, -6256.000000)" fill="#EDE9E4">
            <g id="Oval-3-Copy-+--copy-Copy-+-lighthouse-+-Line-Copy-5-+-books-apple-+-Teacher-+-High-School-Gym-Clas-Copy-Copy-Copy-Copy-Copy-Copy-+-mother-copy-+-photo-copy-11" sketch:type="MSLayerGroup" transform="translate(-22.000000, 6256.000000)">
                <path d="M189.750471,134.934339 C187.418637,134.934339 185.533773,136.82342 185.533773,139.151037 L185.533773,147.584433 C185.533773,149.912051 187.418637,151.801131 189.750471,151.801131 C192.082305,151.801131 193.967169,149.912051 193.967169,147.584433 L193.967169,139.151037 C193.967169,136.82342 192.082305,134.934339 189.750471,134.934339 M63.2495286,151.801131 C65.5813627,151.801131 67.4662267,149.912051 67.4662267,147.584433 L67.4662267,139.151037 C67.4662267,136.82342 65.5813627,134.934339 63.2495286,134.934339 C60.9176946,134.934339 59.0328305,136.82342 59.0328305,139.151037 L59.0328305,147.584433 C59.0328305,149.912051 60.9176946,151.801131 63.2495286,151.801131 M105.41651,118.067547 C107.748344,118.067547 109.633208,116.178466 109.633208,113.850849 L109.633208,111.076261 C109.903076,111.337696 110.088611,111.552748 110.109695,111.582265 C110.860267,113.024376 112.331894,113.850849 113.854122,113.850849 C114.507711,113.850849 115.173949,113.699047 115.79802,113.374362 C117.859986,112.299104 118.665375,109.752218 117.590117,107.686036 C116.337758,105.278301 112.357195,101.200754 105.41651,101.200754 C98.4758245,101.200754 94.4952615,105.278301 93.2429021,107.686036 C92.1929443,109.705834 92.9730335,112.117786 94.9506649,113.235211 C96.9198629,114.352636 99.4709652,113.640014 100.660074,111.691899 C100.702241,111.628649 100.908859,111.38408 101.199811,111.101561 L101.199811,113.850849 C101.199811,116.178466 103.084675,118.067547 105.41651,118.067547 M147.58349,118.067547 C149.915325,118.067547 151.800189,116.178466 151.800189,113.850849 L151.800189,111.076261 C152.070057,111.337696 152.255592,111.552748 152.276675,111.582265 C153.027248,113.024376 154.498875,113.850849 156.021103,113.850849 C156.674692,113.850849 157.34093,113.699047 157.965001,113.374362 C160.026967,112.299104 160.832356,109.752218 159.757098,107.686036 C158.504739,105.278301 154.524176,101.200754 147.58349,101.200754 C140.642805,101.200754 136.662242,105.278301 135.409883,107.686036 C134.359925,109.705834 135.140014,112.117786 137.117646,113.235211 C139.091061,114.352636 141.642163,113.640014 142.827055,111.691899 C142.869222,111.628649 143.07584,111.38408 143.366792,111.101561 L143.366792,113.850849 C143.366792,116.178466 145.251656,118.067547 147.58349,118.067547 M193.891269,214.764867 C193.878619,214.511865 193.861752,214.267297 193.794285,214.018512 C193.714168,213.719126 193.587667,213.449257 193.448516,213.170955 C193.368398,213.023371 193.351532,212.854703 193.258764,212.711335 C193.212381,212.648085 193.144913,212.614351 193.09853,212.551101 C192.921428,212.319182 192.70216,212.133648 192.478675,211.935463 C192.272057,211.749928 192.073872,211.56861 191.83352,211.433676 C191.761836,211.387292 191.719669,211.319825 191.639552,211.277658 L174.77276,202.844262 C173.414983,202.173807 171.804204,202.270791 170.547628,203.109914 L145.243223,219.976706 C144.070981,220.761012 143.366792,222.076622 143.366792,223.484999 L143.366792,238.43741 C140.857857,240.444559 134.697261,244.568489 126.5,244.568489 C118.382856,244.568489 112.163226,240.423475 109.633208,238.42476 L109.633208,223.484999 C109.633208,222.076622 108.929019,220.761012 107.756777,219.976706 L82.4565884,203.109914 C81.2000124,202.270791 79.5892337,202.173807 78.2314569,202.844262 L61.3646646,211.277658 C61.288764,211.315608 61.246597,211.383075 61.1791298,211.425242 C60.926128,211.56861 60.7152931,211.758362 60.5002415,211.956546 C60.2851898,212.146298 60.0785716,212.319182 59.9141204,212.538451 C59.86352,212.605918 59.7876195,212.643868 59.7412358,212.711335 C59.640035,212.863136 59.6231682,213.036021 59.543051,213.200472 C59.4123333,213.461908 59.2858324,213.719126 59.2099318,214.005862 C59.1424647,214.267297 59.1213812,214.524515 59.1087311,214.794384 C59.0918643,215.060036 59.0792142,215.317255 59.1129478,215.587123 C59.1466814,215.882292 59.2436654,216.152161 59.3406495,216.430463 C59.3996832,216.599131 59.3954666,216.776232 59.4755838,216.936467 C59.5135341,217.012367 59.585218,217.058751 59.6273849,217.130435 C59.766536,217.375003 59.9562874,217.581622 60.1502555,217.796673 C60.3400069,218.007508 60.5171082,218.218343 60.7363765,218.387011 C60.8038437,218.437611 60.841794,218.513512 60.9092612,218.559896 L86.2094497,235.426688 C86.9305051,235.907391 87.7443278,236.135093 88.5455005,236.135093 C89.907494,236.135093 91.2484039,235.477288 92.05801,234.258663 C93.3525363,232.318981 92.8296657,229.700412 90.8899846,228.410102 L71.6323244,215.574473 L79.8127187,211.484276 L101.199811,225.740932 L101.199811,240.351791 C101.199811,241.469216 101.642565,242.544474 102.435304,243.332997 C102.831674,243.729366 112.268644,253.001886 126.5,253.001886 C140.731356,253.001886 150.168326,243.729366 150.564696,243.332997 C151.357435,242.544474 151.800189,241.469216 151.800189,240.351791 L151.800189,225.740932 L173.191498,211.484276 L181.367676,215.574473 L162.110015,228.410102 C160.170334,229.700412 159.647464,232.318981 160.94199,234.258663 C161.751596,235.477288 163.092506,236.135093 164.4545,236.135093 C165.255672,236.135093 166.069495,235.907391 166.79055,235.426688 L192.090739,218.559896 C192.158206,218.513512 192.19194,218.441828 192.25519,218.391228 C192.491325,218.218343 192.67686,217.999075 192.875045,217.77559 C193.052146,217.564755 193.233464,217.375003 193.368398,217.138868 C193.410565,217.062968 193.486466,217.016584 193.528633,216.936467 C193.612967,216.763582 193.612967,216.578047 193.672001,216.400946 C193.760551,216.135294 193.853319,215.882292 193.887052,215.60399 C193.925003,215.317255 193.912352,215.047386 193.891269,214.764867 M252.781674,247.452711 C252.410605,246.326852 243.20977,219.854422 207.637705,210.961406 C205.377555,210.387935 203.092104,211.771012 202.527067,214.026945 C201.962029,216.287095 203.336673,218.576762 205.596823,219.1418 C236.49257,226.866791 244.466346,249.18999 244.786815,250.117664 C245.372936,251.884461 247.017448,253.001886 248.784245,253.001886 C249.222781,253.001886 249.673968,252.934418 250.116721,252.786834 C252.326271,252.048912 253.519597,249.662261 252.781674,247.452711 M45.3622953,210.961406 C9.79023019,219.854422 0.58939495,246.326852 0.218325518,247.452711 C-0.519596648,249.662261 0.673728912,252.048912 2.88327871,252.786834 C3.32603201,252.934418 3.77721871,253.001886 4.21575531,253.001886 C5.98255181,253.001886 7.62706407,251.884461 8.2131851,250.117664 C8.29330237,249.885746 16.2755119,226.921608 47.4031772,219.1418 C49.6633274,218.576762 51.0379709,216.287095 50.4729334,214.026945 C49.9078958,211.771012 47.6182288,210.392151 45.3622953,210.961406 M126.5,164.451226 C136.39659,164.451226 141.574696,159.555639 142.1313,158.999035 C143.758945,157.37139 143.754729,154.76547 142.1566,153.112524 C140.550038,151.459579 137.901952,151.413195 136.219489,152.99024 C136.084555,153.112524 132.905164,156.017829 126.5,156.017829 C120.187603,156.017829 117.008213,153.196858 116.788944,152.994457 C115.148649,151.387895 112.504779,151.400545 110.8687,153.036624 C109.219971,154.685353 109.219971,157.350306 110.8687,158.999035 C111.425304,159.555639 116.60341,164.451226 126.5,164.451226 M28.1834673,202.186457 C28.6262206,202.329825 29.0774073,202.401508 29.5159439,202.401508 C31.2827404,202.401508 32.9272526,201.284083 33.5133737,199.517287 C34.0404609,197.940242 46.3827362,160.52548 46.3827362,126.500943 L46.3827362,88.5506599 C46.3827362,22.3316331 89.9496609,8.43339619 126.5,8.43339619 C138.951909,8.43339619 164.863519,8.43339619 168.822999,13.9319705 C168.98745,14.1554555 169.232018,14.4927913 168.886249,15.5343158 C168.413979,16.9384762 168.717581,18.4817877 169.678988,19.6034294 C170.640396,20.7292878 172.11624,21.2648085 173.575218,21.0244567 C178.943074,20.1389501 183.661559,21.4840768 187.996325,25.1526041 C199.309726,34.7371589 206.617264,59.624111 206.617264,88.5506599 L206.617264,126.500943 C206.617264,164.775911 219.005923,198.260711 219.53301,199.664871 C220.351049,201.844904 222.779868,202.945463 224.964117,202.135856 C227.14415,201.317817 228.248925,198.888999 227.435102,196.704749 C227.308601,196.375847 215.05066,163.19465 215.05066,126.500943 L215.05066,88.5506599 C215.05066,63.6384076 209.374984,32.2113567 193.448516,18.7179228 C188.633046,14.6445925 183.104955,12.4814264 177.222661,12.3422753 C176.885326,10.9718484 176.282338,9.85442344 175.6667,8.99843373 C169.666338,0.678888393 149.852074,0 126.5,0 C69.3974744,0 37.9493401,31.4481344 37.9493401,88.5506599 L37.9493401,126.500943 C37.9493401,159.133969 25.6407983,196.477048 25.5185141,196.852334 C24.7805919,199.061884 25.9739175,201.448535 28.1834673,202.186457 M192.284707,93.6149144 C193.343098,94.4118703 193.967169,95.6600129 193.967169,96.9840561 C193.967169,115.082124 180.688787,149.840367 176.657624,157.902693 C171.525902,168.166137 149.067768,193.968112 126.5,193.968112 C103.932232,193.968112 81.4740978,168.166137 76.3423762,157.902693 C72.3112128,149.840367 59.0328305,115.082124 59.0328305,96.9840561 L59.0328305,80.1172638 C59.0328305,77.7896464 60.9176946,75.9005657 63.2495286,75.9005657 C63.9958842,75.9005657 138.142303,75.6011801 170.35366,51.4437167 C172.217441,50.043773 174.86131,50.4232758 176.257037,52.2870564 C177.656981,54.1508369 177.277478,56.7947066 175.413698,58.1904337 C145.205273,80.8467525 84.1854346,83.8743418 67.4662267,84.2707114 L67.4662267,96.9840561 C67.4662267,112.931608 79.669351,145.691136 83.8902658,154.132965 C87.672644,161.701938 107.685093,185.534716 126.5,185.534716 C145.314907,185.534716 165.327356,161.701938 169.109734,154.132965 C173.161981,146.028472 184.568149,115.516444 185.47474,98.9743376 C180.701437,95.0317249 168.666981,83.8785585 168.666981,71.6838676 C168.666981,69.3562502 170.551845,67.4671695 172.883679,67.4671695 C175.215513,67.4671695 177.100377,69.3562502 177.100377,71.6838676 C177.100377,80.2943651 188.063792,90.4313073 192.284707,93.6149144" id="mother-copy" sketch:type="MSShapeGroup"></path>
            </g>
        </g>
    </g>
</svg>