<?xml version="1.0" encoding="UTF-8" standalone="no"?>
<svg width="204px" height="219px" viewBox="0 0 204 219" version="1.1" xmlns="http://www.w3.org/2000/svg" xmlns:xlink="http://www.w3.org/1999/xlink" xmlns:sketch="http://www.bohemiancoding.com/sketch/ns">
    <!-- Generator: Sketch 3.5.2 (25235) - http://www.bohemiancoding.com/sketch -->
    <title>diploma copy</title>
    <desc>Created with Sketch.</desc>
    <defs></defs>
    <g id="Page-1" stroke="none" stroke-width="1" fill="none" fill-rule="evenodd" sketch:type="MSPage">
        <g id="Timeline---Desktop" sketch:type="MSArtboardGroup" transform="translate(-964.000000, -926.000000)" fill="#818591" opacity="0.25">
            <g id="diploma" sketch:type="MSLayerGroup" transform="translate(964.000000, 926.000000)">
                <path d="M204,32.85 L204,186.15 C204,189.3036 203.136643,192.43895 201.504643,195.2166 C200.827071,196.37365 199.610357,197.01605 198.360857,197.01605 C197.734286,197.01605 197.100429,196.85545 196.517571,196.51235 C194.783571,195.49035 194.208,193.2529 195.224357,191.5155 C196.197,189.8584 196.714286,188.00055 196.714286,186.15 L196.714286,32.85 C196.714286,18.761 185.272071,7.3 171.214286,7.3 L32.7857143,7.3 C18.7388571,7.3 7.31121429,18.7391 7.28571429,32.8062 C7.30028571,41.88375 12.1853571,50.34445 20.0393571,54.9033 C21.777,55.9107 22.3780714,58.1445 21.3653571,59.8892 C20.3562857,61.63025 18.1305,62.2252 16.3892143,61.2178 C6.31671429,55.3778 0.0473571429,44.53365 0,32.8938 L0,32.85 L0,32.8062 L0,32.76605 L0,32.72225 C0.0692142857,14.66935 14.7499286,0 32.7857143,0 L171.214286,0 C189.293786,0 204,14.73505 204,32.85 L204,32.85 Z M61.9285714,58.31605 L76.5,58.31605 C78.5145,58.31605 80.1428571,56.68085 80.1428571,54.66605 C80.1428571,52.65125 78.5145,51.01605 76.5,51.01605 L61.9285714,51.01605 C59.9140714,51.01605 58.2857143,52.65125 58.2857143,54.66605 C58.2857143,56.68085 59.9140714,58.31605 61.9285714,58.31605 L61.9285714,58.31605 Z M142.071429,58.31605 C144.085929,58.31605 145.714286,56.68085 145.714286,54.66605 C145.714286,52.65125 144.085929,51.01605 142.071429,51.01605 L134.785714,51.01605 C132.771214,51.01605 131.142857,52.65125 131.142857,54.66605 C131.142857,56.68085 132.771214,58.31605 134.785714,58.31605 L142.071429,58.31605 L142.071429,58.31605 Z M120.214286,51.01605 L91.0714286,51.01605 C89.0569286,51.01605 87.4285714,52.65125 87.4285714,54.66605 C87.4285714,56.68085 89.0569286,58.31605 91.0714286,58.31605 L120.214286,58.31605 C122.228786,58.31605 123.857143,56.68085 123.857143,54.66605 C123.857143,52.65125 122.228786,51.01605 120.214286,51.01605 L120.214286,51.01605 Z M61.9285714,102.11605 L83.7857143,102.11605 C85.8002143,102.11605 87.4285714,100.48085 87.4285714,98.46605 C87.4285714,96.45125 85.8002143,94.81605 83.7857143,94.81605 L61.9285714,94.81605 C59.9140714,94.81605 58.2857143,96.45125 58.2857143,98.46605 C58.2857143,100.48085 59.9140714,102.11605 61.9285714,102.11605 L61.9285714,102.11605 Z M145.714286,98.46605 C145.714286,100.48085 147.342643,102.11605 149.357143,102.11605 L171.214286,102.11605 C173.228786,102.11605 174.857143,100.48085 174.857143,98.46605 C174.857143,96.45125 173.228786,94.81605 171.214286,94.81605 L149.357143,94.81605 C147.342643,94.81605 145.714286,96.45125 145.714286,98.46605 L145.714286,98.46605 Z M123.857143,76.56605 C123.857143,78.58085 125.4855,80.21605 127.5,80.21605 L163.928571,80.21605 C165.943071,80.21605 167.571429,78.58085 167.571429,76.56605 C167.571429,74.55125 165.943071,72.91605 163.928571,72.91605 L127.5,72.91605 C125.4855,72.91605 123.857143,74.55125 123.857143,76.56605 L123.857143,76.56605 Z M98.3571429,94.81605 C96.3426429,94.81605 94.7142857,96.45125 94.7142857,98.46605 C94.7142857,100.48085 96.3426429,102.11605 98.3571429,102.11605 L134.785714,102.11605 C136.800214,102.11605 138.428571,100.48085 138.428571,98.46605 C138.428571,96.45125 136.800214,94.81605 134.785714,94.81605 L98.3571429,94.81605 L98.3571429,94.81605 Z M61.9285714,80.21605 L112.928571,80.21605 C114.943071,80.21605 116.571429,78.58085 116.571429,76.56605 C116.571429,74.55125 114.943071,72.91605 112.928571,72.91605 L61.9285714,72.91605 C59.9140714,72.91605 58.2857143,74.55125 58.2857143,76.56605 C58.2857143,78.58085 59.9140714,80.21605 61.9285714,80.21605 L61.9285714,80.21605 Z M61.9285714,124.01605 L105.642857,124.01605 C107.657357,124.01605 109.285714,122.38085 109.285714,120.36605 C109.285714,118.35125 107.657357,116.71605 105.642857,116.71605 L61.9285714,116.71605 C59.9140714,116.71605 58.2857143,118.35125 58.2857143,120.36605 C58.2857143,122.38085 59.9140714,124.01605 61.9285714,124.01605 L61.9285714,124.01605 Z M160.285714,120.36605 C160.285714,118.35125 158.657357,116.71605 156.642857,116.71605 L120.214286,116.71605 C118.199786,116.71605 116.571429,118.35125 116.571429,120.36605 C116.571429,122.38085 118.199786,124.01605 120.214286,124.01605 L156.642857,124.01605 C158.657357,124.01605 160.285714,122.38085 160.285714,120.36605 L160.285714,120.36605 Z M160.285714,189.71605 C148.2315,189.71605 138.428571,179.8939 138.428571,167.81605 C138.428571,155.7382 148.2315,145.91605 160.285714,145.91605 C172.339929,145.91605 182.142857,155.7382 182.142857,167.81605 C182.142857,179.8939 172.339929,189.71605 160.285714,189.71605 L160.285714,189.71605 Z M174.857143,167.81605 C174.857143,159.76415 168.321857,153.21605 160.285714,153.21605 C152.249571,153.21605 145.714286,159.76415 145.714286,167.81605 C145.714286,175.86795 152.249571,182.41605 160.285714,182.41605 C168.321857,182.41605 174.857143,175.86795 174.857143,167.81605 L174.857143,167.81605 Z M184.430571,187.3618 C183.4215,185.61345 181.188429,185.01485 179.454429,186.0259 C177.7095,187.0333 177.112071,189.2671 178.1175,191.0118 L185.997,204.67375 L183.745714,204.8088 C182.601857,204.87815 181.556357,205.48405 180.9225,206.44035 L179.683929,208.32375 L171.880929,194.77495 C170.868214,193.03025 168.638786,192.43165 166.901143,193.43905 C165.159857,194.44645 164.562429,196.68025 165.567857,198.42495 L176.321571,217.0874 C176.955429,218.1824 178.110214,218.87225 179.367,218.9124 L179.479929,218.9124 C180.696643,218.9124 181.844143,218.2992 182.521714,217.27355 L186.004286,211.98835 L192.313714,211.6051 C193.577786,211.5321 194.707071,210.80575 195.3045,209.6925 C195.901929,208.57925 195.880071,207.2324 195.2535,206.1374 L184.430571,187.3618 L184.430571,187.3618 Z M153.710357,193.3697 C151.972714,192.3623 149.743286,192.9609 148.734214,194.7056 L140.891143,208.32375 L139.645286,206.44035 C139.015071,205.4804 137.969571,204.8745 136.825714,204.8088 L134.574429,204.67375 L142.548643,190.84025 C143.554071,189.09555 142.956643,186.86175 141.215357,185.85435 C139.474071,184.8433 137.244643,185.4419 136.235571,187.19025 L125.317929,206.1374 C124.687714,207.2324 124.6695,208.57925 125.266929,209.6925 C125.864357,210.80575 126.993643,211.5321 128.257714,211.6051 L134.570786,211.9847 L138.057,217.27355 C138.730929,218.2992 139.874786,218.9124 141.095143,218.9124 L141.208071,218.9124 C142.464857,218.87225 143.619643,218.1824 144.2535,217.0874 L155.047286,198.3556 C156.052714,196.6109 155.455286,194.3771 153.710357,193.3697 L153.710357,193.3697 Z M62.3147143,169.4476 C63.2108571,171.2507 65.4002143,171.9807 67.1997857,171.0828 C68.9993571,170.18125 69.7315714,167.9876 68.8281429,166.1845 C65.2217143,158.9575 64.413,152.4751 66.657,148.83605 C67.8518571,146.8979 69.9355714,145.91605 72.8571429,145.91605 C74.5947857,145.91605 75.2432143,146.51465 75.6512143,147.09865 C78.3651429,151.01875 75.786,162.9579 73.0866429,170.1849 C72.4855714,171.79455 73.0866429,173.60495 74.5292143,174.5357 C75.9645,175.45915 77.8624286,175.2584 79.0755,174.0466 C80.631,172.4917 82.3176429,170.94045 83.7857143,169.6812 L83.7857143,171.46605 C83.7857143,172.94065 84.6709286,174.2729 86.0333571,174.835 C87.3957857,175.4044 88.9585714,175.0905 90.0040714,174.0466 C91.6688571,172.3822 93.5995714,170.75065 95.2242857,169.57535 C95.1805714,169.6666 95.1368571,169.7542 95.0931429,169.83815 C94.5357857,170.96965 94.5977143,172.31285 95.2607143,173.38595 C95.9273571,174.45905 97.0967143,175.11605 98.3571429,175.11605 L112.928571,175.11605 C114.943071,175.11605 116.571429,173.48085 116.571429,171.46605 C116.571429,169.45125 114.943071,167.81605 112.928571,167.81605 L103.446214,167.81605 C103.741286,166.07865 103.668429,164.31205 102.7905,162.88855 C101.861571,161.3811 100.244143,160.51605 98.3571429,160.51605 C96.1058571,160.51605 93.4575,161.88845 91.0386429,163.58935 C90.8528571,161.99795 89.913,160.6876 88.485,160.0963 C87.5123571,159.6948 86.2592143,159.1692 83.2174286,160.99785 C84.4159286,154.7089 84.7656429,147.46 81.6400714,142.9413 C80.274,140.96665 77.6438571,138.61605 72.8571429,138.61605 C67.4001429,138.61605 62.9959286,140.8827 60.4568571,144.9999 C56.8249286,150.891 57.4988571,159.80065 62.3147143,169.4476 L62.3147143,169.4476 Z M116.571429,197.01605 L47.3571429,197.01605 C41.3318571,197.01605 36.4285714,192.10315 36.4285714,186.06605 L36.4285714,18.16605 C36.4285714,16.15125 34.8002143,14.51605 32.7857143,14.51605 C22.7423571,14.51605 14.5714286,22.703 14.5714286,32.76605 C14.5714286,34.78085 16.1997857,36.41605 18.2142857,36.41605 C20.2287857,36.41605 21.8571429,34.78085 21.8571429,32.76605 C21.8571429,28.00645 24.9025714,23.94765 29.1428571,22.4402 L29.1428571,186.06605 C29.1428571,196.1291 37.3137857,204.31605 47.3571429,204.31605 L116.571429,204.31605 C118.585929,204.31605 120.214286,202.68085 120.214286,200.66605 C120.214286,198.65125 118.585929,197.01605 116.571429,197.01605 L116.571429,197.01605 Z" id="diploma-copy" sketch:type="MSShapeGroup"></path>
            </g>
        </g>
    </g>
</svg>