<?xml version="1.0" encoding="UTF-8" standalone="no"?>
<svg width="227px" height="228px" viewBox="0 0 227 228" version="1.1" xmlns="http://www.w3.org/2000/svg" xmlns:xlink="http://www.w3.org/1999/xlink" xmlns:sketch="http://www.bohemiancoding.com/sketch/ns">
    <!-- Generator: Sketch 3.5.2 (25235) - http://www.bohemiancoding.com/sketch -->
    <title>government</title>
    <desc>Created with Sketch.</desc>
    <defs></defs>
    <g id="Desktop" stroke="none" stroke-width="1" fill="none" fill-rule="evenodd" sketch:type="MSPage">
        <g id="Timeline---Desktop" sketch:type="MSArtboardGroup" transform="translate(0.000000, -5916.000000)" fill="#EDE9E4">
            <g id="Group-5" sketch:type="MSLayerGroup" transform="translate(-1.000000, 5916.000000)">
                <path d="M224.2,83.6 C222.0986,83.6 220.4,85.3024 220.4,87.4 L220.4,91.2 L7.6,91.2 L7.6,87.4 C7.6,85.3024 5.9014,83.6 3.8,83.6 C1.6986,83.6 0,85.3024 0,87.4 L0,224.2 C0,226.2976 1.6986,228 3.8,228 L64.6,228 C66.7014,228 68.4,226.2976 68.4,224.2 L68.4,209 C68.4,204.8086 64.9876,201.4 60.8,201.4 C59.4168,201.4 58.1172,201.7724 57,202.4222 C54.7656,201.1226 51.6344,201.1226 49.4,202.4222 C47.1656,201.1226 44.0344,201.1226 41.8,202.4222 C39.5656,201.1226 36.4344,201.1226 34.2,202.4222 C31.9656,201.1226 28.8344,201.1226 26.6,202.4222 C24.3656,201.1226 21.2344,201.1226 19,202.4222 C16.7656,201.1226 13.6344,201.1226 11.4,202.4222 C10.2828,201.7724 8.9832,201.4 7.6,201.4 L7.6,98.8 L220.4,98.8 L220.4,201.4 C219.0168,201.4 217.7172,201.7724 216.6,202.4222 C214.3656,201.1226 211.2344,201.1226 209,202.4222 C206.7656,201.1226 203.6344,201.1226 201.4,202.4222 C199.1656,201.1226 196.0344,201.1226 193.8,202.4222 C191.5656,201.1226 188.4344,201.1226 186.2,202.4222 C183.9656,201.1226 180.8344,201.1226 178.6,202.4222 C176.3656,201.1226 173.2344,201.1226 171,202.4222 C169.8828,201.7724 168.5832,201.4 167.2,201.4 C163.0086,201.4 159.6,204.8086 159.6,209 L159.6,224.2 C159.6,226.2976 161.2986,228 163.4,228 L224.2,228 C226.3014,228 228,226.2976 228,224.2 L228,87.4 C228,85.3024 226.3014,83.6 224.2,83.6 L224.2,83.6 Z M11.4,212.8 C13.5014,212.8 15.2,211.0976 15.2,209 C15.2,211.0976 16.8986,212.8 19,212.8 C21.1014,212.8 22.8,211.0976 22.8,209 C22.8,211.0976 24.4986,212.8 26.6,212.8 C28.7014,212.8 30.4,211.0976 30.4,209 C30.4,211.0976 32.0986,212.8 34.2,212.8 C36.3014,212.8 38,211.0976 38,209 C38,211.0976 39.6986,212.8 41.8,212.8 C43.9014,212.8 45.6,211.0976 45.6,209 C45.6,211.0976 47.2986,212.8 49.4,212.8 C51.5014,212.8 53.2,211.0976 53.2,209 C53.2,211.0976 54.8986,212.8 57,212.8 C59.1014,212.8 60.8,211.0976 60.8,209 L60.8,220.4 L7.6,220.4 L7.6,209 C7.6,211.0976 9.2986,212.8 11.4,212.8 L11.4,212.8 Z M220.4,220.4 L167.2,220.4 L167.2,209 C167.2,211.0976 168.8986,212.8 171,212.8 C173.1014,212.8 174.8,211.0976 174.8,209 C174.8,211.0976 176.4986,212.8 178.6,212.8 C180.7014,212.8 182.4,211.0976 182.4,209 C182.4,211.0976 184.0986,212.8 186.2,212.8 C188.3014,212.8 190,211.0976 190,209 C190,211.0976 191.6986,212.8 193.8,212.8 C195.9014,212.8 197.6,211.0976 197.6,209 C197.6,211.0976 199.2986,212.8 201.4,212.8 C203.5014,212.8 205.2,211.0976 205.2,209 C205.2,211.0976 206.8986,212.8 209,212.8 C211.1014,212.8 212.8,211.0976 212.8,209 C212.8,211.0976 214.4986,212.8 216.6,212.8 C218.7014,212.8 220.4,211.0976 220.4,209 L220.4,220.4 L220.4,220.4 Z M182.4,186.2 C182.4,188.2976 184.0986,190 186.2,190 L201.4,190 C203.5014,190 205.2,188.2976 205.2,186.2 L205.2,163.4 C205.2,161.3024 203.5014,159.6 201.4,159.6 L186.2,159.6 C184.0986,159.6 182.4,161.3024 182.4,163.4 L182.4,186.2 L182.4,186.2 Z M190,167.2 L197.6,167.2 L197.6,182.4 L190,182.4 L190,167.2 Z M186.2,144.4 L201.4,144.4 C203.5014,144.4 205.2,142.6976 205.2,140.6 L205.2,125.4 C205.2,119.1148 200.0852,114 193.8,114 C187.5148,114 182.4,119.1148 182.4,125.4 L182.4,140.6 C182.4,142.6976 184.0986,144.4 186.2,144.4 L186.2,144.4 Z M190,125.4 C190,123.3062 191.7024,121.6 193.8,121.6 C195.8976,121.6 197.6,123.3062 197.6,125.4 L197.6,136.8 L190,136.8 L190,125.4 L190,125.4 Z M41.8,159.6 L26.6,159.6 C24.4986,159.6 22.8,161.3024 22.8,163.4 L22.8,186.2 C22.8,188.2976 24.4986,190 26.6,190 L41.8,190 C43.9014,190 45.6,188.2976 45.6,186.2 L45.6,163.4 C45.6,161.3024 43.9014,159.6 41.8,159.6 L41.8,159.6 Z M30.4,167.2 L38,167.2 L38,182.4 L30.4,182.4 L30.4,167.2 Z M45.6,125.4 C45.6,119.1148 40.4852,114 34.2,114 C27.9148,114 22.8,119.1148 22.8,125.4 L22.8,140.6 C22.8,142.6976 24.4986,144.4 26.6,144.4 L41.8,144.4 C43.9014,144.4 45.6,142.6976 45.6,140.6 L45.6,125.4 L45.6,125.4 Z M38,136.8 L30.4,136.8 L30.4,125.4 C30.4,123.3062 32.1024,121.6 34.2,121.6 C36.2976,121.6 38,123.3062 38,125.4 L38,136.8 L38,136.8 Z M163.4,144.4 C165.5014,144.4 167.2,142.6976 167.2,140.6 L167.2,125.4 C167.2,119.1148 162.0852,114 155.8,114 C149.5148,114 144.4,119.1148 144.4,125.4 L144.4,140.6 C144.4,142.6976 146.0986,144.4 148.2,144.4 L163.4,144.4 L163.4,144.4 Z M152,125.4 C152,123.3062 153.7024,121.6 155.8,121.6 C157.8976,121.6 159.6,123.3062 159.6,125.4 L159.6,136.8 L152,136.8 L152,125.4 L152,125.4 Z M121.6,144.4 C123.7014,144.4 125.4,142.6976 125.4,140.6 L125.4,125.4 C125.4,119.1148 120.2852,114 114,114 C107.7148,114 102.6,119.1148 102.6,125.4 L102.6,140.6 C102.6,142.6976 104.2986,144.4 106.4,144.4 L121.6,144.4 L121.6,144.4 Z M110.2,125.4 C110.2,123.3062 111.9024,121.6 114,121.6 C116.0976,121.6 117.8,123.3062 117.8,125.4 L117.8,136.8 L110.2,136.8 L110.2,125.4 L110.2,125.4 Z M83.6,140.6 L83.6,125.4 C83.6,119.1148 78.4852,114 72.2,114 C65.9148,114 60.8,119.1148 60.8,125.4 L60.8,140.6 C60.8,142.6976 62.4986,144.4 64.6,144.4 L79.8,144.4 C81.9014,144.4 83.6,142.6976 83.6,140.6 L83.6,140.6 Z M76,136.8 L68.4,136.8 L68.4,125.4 C68.4,123.3062 70.1024,121.6 72.2,121.6 C74.2976,121.6 76,123.3062 76,125.4 L76,136.8 L76,136.8 Z M152,216.6 L152,224.2 C152,226.2976 150.3014,228 148.2,228 C146.0986,228 144.4,226.2976 144.4,224.2 L144.4,220.4 L83.6,220.4 L83.6,224.2 C83.6,226.2976 81.9014,228 79.8,228 C77.6986,228 76,226.2976 76,224.2 L76,216.6 C76,214.5024 77.6986,212.8 79.8,212.8 L148.2,212.8 C150.3014,212.8 152,214.5024 152,216.6 L152,216.6 Z M68.4,79.8 C68.4,57.152 86.1232,39.8278 110.2,38.1634 L110.2,3.8 C110.2,1.7024 111.8986,0 114,0 L144.4,0 C146.5014,0 148.2,1.7024 148.2,3.8 L148.2,19 C148.2,21.0976 146.5014,22.8 144.4,22.8 L129.2,22.8 C127.0986,22.8 125.4,21.0976 125.4,19 C125.4,16.9024 127.0986,15.2 129.2,15.2 L140.6,15.2 L140.6,7.6 L117.8,7.6 L117.8,38.1634 C141.8768,39.8278 159.6,57.152 159.6,79.8 C159.6,81.8976 157.9014,83.6 155.8,83.6 C153.6986,83.6 152,81.8976 152,79.8 C152,63.5702 141.2688,50.996 125.2898,46.9718 C130.8416,53.5914 136.8,64.2808 136.8,79.8 C136.8,81.8976 135.1014,83.6 133,83.6 C130.8986,83.6 129.2,81.8976 129.2,79.8 C129.2,60.5644 118.4688,50.0346 113.9848,46.4702 C109.459,50.0422 98.8,60.4922 98.8,79.8 C98.8,81.8976 97.1014,83.6 95,83.6 C92.8986,83.6 91.2,81.8976 91.2,79.8 C91.2,64.2808 97.1584,53.5914 102.7102,46.9718 C86.7312,50.996 76,63.5702 76,79.8 C76,81.8976 74.3014,83.6 72.2,83.6 C70.0986,83.6 68.4,81.8976 68.4,79.8 L68.4,79.8 Z M152,163.4 C152,165.4976 150.3014,167.2 148.2,167.2 L144.4,167.2 L144.4,201.4 C144.4,203.4976 142.7014,205.2 140.6,205.2 C138.4986,205.2 136.8,203.4976 136.8,201.4 L136.8,167.2 L117.8,167.2 L117.8,182.4 C119.9014,182.4 121.6,184.1024 121.6,186.2 C121.6,188.2976 119.9014,190 117.8,190 L117.8,201.4 C117.8,203.4976 116.1014,205.2 114,205.2 C111.8986,205.2 110.2,203.4976 110.2,201.4 L110.2,190 C108.0986,190 106.4,188.2976 106.4,186.2 C106.4,184.1024 108.0986,182.4 110.2,182.4 L110.2,167.2 L91.2,167.2 L91.2,201.4 C91.2,203.4976 89.5014,205.2 87.4,205.2 C85.2986,205.2 83.6,203.4976 83.6,201.4 L83.6,167.2 L79.8,167.2 C77.6986,167.2 76,165.4976 76,163.4 C76,161.3024 77.6986,159.6 79.8,159.6 L148.2,159.6 C150.3014,159.6 152,161.3024 152,163.4 L152,163.4 Z" id="government" sketch:type="MSShapeGroup"></path>
            </g>
        </g>
    </g>
</svg>