<?xml version="1.0" encoding="UTF-8" standalone="no"?>
<svg width="192px" height="206px" viewBox="0 0 192 206" version="1.1" xmlns="http://www.w3.org/2000/svg" xmlns:xlink="http://www.w3.org/1999/xlink" xmlns:sketch="http://www.bohemiancoding.com/sketch/ns">
    <!-- Generator: Sketch 3.5.2 (25235) - http://www.bohemiancoding.com/sketch -->
    <title>grandmother</title>
    <desc>Created with Sketch.</desc>
    <defs></defs>
    <g id="Desktop" stroke="none" stroke-width="1" fill="none" fill-rule="evenodd" sketch:type="MSPage">
        <g id="Timeline---Desktop" sketch:type="MSArtboardGroup" transform="translate(0.000000, -2328.000000)" fill="#EDE9E4">
            <path d="M34.0684841,2441.29801 L34.0684841,2448.16455 C34.0684841,2450.05972 35.6065904,2451.59782 37.501757,2451.59782 C39.3969236,2451.59782 40.9350299,2450.05972 40.9350299,2448.16455 L40.9350299,2441.29801 C40.9350299,2439.40284 39.3969236,2437.86473 37.501757,2437.86473 C35.6065904,2437.86473 34.0684841,2439.40284 34.0684841,2441.29801 M62.0153254,2491.28646 C62.0153254,2490.39381 61.6376654,2489.50116 60.9853435,2488.88317 C59.7150326,2487.57852 57.4147397,2487.57852 56.1444288,2488.88317 C55.4921069,2489.50116 55.1487796,2490.39381 55.1487796,2491.28646 C55.1487796,2492.21344 55.4921069,2493.07176 56.1444288,2493.72408 C56.7967506,2494.3764 57.6550688,2494.71973 58.5820525,2494.71973 C59.4747035,2494.71973 60.3673544,2494.3764 60.9853435,2493.72408 C61.6376654,2493.07176 62.0153254,2492.21344 62.0153254,2491.28646 M62.2556545,2504.81355 C63.1483054,2504.81355 64.0409564,2504.43589 64.6589455,2503.8179 C65.3112674,2503.16558 65.6545946,2502.30726 65.6545946,2501.38028 C65.6545946,2500.48763 65.3112674,2499.59498 64.6589455,2498.94266 C63.3886345,2497.67235 61.0883417,2497.67235 59.8180307,2498.94266 C59.1657089,2499.59498 58.8223816,2500.48763 58.8223816,2501.38028 C58.8223816,2502.30726 59.1657089,2503.16558 59.8180307,2503.8179 C60.4360199,2504.43589 61.3286708,2504.81355 62.2556545,2504.81355 M66.7189092,2507.18251 C66.0665874,2507.83483 65.6889274,2508.69315 65.6889274,2509.62014 C65.6889274,2510.51279 66.0665874,2511.40544 66.7189092,2512.02343 C67.3712311,2512.67575 68.2295493,2513.05341 69.156533,2513.05341 C70.0491839,2513.05341 70.9418349,2512.67575 71.559824,2512.02343 C72.2121459,2511.40544 72.5554731,2510.51279 72.5554731,2509.62014 C72.5554731,2508.69315 72.2121459,2507.8005 71.559824,2507.18251 C70.289513,2505.9122 67.9892202,2505.9122 66.7189092,2507.18251 M191.82394,2529.47819 L188.390667,2519.17837 C184.81663,2508.45282 163.259109,2492.9413 133.633398,2492.9413 C132.232622,2492.9413 130.972611,2493.79275 130.447321,2495.08709 C130.320289,2495.40982 117.163988,2527.12983 89.0008503,2527.12983 C60.8411461,2527.12983 47.6848444,2495.27249 47.55438,2494.94976 C47.0290892,2493.65198 45.7690781,2492.7971 44.3683028,2492.7971 C1.720187,2492.7971 -8.32556946,2512.98818 -10.3889665,2519.17837 L-13.8222393,2529.47819 C-14.4230621,2531.27722 -13.4480126,2533.22045 -11.6489776,2533.82128 C-9.84650935,2534.42553 -7.90671017,2533.44705 -7.30588741,2531.64801 L-3.87261453,2521.3482 C-0.466807829,2511.12391 13.4173477,2500.21983 42.1469752,2499.68424 C45.8858094,2507.61167 60.4840857,2533.99637 89.0008503,2533.99637 C117.497015,2533.99637 132.091858,2507.75244 135.847859,2499.83874 C161.618005,2500.57689 179.436691,2514.03876 181.874315,2521.3482 L185.307588,2531.64801 C185.788246,2533.08656 187.127223,2533.99637 188.565764,2533.99637 C188.922824,2533.99637 189.290184,2533.94144 189.650678,2533.82128 C191.449713,2533.22045 192.424763,2531.27722 191.82394,2529.47819 M137.066671,2441.29801 L137.066671,2448.16455 C137.066671,2450.05972 138.604777,2451.59782 140.499944,2451.59782 C142.39511,2451.59782 143.933216,2450.05972 143.933216,2448.16455 L143.933216,2441.29801 C143.933216,2439.40284 142.39511,2437.86473 140.499944,2437.86473 C138.604777,2437.86473 137.066671,2439.40284 137.066671,2441.29801 M71.8344858,2424.13164 C73.7296525,2424.13164 75.2677587,2422.59353 75.2677587,2420.69837 L75.2677587,2418.43927 C75.4874882,2418.65214 75.6385522,2418.82723 75.6557186,2418.85127 C76.2668411,2420.02545 77.4650534,2420.69837 78.7044649,2420.69837 C79.2366222,2420.69837 79.7790793,2420.57477 80.2872037,2420.31041 C81.9695074,2419.43492 82.6218292,2417.36123 81.7463447,2415.67892 C80.7266626,2413.71852 77.4890863,2410.39855 71.8344858,2410.39855 C66.1798854,2410.39855 62.9423091,2413.71852 61.922627,2415.67892 C61.0677421,2417.32346 61.6994643,2419.28729 63.3131025,2420.19711 C64.9267408,2421.11723 66.9970043,2420.52327 67.9651873,2418.94053 C67.9960868,2418.88903 68.1643171,2418.6899 68.401213,2418.45987 L68.401213,2420.69837 C68.401213,2422.59353 69.9393192,2424.13164 71.8344858,2424.13164 M106.167215,2424.13164 C108.062381,2424.13164 109.600488,2422.59353 109.600488,2420.69837 L109.600488,2418.43927 C109.820217,2418.65214 109.971281,2418.82723 109.988447,2418.85127 C110.59957,2420.02545 111.797782,2420.69837 113.037194,2420.69837 C113.569351,2420.69837 114.111808,2420.57477 114.619933,2420.31041 C116.302236,2419.43492 116.954558,2417.36123 116.079073,2415.67892 C115.059391,2413.71852 111.821815,2410.39855 106.167215,2410.39855 C100.512614,2410.39855 97.2750379,2413.71852 96.2553559,2415.67892 C95.4004709,2417.32346 96.0321931,2419.28729 97.6458314,2420.19711 C99.2594696,2421.11723 101.333166,2420.52327 102.297916,2418.94053 C102.328816,2418.88903 102.497046,2418.6899 102.733942,2418.45987 L102.733942,2420.69837 C102.733942,2422.59353 104.272048,2424.13164 106.167215,2424.13164 M89.0008503,2461.89764 C97.0587417,2461.89764 101.274801,2457.91161 101.727993,2457.45842 C103.053236,2456.13318 103.049803,2454.01141 101.745159,2452.66557 C100.443949,2451.31973 98.2809869,2451.28196 96.911111,2452.56601 C96.8046795,2452.66557 94.2159918,2455.0311 89.0008503,2455.0311 C83.8612407,2455.0311 81.272553,2452.73424 81.0940228,2452.56944 C79.7516131,2451.26136 77.6023843,2451.2751 76.2737077,2452.60377 C74.931298,2453.94618 74.931298,2456.11601 76.2737077,2457.45842 C76.7268997,2457.91161 80.9429588,2461.89764 89.0008503,2461.89764 M121.857272,2493.72408 C122.509594,2493.07176 122.852921,2492.21344 122.852921,2491.28646 C122.852921,2490.39381 122.509594,2489.50116 121.857272,2488.84883 C120.586961,2487.57852 118.286668,2487.61286 117.016357,2488.88317 C116.364035,2489.50116 115.986375,2490.39381 115.986375,2491.28646 C115.986375,2492.21344 116.364035,2493.07176 117.016357,2493.72408 C117.634346,2494.3764 118.526997,2494.71973 119.419648,2494.71973 C120.346632,2494.71973 121.20495,2494.3764 121.857272,2493.72408 M113.342755,2498.94266 C112.690433,2499.59498 112.347106,2500.48763 112.347106,2501.38028 C112.347106,2502.30726 112.690433,2503.16558 113.342755,2503.8179 C113.995077,2504.43589 114.853395,2504.81355 115.746046,2504.81355 C116.67303,2504.81355 117.531348,2504.43589 118.18367,2503.8179 C118.835992,2503.16558 119.179319,2502.30726 119.179319,2501.38028 C119.179319,2500.48763 118.835992,2499.59498 118.18367,2498.94266 C116.913359,2497.67235 114.613066,2497.67235 113.342755,2498.94266 M-0.264244729,2420.69837 C-0.264244729,2428.28247 2.45147412,2435.44771 7.41941999,2441.09201 C6.87696287,2443.40947 6.60230104,2445.77843 6.60230104,2448.16455 C6.60230104,2465.20045 20.4658569,2479.06401 37.501757,2479.06401 C40.1144777,2479.06401 42.7134652,2478.73441 45.2231877,2478.08552 C47.0599887,2477.61173 48.1620693,2475.7406 47.6882776,2473.9038 C47.214486,2472.067 45.3433523,2470.96492 43.5065513,2471.43871 C41.5564523,2471.9434 39.5376878,2472.19746 37.501757,2472.19746 C24.2493237,2472.19746 13.4688468,2461.41698 13.4688468,2448.16455 C13.4688468,2445.78186 13.8224739,2443.41977 14.515995,2441.14007 C14.8867885,2439.9247 14.5571943,2438.60632 13.6576768,2437.71024 C9.10859024,2433.16458 6.60230104,2427.12545 6.60230104,2420.69837 C6.60230104,2412.9529 10.3926343,2405.62973 16.7407559,2401.11498 C18.2616958,2400.0335 18.6393558,2397.9392 17.5922075,2396.3908 C14.8936551,2392.41163 13.4688468,2387.75611 13.4688468,2382.93237 C13.4688468,2371.3279 21.7533343,2361.39545 33.1621001,2359.31488 C34.1405828,2359.13292 34.9954678,2358.53896 35.5001589,2357.68408 C43.1391911,2344.75437 51.9524026,2334.86655 89.3682105,2334.86655 C118.221436,2334.86655 141.248397,2344.31491 146.666102,2358.3776 C147.023162,2359.30458 147.764749,2360.029 148.698599,2360.3689 C158.167566,2363.81247 164.532854,2372.87974 164.532854,2382.93237 C164.532854,2387.75611 163.108045,2392.41163 160.409493,2396.3908 C159.362345,2397.9392 159.740005,2400.0335 161.260945,2401.11498 C167.609066,2405.62973 171.399399,2412.9529 171.399399,2420.69837 C171.399399,2427.12545 168.89311,2433.16458 164.344024,2437.71024 C163.444506,2438.60632 163.114912,2439.9247 163.485705,2441.14007 C164.179227,2443.41977 164.532854,2445.78186 164.532854,2448.16455 C164.532854,2461.41698 153.752377,2472.19746 140.499944,2472.19746 C138.481179,2472.19746 136.476148,2471.94683 134.539782,2471.45244 C132.699548,2470.97522 130.83528,2472.0876 130.364922,2473.9244 C129.894564,2475.76463 131.003511,2477.63233 132.840312,2478.10269 C135.332868,2478.74128 137.907822,2479.06401 140.499944,2479.06401 C157.535844,2479.06401 171.399399,2465.20045 171.399399,2448.16455 C171.399399,2445.77843 171.124738,2443.40947 170.582281,2441.09201 C175.550226,2435.44771 178.265945,2428.28247 178.265945,2420.69837 C178.265945,2411.80276 174.386347,2403.34661 167.74983,2397.50661 C170.146255,2393.03992 171.399399,2388.06168 171.399399,2382.93237 C171.399399,2370.51422 163.856499,2359.26682 152.471766,2354.47397 C145.114262,2338.34102 120.621294,2328 89.3682105,2328 C53.0888159,2328 40.2895746,2336.73081 30.3777158,2352.88436 C16.5072933,2356.1494 6.60230104,2368.54352 6.60230104,2382.93237 C6.60230104,2388.06168 7.85544564,2393.03992 10.2518701,2397.50661 C3.61535363,2403.34661 -0.264244729,2411.80276 -0.264244729,2420.69837 M86.5632265,2514.39238 C85.9452374,2515.04471 85.5675774,2515.93736 85.5675774,2516.83001 C85.5675774,2517.72266 85.9452374,2518.61531 86.5632265,2519.26763 C87.2155484,2519.88562 88.1081993,2520.26328 89.0008503,2520.26328 C89.8935012,2520.26328 90.7861522,2519.88562 91.438474,2519.26763 C92.0564631,2518.61531 92.4341231,2517.72266 92.4341231,2516.83001 C92.4341231,2515.93736 92.0564631,2515.04471 91.438474,2514.39238 C90.168163,2513.12207 87.8335375,2513.12207 86.5632265,2514.39238 M97.137707,2512.53842 C96.4853851,2513.19074 96.1420579,2514.04906 96.1420579,2514.97604 C96.1420579,2515.86869 96.5197179,2516.76134 97.137707,2517.37933 C97.7900288,2518.03165 98.6826798,2518.40931 99.5753307,2518.40931 C100.467982,2518.40931 101.360633,2518.03165 101.978622,2517.37933 C102.630944,2516.76134 103.008604,2515.86869 103.008604,2514.97604 C103.008604,2514.04906 102.630944,2513.19074 101.978622,2512.53842 C100.708311,2511.26811 98.408018,2511.26811 97.137707,2512.53842 M75.988746,2512.53842 C75.3707569,2513.19074 74.9930969,2514.04906 74.9930969,2514.97604 C74.9930969,2515.86869 75.3707569,2516.76134 75.988746,2517.41367 C76.6410679,2518.03165 77.5337188,2518.40931 78.4263698,2518.40931 C79.3533535,2518.40931 80.2116717,2518.03165 80.8639935,2517.41367 C81.5163154,2516.76134 81.8596427,2515.86869 81.8596427,2514.97604 C81.8596427,2514.08339 81.5163154,2513.19074 80.8639935,2512.53842 C79.5936826,2511.26811 77.2933897,2511.26811 75.988746,2512.53842 M143.933216,2406.96528 C143.933216,2405.88723 143.425092,2404.87098 142.563341,2404.22209 C139.123201,2401.62997 130.200125,2393.37638 130.200125,2386.36564 C130.200125,2384.47047 128.662019,2382.93237 126.766852,2382.93237 C124.871685,2382.93237 123.333579,2384.47047 123.333579,2386.36564 C123.333579,2396.29466 133.13214,2405.37567 137.018605,2408.58578 C136.280451,2422.05451 126.993448,2446.89767 123.694073,2453.49642 C120.614427,2459.65915 104.320114,2479.06401 89.0008503,2479.06401 C73.6815866,2479.06401 57.3872735,2459.65915 54.3076278,2453.49642 C50.8709216,2446.62301 40.9350299,2419.94991 40.9350299,2406.96528 L40.9350299,2396.61396 C54.5479569,2396.29123 104.230849,2393.82614 128.826816,2375.37917 C130.344322,2374.24275 130.649884,2372.09009 129.51347,2370.57258 C128.377057,2369.05851 126.227828,2368.74952 124.706888,2369.88593 C98.4801167,2389.55515 38.1094463,2389.79891 37.501757,2389.79891 C35.6065904,2389.79891 34.0684841,2391.33702 34.0684841,2393.23218 L34.0684841,2406.96528 C34.0684841,2421.70088 44.8798604,2450.00135 48.1620693,2456.56577 C52.3437957,2464.92236 70.6259738,2485.93055 89.0008503,2485.93055 C107.375727,2485.93055 125.657905,2464.92236 129.839631,2456.56577 C133.12184,2450.00135 143.933216,2421.70088 143.933216,2406.96528 M111.282791,2507.18251 C111.935113,2507.8005 112.27844,2508.69315 112.27844,2509.5858 C112.27844,2510.51279 111.935113,2511.40544 111.282791,2512.02343 C110.664802,2512.67575 109.772151,2513.01908 108.845168,2513.01908 C107.952517,2513.01908 107.059866,2512.67575 106.441877,2512.02343 C105.789555,2511.3711 105.411895,2510.51279 105.411895,2509.5858 C105.411895,2508.69315 105.789555,2507.8005 106.441877,2507.18251 C107.712187,2505.9122 110.01248,2505.87787 111.282791,2507.18251" id="grandmother" sketch:type="MSShapeGroup"></path>
        </g>
    </g>
</svg>