<?xml version="1.0" encoding="UTF-8" standalone="no"?>
<svg width="414px" height="414px" viewBox="0 0 414 414" version="1.1" xmlns="http://www.w3.org/2000/svg" xmlns:xlink="http://www.w3.org/1999/xlink" xmlns:sketch="http://www.bohemiancoding.com/sketch/ns">
    <!-- Generator: Sketch 3.5.2 (25235) - http://www.bohemiancoding.com/sketch -->
    <title>sailing-wheel</title>
    <desc>Created with Sketch.</desc>
    <defs></defs>
    <g id="Page-1" stroke="none" stroke-width="1" fill="none" fill-rule="evenodd" sketch:type="MSPage">
        <g id="Timeline---Desktop" sketch:type="MSArtboardGroup" transform="translate(-724.000000, -443.000000)" fill="#818591" opacity="0.1">
            <g id="sailing-wheel" sketch:type="MSLayerGroup" transform="translate(724.000000, 443.000000)">
                <path d="M236.324023,86.2899618 C232.639545,85.379177 228.89297,87.6699388 227.996,91.3751771 C227.09903,95.0735154 229.369054,98.8063532 233.074231,99.7033383 C280.468751,111.177847 314.222426,151.921668 317.182427,200.103565 L261.715176,200.103565 C258.582681,175.18808 238.80794,155.41301 213.89287,152.280462 L213.89287,89.7054049 C213.89287,85.8966684 210.808673,82.8055199 206.9931,82.8055199 C149.311023,82.8055199 99.6464785,121.934768 86.2126262,177.954934 C85.3225559,181.660172 87.6063798,185.38611 91.3115563,186.276195 C91.8566381,186.407293 92.4017199,186.462492 92.9330022,186.462492 C96.0516983,186.462492 98.8737042,184.337328 99.6326789,181.17028 C111.031099,133.630073 151.80184,99.7723371 200.09333,96.8191863 L200.09333,152.280462 C175.178261,155.41301 155.40352,175.18808 152.271024,200.103565 L89.6970101,200.103565 C85.8814373,200.103565 82.7972401,203.194713 82.7972401,207.00345 C82.7972401,264.341494 121.636045,313.937868 177.241292,327.61344 C177.800173,327.751437 178.352155,327.813536 178.897237,327.813536 C181.995233,327.813536 184.81034,325.709072 185.583114,322.562724 C186.493884,318.864386 184.237659,315.124648 180.539382,314.213863 C133.358755,302.608257 99.7637745,261.912735 96.8037732,213.903335 L152.271024,213.903335 C155.40352,238.81882 175.178261,258.59389 200.09333,261.726438 L200.09333,324.301495 C200.09333,328.110231 203.177527,331.20138 206.9931,331.20138 C264.392287,331.20138 314.001633,292.313628 327.635579,236.631556 C328.539449,232.926318 326.276324,229.19348 322.578047,228.282695 C318.872871,227.37881 315.140095,229.641973 314.229326,233.347211 C302.665311,280.590723 261.956668,314.234563 213.89287,317.187714 L213.89287,261.726438 C238.80794,258.59389 258.582681,238.81882 261.715176,213.903335 L324.28919,213.903335 C328.104763,213.903335 331.18896,210.812186 331.18896,207.00345 C331.18896,149.458409 292.184561,99.8137364 236.324023,86.2899618 L236.324023,86.2899618 L236.324023,86.2899618 Z M206.9931,248.40276 C184.161761,248.40276 165.59448,229.835169 165.59448,207.00345 C165.59448,184.17173 184.161761,165.60414 206.9931,165.60414 C229.824439,165.60414 248.39172,184.17173 248.39172,207.00345 C248.39172,229.835169 229.824439,248.40276 206.9931,248.40276 L206.9931,248.40276 L206.9931,248.40276 Z M407.10023,200.089765 L386.41472,200.089765 C386.40092,196.287929 383.323623,193.20368 379.51495,193.20368 C375.706276,193.20368 372.628979,196.287929 372.615179,200.089765 L358.615546,200.089765 C357.59438,177.492642 351.59158,156.171997 341.70421,137.183514 L353.868504,130.159431 L353.875404,130.17323 C355.158761,132.388094 357.477084,133.623173 359.857505,133.623173 C361.030466,133.623173 362.217226,133.326478 363.30049,132.698588 C366.60548,130.79422 367.737042,126.57839 365.825806,123.273345 L365.818906,123.259546 L383.730709,112.916618 C387.035699,111.01225 388.167261,106.78952 386.256025,103.491375 C384.344789,100.18633 380.115229,99.0547491 376.830939,100.966017 L358.919136,111.308945 C357.0079,108.0177 352.78524,106.893018 349.50095,108.797387 C346.20976,110.694855 345.078197,114.903785 346.968734,118.20883 L334.783741,125.239813 C322.936835,106.78262 307.19846,91.0508825 288.741575,79.1968801 L295.772441,67.0254829 L295.78624,67.0323828 C296.869504,67.6602723 298.056265,67.9569674 299.229226,67.9569674 C301.616546,67.9569674 303.934869,66.7149881 305.211326,64.5070249 C307.122563,61.20198 305.991,56.9861502 302.68601,55.0748821 L302.672211,55.0679822 L313.014966,37.1558807 C314.926202,33.8508358 313.78774,29.6350061 310.48965,27.7306378 C307.19846,25.8262696 302.968901,26.9509508 301.064565,30.2559957 L290.721809,48.1680972 C287.416819,46.2775287 283.21486,47.40221 281.303623,50.7072549 C279.399287,53.9985 280.530849,58.2074299 283.822039,60.118698 L276.798073,72.2831953 C257.809906,62.3956601 236.489617,56.39966 213.89287,55.378477 L213.89287,41.3924101 L213.90667,41.3924101 C217.722243,41.3924101 220.80644,38.3012616 220.80644,34.4925251 C220.80644,30.6837886 217.722243,27.5926401 213.90667,27.5926401 L213.89287,27.5926401 L213.89287,6.899885 C213.89287,3.09114848 210.808673,0 206.9931,0 C203.177527,0 200.09333,3.09114848 200.09333,6.899885 L200.09333,27.5926401 C196.284657,27.59954 193.20736,30.6837886 193.20736,34.4925251 C193.20736,38.3012616 196.284657,41.3855102 200.09333,41.3924101 L200.09333,55.378477 C177.496583,56.39966 156.176294,62.3956601 137.188127,72.2831953 L130.171061,60.1324978 L130.177961,60.1324978 C133.482951,58.2281295 134.614513,54.0053999 132.703277,50.7072549 C130.79204,47.40221 126.569381,46.2775287 123.278191,48.1749971 L123.271291,48.181897 L112.921636,30.2628956 C111.0104,26.9578507 106.78774,25.8262696 103.49655,27.7375377 C100.19846,29.641906 99.059998,33.8646356 100.971234,37.1627806 L111.320889,55.081782 C108.022799,56.9930501 106.891237,61.2088799 108.802473,64.5070249 C110.078931,66.7149881 112.397253,67.9569674 114.784574,67.9569674 C115.957535,67.9569674 117.137395,67.6602723 118.220659,67.0323828 L125.237725,79.1968801 C106.780841,91.0508825 91.0424653,106.78952 79.1886604,125.246713 L67.0312656,118.22953 L67.0381654,118.22263 C68.9425019,114.917585 67.8109396,110.701755 64.5128496,108.797387 C61.2078597,106.886119 56.9921003,108.0177 55.080864,111.322745 L55.0739642,111.329645 L37.1552615,100.979817 C33.8502717,99.0685489 29.6345122,100.20013 27.7301757,103.505175 C25.8189394,106.80332 26.9505016,111.02605 30.2554915,112.930418 L48.181094,123.280245 C46.2767574,126.58529 47.4083197,130.79422 50.7133096,132.698588 C51.7965734,133.326478 52.9833339,133.623173 54.1562948,133.623173 C56.5367154,133.623173 58.8481384,132.388094 60.1314956,130.18013 L72.2750908,137.190413 C62.3877204,156.185797 56.3918203,177.499542 55.3706543,200.103565 L41.39862,200.103565 C41.39862,196.294828 38.3144229,193.20368 34.49885,193.20368 C30.6832772,193.20368 27.59908,196.294828 27.59908,200.103565 L6.89977001,200.103565 C3.08419719,200.103565 0,203.194713 0,207.00345 C0,210.812186 3.08419719,213.903335 6.89977001,213.903335 L27.59908,213.903335 C27.59908,217.712071 30.6832772,220.80322 34.49885,220.80322 C38.3144229,220.80322 41.39862,217.712071 41.39862,213.903335 L55.3706543,213.903335 C56.3918203,236.507358 62.3946202,257.828003 72.2819906,276.823386 L60.1383954,283.833669 C58.2202593,280.528625 53.9907003,279.397043 50.7133096,281.308312 C47.4083197,283.21268 46.2767574,287.42851 48.181094,290.733554 L30.269291,301.076482 C26.9643012,302.98085 25.8327389,307.19668 27.7370754,310.501725 C29.0204327,312.716588 31.3387554,313.951667 33.7260758,313.951667 C34.8990367,313.951667 36.0788974,313.654972 37.169061,313.027083 L55.080864,302.684155 C56.3642212,304.899018 58.6825439,306.134098 61.0698643,306.134098 C62.2359255,306.134098 63.4226859,305.837403 64.5128496,305.209513 C67.8109396,303.305145 68.9425019,299.089315 67.0381654,295.78427 L79.1955601,288.767087 C91.049365,307.22428 106.78774,322.956017 125.244625,334.81002 L118.227559,346.974517 C114.922569,345.070149 110.70681,346.20173 108.802473,349.499875 C106.891237,352.80492 108.022799,357.02075 111.327789,358.932018 L100.985034,376.844119 C99.0737975,380.149164 100.20536,384.364994 103.51035,386.269362 C104.593614,386.897252 105.780374,387.193947 106.953335,387.193947 C109.340655,387.193947 111.658978,385.958867 112.935435,383.744004 L123.278191,365.831903 C124.361455,366.452892 125.548215,366.749588 126.721176,366.749588 C129.108496,366.749588 131.426819,365.514508 132.703277,363.299645 C134.614513,360.0015 133.482951,355.77877 130.177961,353.874402 L137.188127,341.730604 C156.190094,351.61124 177.503483,357.61414 200.10713,358.628423 L200.10713,372.61449 C196.291557,372.61449 193.20736,375.705638 193.20736,379.514375 C193.20736,383.323111 196.291557,386.41426 200.10713,386.41426 L200.11403,386.41426 L200.11403,407.100115 C200.11403,410.908852 203.205126,414 207.0138,414 C210.829372,414 213.91357,410.908852 213.91357,407.100115 L213.91357,386.41426 C217.722243,386.40736 220.80644,383.323111 220.80644,379.514375 C220.80644,375.705638 217.722243,372.61449 213.90667,372.61449 L213.90667,358.628423 C236.510316,357.60724 257.823706,351.60434 276.818773,341.716805 L283.842739,353.874402 L283.835839,353.874402 C280.530849,355.77877 279.399287,360.0015 281.303623,363.299645 C282.58698,365.514508 284.905303,366.749588 287.292624,366.749588 C288.465584,366.749588 289.645445,366.452892 290.735609,365.831903 L290.742509,365.825003 L301.085264,383.730204 C302.361721,385.945068 304.680044,387.180147 307.067364,387.180147 C308.240325,387.180147 309.427086,386.883452 310.51035,386.262462 C313.80844,384.351194 314.940002,380.128465 313.035665,376.830319 L302.69291,358.925118 C305.991,357.01385 307.122563,352.79802 305.211326,349.499875 C303.30009,346.20173 299.084331,345.077049 295.79314,346.974517 L288.762275,334.78932 C307.219159,322.942218 322.950635,307.21048 334.79754,288.746388 L346.982534,295.77737 L346.975634,295.78427 C345.071298,299.089315 346.20286,303.305145 349.50095,305.209513 C350.591114,305.837403 351.770974,306.134098 352.943935,306.134098 C355.331256,306.134098 357.649578,304.899018 358.926036,302.684155 L358.932936,302.677255 L376.844739,313.013283 C377.928002,313.641173 379.114763,313.937868 380.287724,313.937868 C382.675044,313.937868 384.993367,312.702788 386.269824,310.487925 C388.181061,307.18288 387.049498,302.967051 383.744509,301.062682 L365.832706,290.719755 C367.730142,287.42161 366.60548,283.20578 363.30049,281.308312 C360.016199,279.403943 355.79354,280.528625 353.882304,283.81987 L341.718009,276.802687 C351.59848,257.807303 357.60128,236.493558 358.615546,213.889535 L372.615179,213.889535 L372.615179,213.903335 C372.615179,217.712071 375.699377,220.80322 379.51495,220.80322 C383.330522,220.80322 386.41472,217.712071 386.41472,213.903335 L386.41472,213.889535 L407.10023,213.889535 C410.915803,213.889535 414,210.798387 414,206.98965 C414,203.180914 410.915803,200.089765 407.10023,200.089765 L407.10023,200.089765 L407.10023,200.089765 Z M206.9931,345.00115 C130.902437,345.00115 68.9977001,283.095382 68.9977001,207.00345 C68.9977001,130.911518 130.902437,69.0057499 206.9931,69.0057499 C283.083764,69.0057499 344.9885,130.911518 344.9885,207.00345 C344.9885,283.095382 283.083764,345.00115 206.9931,345.00115 L206.9931,345.00115 L206.9931,345.00115 Z M220.79264,207.00345 C220.79264,214.614023 214.603547,220.80322 206.9931,220.80322 C199.389554,220.80322 193.19356,214.614023 193.19356,207.00345 C193.19356,199.392877 199.389554,193.20368 206.9931,193.20368 C214.603547,193.20368 220.79264,199.392877 220.79264,207.00345 L220.79264,207.00345 L220.79264,207.00345 Z" sketch:type="MSShapeGroup"></path>
            </g>
        </g>
    </g>
</svg>