<?xml version="1.0" encoding="UTF-8" standalone="no"?>
<svg width="253px" height="253px" viewBox="0 0 253 253" version="1.1" xmlns="http://www.w3.org/2000/svg" xmlns:xlink="http://www.w3.org/1999/xlink" xmlns:sketch="http://www.bohemiancoding.com/sketch/ns">
    <!-- Generator: Sketch 3.5.2 (25235) - http://www.bohemiancoding.com/sketch -->
    <title>son copy</title>
    <desc>Created with Sketch.</desc>
    <defs></defs>
    <g id="Desktop" stroke="none" stroke-width="1" fill="none" fill-rule="evenodd" sketch:type="MSPage">
        <g id="Timeline---Desktop" sketch:type="MSArtboardGroup" transform="translate(-1.000000, -3496.000000)" fill="#EDE9E4">
            <g id="Oval-3-Copy-+--copy-Copy-+-lighthouse-+-Line-Copy-5-+-books-apple-+-Teacher-+-High-School-Gym-Clas-Copy-Copy-+-son-copy-+-photo-copy-7" sketch:type="MSLayerGroup" transform="translate(1.000000, 3496.000000)">
                <path d="M130.843359,139.149764 C130.843359,136.822168 128.958513,134.933104 126.6267,134.933104 L126.584533,134.933104 C124.256937,134.933104 122.388957,136.822168 122.388957,139.149764 C122.388957,141.47736 124.299104,143.366423 126.6267,143.366423 C128.958513,143.366423 130.843359,141.47736 130.843359,139.149764 M147.583498,113.849807 C149.911094,113.849807 151.800157,111.960743 151.800157,109.633147 L156.016817,109.633147 C158.344413,109.633147 160.233476,107.744084 160.233476,105.416488 C160.233476,103.088892 158.344413,101.199828 156.016817,101.199828 L139.150179,101.199828 C136.822583,101.199828 134.933519,103.088892 134.933519,105.416488 C134.933519,107.744084 136.822583,109.633147 139.150179,109.633147 L143.366838,109.633147 C143.366838,111.960743 145.255902,113.849807 147.583498,113.849807 M252.873485,247.758262 L248.568276,230.583808 C246.400913,224.081719 233.603352,203.167088 160.233476,202.597839 L160.233476,198.182997 C160.233476,195.855401 158.344413,193.966337 156.016817,193.966337 C153.689221,193.966337 151.800157,195.855401 151.800157,198.182997 L151.800157,206.616316 C151.800157,206.645832 151.817024,206.671132 151.817024,206.700649 C151.817024,206.725949 151.800157,206.747032 151.800157,206.776549 C151.783291,209.348711 150.935742,231.916273 126.5002,231.916273 C102.064658,231.916273 101.21711,209.192695 101.200243,206.616316 L101.200243,198.182997 C101.200243,195.855401 99.3111797,193.966337 96.9835836,193.966337 C94.6559876,193.966337 92.7669241,195.855401 92.7669241,198.182997 L92.7669241,202.441823 C38.131667,202.871922 10.7655468,211.591974 4.34357437,230.891624 L0.12691487,247.758262 C-0.438117503,250.018392 0.936513494,252.308038 3.19664299,252.87307 C5.44833916,253.438103 7.74220193,252.063472 8.3072343,249.807559 L12.435344,233.248737 C17.3351023,218.553679 43.7187408,211.212474 93.0452237,210.845625 C94.5758711,222.917921 102.785707,240.349592 126.5002,240.349592 C150.210477,240.349592 158.420313,223.023338 159.955177,211.014291 C217.748712,211.440174 237.845311,225.081068 240.476506,232.940921 L244.693166,249.807559 C245.173865,251.721922 246.890046,252.99957 248.779109,252.99957 C249.120658,252.99957 249.462208,252.96162 249.807974,252.87307 C252.068103,252.308038 253.438518,250.018392 252.873485,247.758262 M126.5002,164.449721 C136.3967,164.449721 141.574758,159.554179 142.131357,158.99758 C143.758987,157.369949 143.754771,154.764054 142.156657,153.111123 C140.554326,151.453976 137.897831,151.411809 136.215384,152.98884 C136.084667,153.111123 132.905306,156.016402 126.5002,156.016402 C120.187861,156.016402 117.0085,153.195456 116.789233,152.993057 C115.140519,151.386509 112.500891,151.403376 110.869043,153.035223 C109.224546,154.683937 109.224546,157.348866 110.869043,158.99758 C111.429859,159.554179 116.607917,164.449721 126.5002,164.449721 M118.066881,105.416488 C118.066881,103.088892 116.177818,101.199828 113.850222,101.199828 L96.9835836,101.199828 C94.6559876,101.199828 92.7669241,103.088892 92.7669241,105.416488 C92.7669241,107.744084 94.6559876,109.633147 96.9835836,109.633147 L101.200243,109.633147 C101.200243,111.960743 103.089307,113.849807 105.416903,113.849807 C107.744499,113.849807 109.633562,111.960743 109.633562,109.633147 L113.850222,109.633147 C116.177818,109.633147 118.066881,107.744084 118.066881,105.416488 M50.6003291,113.849807 L50.6003291,96.9831685 C50.6003291,90.0088137 56.2759528,84.33319 63.2503076,84.33319 C65.5779037,84.33319 67.4669671,86.2222535 67.4669671,88.5498495 C67.5049171,89.8907473 67.901283,91.4466946 69.3349473,92.2394266 C72.8727246,85.0753221 75.9002861,78.252767 75.9002861,71.6832115 C75.9002861,69.3556155 77.7893496,67.466552 80.1169456,67.466552 C105.585569,67.466552 145.213735,56.1912045 152.403139,44.2116749 C153.377188,42.588261 155.312635,41.8123956 157.142665,42.3183948 C158.968478,42.8243939 160.233476,44.4899744 160.233476,46.3832545 C160.233476,61.3313125 175.708617,76.9793359 175.864633,77.1353523 C177.513347,78.7840661 177.513347,81.4489949 175.864633,83.0977088 C174.220136,84.7464227 171.55099,84.7464227 169.902276,83.0977088 C169.286644,82.4820765 157.159531,70.2115974 153.107322,55.503889 C137.906264,67.2557191 105.631952,74.946906 84.0553056,75.8155378 C83.009574,83.7597243 79.1808472,91.4256113 75.4575369,98.8680153 C74.7407048,100.297463 73.2817406,101.199828 71.6836266,101.199828 C65.4724872,101.199828 61.9094099,97.8096338 60.2311794,94.0441569 C59.493264,94.8031556 59.0336481,95.8404538 59.0336481,96.9831685 L59.0336481,113.849807 C59.0336481,116.173186 60.9269282,118.066466 63.2503076,118.066466 C65.0676879,118.066466 66.6784518,119.226047 67.2519175,120.950661 C67.332034,121.199444 75.6388532,146.060868 79.6741964,154.131555 C80.3151286,155.413419 95.7270191,185.533018 126.5002,185.533018 C157.273381,185.533018 172.689488,155.413419 173.330421,154.131555 C177.365764,146.060868 185.668366,121.199444 185.748483,120.950661 C186.326165,119.226047 187.936929,118.066466 189.750093,118.066466 C192.073472,118.066466 193.966752,116.173186 193.966752,113.849807 L193.966752,96.9831685 C193.966752,94.6597892 192.073472,92.766509 189.750093,92.766509 C187.422497,92.766509 185.533433,90.8774456 185.533433,88.5498495 L185.533433,63.2498925 C185.529217,61.5337121 184.968401,21.0832975 147.583498,21.0832975 C146.124533,21.0832975 144.766769,20.3242988 143.999337,19.0846009 C143.231905,17.8406864 143.160222,16.2889557 143.813804,14.9817912 C144.636053,13.3330773 144.281853,12.755395 144.142704,12.5403454 C143.202388,11.0139146 138.424913,8.433319 126.5002,8.433319 C59.9908298,8.433319 59.0420814,69.1068326 59.0336481,71.6874282 C59.0294315,74.0150242 57.140368,75.8956544 54.8169886,75.8956544 L54.812772,75.8956544 C52.4851759,75.8956544 50.6003291,74.0108076 50.6003291,71.6832115 C50.6003291,70.9663794 51.468961,0 126.5002,0 C135.536501,0 147.178698,1.40414761 151.319458,8.10441956 C152.04894,9.28930088 152.710956,10.8916315 152.778422,12.8818948 C185.200317,15.8504231 193.966752,46.6025208 193.966752,63.2498925 L193.966752,85.0542388 C198.874944,86.7957192 202.400071,91.4846446 202.400071,96.9831685 L202.400071,113.849807 C202.400071,119.732047 198.364728,124.690838 192.916804,126.099202 C190.656674,132.753091 184.424452,150.796177 180.874024,157.901248 C174.173752,171.297576 155.186135,193.966337 126.5002,193.966337 C97.8142656,193.966337 78.8266478,171.297576 72.1305925,157.901248 C68.5759486,150.796177 62.3437258,132.753091 60.087813,126.099202 C54.6398889,124.690838 50.6003291,119.732047 50.6003291,113.849807" id="son-copy" sketch:type="MSShapeGroup"></path>
            </g>
        </g>
    </g>
</svg>