<?xml version="1.0" encoding="UTF-8" standalone="no"?>
<svg width="260px" height="260px" viewBox="0 0 260 260" version="1.1" xmlns="http://www.w3.org/2000/svg" xmlns:xlink="http://www.w3.org/1999/xlink" xmlns:sketch="http://www.bohemiancoding.com/sketch/ns">
    <!-- Generator: Sketch 3.5.2 (25235) - http://www.bohemiancoding.com/sketch -->
    <title>sun-hazy</title>
    <desc>Created with Sketch.</desc>
    <defs></defs>
    <g id="Desktop" stroke="none" stroke-width="1" fill="none" fill-rule="evenodd" sketch:type="MSPage">
        <g id="Timeline---Desktop" sketch:type="MSArtboardGroup" transform="translate(0.000000, -5557.000000)" fill="#EDE9E4">
            <g id="Group-4" sketch:type="MSLayerGroup" transform="translate(0.000000, 5557.000000)">
                <path d="M158.299502,86.366214 C156.297486,85.0618698 153.606463,85.6338746 152.302119,87.6358913 C150.997775,89.6465748 151.56978,92.3289306 153.57613,93.6332748 C159.976517,97.7889763 165.18956,103.574025 168.647589,110.364415 C169.405929,111.863761 170.931275,112.726101 172.508621,112.726101 C173.171627,112.726101 173.843299,112.578767 174.471638,112.258097 C176.607989,111.170422 177.452996,108.561733 176.36532,106.425382 C172.218286,98.2873138 165.9739,91.3495891 158.299502,86.366214 L158.299502,86.366214 Z M185.504397,164.119865 C187.636415,165.242207 190.24077,164.4232 191.363112,162.312849 C196.576156,152.428433 199.336512,141.252673 199.336512,129.998912 C199.336512,91.7699259 168.231586,60.664999 130.002599,60.664999 C91.7692792,60.664999 60.6686857,91.7699259 60.6686857,129.998912 C60.6686857,141.374008 63.4853759,152.662435 68.8154205,162.637852 C69.5910937,164.098198 71.0904395,164.930205 72.6374525,164.930205 C73.3307916,164.930205 74.0284641,164.765537 74.6741362,164.418867 C76.7844872,163.292191 77.5861606,160.666169 76.4551511,158.555818 C71.7967788,149.832745 69.3354249,139.956996 69.3354249,129.998912 C69.3354249,96.5496326 96.5489859,69.3317382 130.002599,69.3317382 C163.451879,69.3317382 190.669773,96.5496326 190.669773,129.998912 C190.669773,139.848661 188.256086,149.624743 183.693048,158.265482 C182.579372,160.3845 183.389712,163.006189 185.504397,164.119865 L185.504397,164.119865 Z M255.670317,173.332608 L73.6687944,173.332608 C71.2724411,173.332608 69.3354249,175.273958 69.3354249,177.665978 C69.3354249,180.062331 71.2724411,181.999347 73.6687944,181.999347 L255.670317,181.999347 C258.062337,181.999347 260.003687,180.062331 260.003687,177.665978 C260.003687,175.273958 258.062337,173.332608 255.670317,173.332608 L255.670317,173.332608 Z M108.335751,251.333261 L30.3350986,251.333261 C27.9387452,251.333261 26.001729,253.27461 26.001729,255.66663 C26.001729,258.062984 27.9387452,260 30.3350986,260 L108.335751,260 C110.727771,260 112.669121,258.062984 112.669121,255.66663 C112.669121,253.27461 110.727771,251.333261 108.335751,251.333261 L108.335751,251.333261 Z M212.336621,251.333261 L125.669229,251.333261 C123.272876,251.333261 121.33586,253.27461 121.33586,255.66663 C121.33586,258.062984 123.272876,260 125.669229,260 L212.336621,260 C214.728641,260 216.669991,258.062984 216.669991,255.66663 C216.669991,253.27461 214.728641,251.333261 212.336621,251.333261 L212.336621,251.333261 Z M125.669229,199.332826 L30.3350986,199.332826 C27.9387452,199.332826 26.001729,201.274175 26.001729,203.666195 C26.001729,206.062549 27.9387452,207.999565 30.3350986,207.999565 L125.669229,207.999565 C128.061249,207.999565 130.002599,206.062549 130.002599,203.666195 C130.002599,201.274175 128.061249,199.332826 125.669229,199.332826 L125.669229,199.332826 Z M238.336839,199.332826 L143.002708,199.332826 C140.606354,199.332826 138.669338,201.274175 138.669338,203.666195 C138.669338,206.062549 140.606354,207.999565 143.002708,207.999565 L238.336839,207.999565 C240.728859,207.999565 242.670208,206.062549 242.670208,203.666195 C242.670208,201.274175 240.728859,199.332826 238.336839,199.332826 L238.336839,199.332826 Z M95.3356424,229.666413 C95.3356424,232.062766 97.2726586,233.999782 99.669012,233.999782 L195.003143,233.999782 C197.395163,233.999782 199.336512,232.062766 199.336512,229.666413 C199.336512,227.274393 197.395163,225.333043 195.003143,225.333043 L99.669012,225.333043 C97.2726586,225.333043 95.3356424,227.274393 95.3356424,229.666413 L95.3356424,229.666413 Z M60.6686857,177.665978 C60.6686857,175.273958 58.7273361,173.332608 56.3353161,173.332608 L4.33488106,173.332608 C1.93852768,173.332608 0.00151147348,175.273958 0.00151147348,177.665978 C0.00151147348,180.062331 1.93852768,181.999347 4.33488106,181.999347 L56.3353161,181.999347 C58.7273361,181.999347 60.6686857,180.062331 60.6686857,177.665978 L60.6686857,177.665978 Z M47.6685769,225.333043 C45.2722235,225.333043 43.3352073,227.274393 43.3352073,229.666413 C43.3352073,232.062766 45.2722235,233.999782 47.6685769,233.999782 L82.3355336,233.999782 C84.7275536,233.999782 86.6689032,232.062766 86.6689032,229.666413 C86.6689032,227.274393 84.7275536,225.333043 82.3355336,225.333043 L47.6685769,225.333043 Z M2.68820062,82.0068442 L20.2643477,89.2305713 C20.8060189,89.4515732 21.3606902,89.5599074 21.9110281,89.5599074 C23.6140424,89.5599074 25.2347226,88.5458989 25.919395,86.8688849 C26.8294026,84.654533 25.7720604,82.1238452 23.5577085,81.218171 L5.9815615,73.9944439 C3.78887649,73.0887696 1.23218844,74.1331117 0.326514192,76.3517969 C-0.583493421,78.5661488 0.473848758,81.0968366 2.68820062,82.0068442 L2.68820062,82.0068442 Z M36.2631482,95.8606268 L52.2792822,102.499349 C52.8209534,102.720351 53.3842914,102.828685 53.9389627,102.828685 C55.6376436,102.828685 57.2539905,101.81901 57.9429962,100.154996 C58.8573372,97.9406442 57.8086618,95.405623 55.5986433,94.491282 L39.5825093,87.8568932 C37.3811575,86.9425522 34.8331362,87.9912276 33.9187952,90.2012461 C33.0044542,92.4112646 34.0531297,94.9462858 36.2631482,95.8606268 L36.2631482,95.8606268 Z M81.226191,23.5540219 C81.9151968,25.2310359 83.5315436,26.240711 85.2345579,26.240711 C85.7848958,26.240711 86.3439005,26.1367101 86.8855717,25.9157083 C89.0955902,25.0013673 90.148599,22.4706795 89.2385914,20.260661 L82.0105309,2.68451395 C81.1005233,0.470162088 78.5785022,-0.582846722 76.3511502,0.327160891 C74.1367984,1.2371685 73.0837896,3.76785634 73.9937972,5.9822082 L81.226191,23.5540219 Z M87.8562465,39.5788226 L94.4906353,55.5949566 C95.1839744,57.2633039 96.8003213,58.272979 98.4946688,58.272979 C99.0493401,58.272979 99.6126782,58.1646448 100.154349,57.9393095 C102.364368,57.0249686 103.413043,54.4899474 102.498702,52.2755955 L95.8643135,36.2594615 C94.9499725,34.049443 92.4019512,33.0094343 90.2005994,33.9151086 C87.9905809,34.8337829 86.9419055,37.3688041 87.8562465,39.5788226 L87.8562465,39.5788226 Z M173.132627,25.9157083 C173.669964,26.1410435 174.228969,26.2450444 174.779307,26.2450444 C176.477988,26.2450444 178.098668,25.2310359 178.787674,23.5583552 L186.011401,5.9822082 C186.917075,3.76352297 185.859733,1.23283513 183.649715,0.327160891 C181.452696,-0.582846722 178.904675,0.470162088 177.994667,2.68451395 L170.77094,20.260661 C169.860933,22.4750128 170.918275,25.0057007 173.132627,25.9157083 L173.132627,25.9157083 Z M159.850849,57.9393095 C160.39252,58.1646448 160.955858,58.272979 161.510529,58.272979 C163.20921,58.272979 164.825557,57.2633039 165.514563,55.5949566 L172.144618,39.5788226 C173.058959,37.3644707 172.010284,34.8294495 169.800265,33.9151086 C167.603247,33.0094343 165.059559,34.049443 164.140885,36.2637949 L157.506496,52.2799289 C156.592155,54.4942807 157.645164,57.0249686 159.850849,57.9393095 L159.850849,57.9393095 Z M238.09417,89.5642408 C238.644508,89.5642408 239.203513,89.4559065 239.74085,89.2349047 L257.316998,82.0068442 C259.531349,81.0968366 260.584358,78.5661488 259.678684,76.3517969 C258.768676,74.1374451 256.233655,73.0887696 254.023637,73.9944439 L236.44749,81.2225043 C234.228804,82.1281786 233.175796,84.6631998 234.085803,86.8775516 C234.774809,88.5502323 236.391156,89.5642408 238.09417,89.5642408 L238.09417,89.5642408 Z M202.066535,100.154996 C202.755541,101.823343 204.371888,102.828685 206.066235,102.828685 C206.620907,102.828685 207.184245,102.720351 207.725916,102.499349 L223.74205,95.8606268 C225.947735,94.9462858 227.000744,92.4112646 226.086403,90.2012461 C225.167729,87.9868943 222.628374,86.9468856 220.422689,87.8568932 L204.410888,94.491282 C202.20087,95.405623 201.152194,97.9406442 202.066535,100.154996 L202.066535,100.154996 Z M186.69174,75.4807896 C187.536747,76.3257967 188.64609,76.7504669 189.755432,76.7504669 C190.864775,76.7504669 191.974118,76.3257967 192.819125,75.4807896 L214.264971,54.0306102 C215.959318,52.3362627 215.959318,49.5975731 214.264971,47.9032256 C212.570623,46.2088781 209.831934,46.2088781 208.137586,47.9032256 L186.69174,69.353405 C184.997392,71.0434192 184.997392,73.7864421 186.69174,75.4807896 L186.69174,75.4807896 Z M70.2497658,75.4807896 C71.0947729,76.3257967 72.2041155,76.7504669 73.3134581,76.7504669 C74.4228008,76.7504669 75.52781,76.3257967 76.3771504,75.4807896 C78.0671646,73.7864421 78.0671646,71.0434192 76.3771504,69.353405 L51.8632787,44.8395333 C50.1732645,43.1451858 47.4302416,43.1451858 45.7358941,44.8395333 C44.04588,46.5338808 44.04588,49.2725704 45.7358941,50.9669179 L70.2497658,75.4807896 Z M130.002599,51.9982598 C132.394619,51.9982598 134.335969,50.0612436 134.335969,47.6648903 L134.335969,17.3313031 C134.335969,14.9392831 132.394619,12.9979336 130.002599,12.9979336 C127.606246,12.9979336 125.669229,14.9392831 125.669229,17.3313031 L125.669229,47.6648903 C125.669229,50.0612436 127.606246,51.9982598 130.002599,51.9982598 L130.002599,51.9982598 Z M212.336621,125.665543 C209.940268,125.665543 208.003252,127.606892 208.003252,129.998912 C208.003252,132.395266 209.940268,134.332282 212.336621,134.332282 L247.003578,134.332282 C249.395598,134.332282 251.336947,132.395266 251.336947,129.998912 C251.336947,127.606892 249.395598,125.665543 247.003578,125.665543 L212.336621,125.665543 Z M47.6685769,125.665543 C50.0605969,125.665543 52.0019465,127.606892 52.0019465,129.998912 C52.0019465,132.395266 50.0605969,134.332282 47.6685769,134.332282 L13.0016202,134.332282 C10.6052669,134.332282 8.66825065,132.395266 8.66825065,129.998912 C8.66825065,127.606892 10.6052669,125.665543 13.0016202,125.665543 L47.6685769,125.665543 Z" id="sun-hazy" sketch:type="MSShapeGroup"></path>
            </g>
        </g>
    </g>
</svg>