<?xml version="1.0" encoding="UTF-8" standalone="no"?>
<svg width="640px" height="31px" viewBox="0 0 640 31" version="1.1" xmlns="http://www.w3.org/2000/svg" xmlns:xlink="http://www.w3.org/1999/xlink" xmlns:sketch="http://www.bohemiancoding.com/sketch/ns">
    <!-- Generator: Sketch 3.5.2 (25235) - http://www.bohemiancoding.com/sketch -->
    <title>Border - Top Copy 2</title>
    <desc>Created with Sketch.</desc>
    <defs></defs>
    <g id="Mobile" stroke="none" stroke-width="1" fill="none" fill-rule="evenodd" sketch:type="MSPage">
        <g id="Mobile-Timeline-Choices-Copy" sketch:type="MSArtboardGroup" transform="translate(0.000000, -380.000000)" fill="#AC987F">
            <path d="M838.748913,123.939436 C839.751504,123.092806 841.454364,121.740181 841.829272,121.882912 C841.216893,122.513603 838.522579,124.590561 838.748913,123.939436 L838.748913,123.939436 Z M801.024682,152.987453 C803.327016,150.535462 808.493464,147.094629 813.682355,143.086886 C811.06998,145.77251 804.708052,150.231362 801.024682,152.987453 L801.024682,152.987453 Z M594.914725,306.75144 C594.804292,306.50813 596.833775,305.040638 597.442182,304.751401 C597.552093,304.994019 595.523132,306.462203 594.914725,306.75144 L594.914725,306.75144 Z M633.416518,278.072523 C633.364008,277.736748 636.478914,275.516421 637.224232,275.118589 C636.354365,275.907513 634.382724,277.56465 633.416518,278.072523 L633.416518,278.072523 Z M661.226352,257.351512 C665.428697,253.582749 672.490722,248.698309 679.915837,243.078134 C691.082835,234.626313 707.810715,221.571841 718.375827,214.321008 C717.190371,215.981272 713.97525,217.923469 711.659033,219.679713 C695.353541,232.044888 675.837895,246.963605 661.226352,257.351512 L661.226352,257.351512 Z M782.759683,166.94915 C787.349461,163.041393 793.037341,158.85724 800.122663,153.544103 C799.205693,154.891399 795.403999,157.377582 793.409744,158.899887 C789.471617,161.906532 785.697186,164.94495 782.759683,166.94915 L782.759683,166.94915 Z M605.614337,298.779384 C611.047207,294.426153 618.612518,288.677552 624.820313,284.360884 C619.659792,288.696556 610.91709,295.269468 605.614337,298.779384 L605.614337,298.779384 Z M763.554209,181.374743 C763.169148,181.041143 767.142579,178.34744 767.021631,178.912642 C766.452855,179.496373 763.721125,181.612374 763.554209,181.374743 L763.554209,181.374743 Z M769.112429,177.23447 C769.828764,176.306311 772.59703,174.367807 773.60125,173.297563 C773.802158,173.483544 775.689059,171.891347 775.530781,172.455389 C773.516853,173.983841 770.146781,176.841221 769.112429,177.23447 L769.112429,177.23447 Z M750.036381,191.918509 C751.262301,190.505464 756.686351,186.511443 758.420494,185.200332 C757.042457,186.742109 753.488855,189.355937 750.036381,191.918509 L750.036381,191.918509 Z M738.621476,200.779449 C737.909129,201.309732 737.192906,201.842936 736.480559,202.373219 C736.176001,202.194831 738.768665,200.168437 738.621476,200.779449 L738.621476,200.779449 Z M674.5382,248.750387 C675.444376,248.146725 677.442571,246.39581 677.190168,247.01234 C676.17774,247.862043 674.801831,248.995413 674.5382,248.750387 L674.5382,248.750387 Z M165.453802,637.220418 C165.108667,637.189767 168.639811,634.417123 168.446584,634.99123 C167.940633,635.537382 166.088069,636.917117 165.453802,637.220418 L165.453802,637.220418 Z M161.305223,640.666407 C161.637711,640.107773 162.900326,639.090151 164.596967,637.858287 C165.532648,637.785645 162.272106,640.135243 161.305223,640.666407 L161.305223,640.666407 Z M154.637469,646.107688 C155.148225,645.172807 157.946033,643.11224 160.407069,641.217578 C160.574253,641.818418 156.557912,644.479368 154.637469,646.107688 L154.637469,646.107688 Z M64.5551162,743.882957 C70.8792297,740.333466 82.672309,731.543291 91.3392484,724.652127 C97.2355561,721.196117 107.433048,713.328422 116.326632,706.520315 C121.155536,702.825065 126.649743,698.690307 130.314687,695.748496 C133.884307,692.88177 136.998418,690.055634 140.702536,687.181935 C146.699183,682.528621 149.675087,680.172212 154.170745,676.55885 C158.904825,672.753892 164.005031,668.797791 168.881757,664.89185 C176.683119,658.642098 184.20474,652.198511 191.415186,646.567615 C195.389182,643.463429 196.221143,642.600013 198.89731,640.402213 C203.247731,636.829953 208.157627,633.403453 212.411246,629.864 C213.762789,628.73055 213.271143,628.505472 214.675448,627.345279 C242.227396,604.875909 278.35027,577.476377 306.151309,555.54721 C310.635566,552.716993 315.360986,548.707022 321.166384,544.485299 C322.771873,543.334057 322.10894,543.300971 324.030259,541.996349 C325.83522,540.577633 325.917815,540.977522 327.584215,539.705527 C341.38281,528.577463 359.733034,515.877779 372.965154,504.844633 C374.071831,504.031304 373.599846,504.880559 375.2355,503.511319 C376.840988,502.360076 376.17418,502.329911 378.098853,501.021676 C379.166236,500.293282 379.177228,500.678784 380.797068,499.369193 C382.592102,497.751844 384.655879,496.483067 386.653724,494.651055 C391.872001,491.327379 396.518326,487.188255 401.539892,483.329381 C404.610652,480.969836 407.797649,478.877431 411.038604,476.493777 C419.394088,470.350426 430.664334,461.737273 438.416786,456.108003 C455.322455,443.829712 472.214547,430.565797 485.768586,420.492036 C526.991907,389.854365 570.78348,354.230896 607.715319,327.429158 C630.055445,310.20305 658.956186,289.69292 681.076945,272.207956 C689.580371,266.470577 704.874553,254.43247 713.248012,248.490366 C720.280297,242.598853 730.808981,235.315806 739.212112,228.800261 C740.458618,227.833831 741.620971,226.707344 742.932248,225.673664 C750.963432,219.341852 759.975914,212.876987 768.467956,206.302036 C786.941659,192.000334 805.306349,177.965197 823.688942,164.115089 C838.621809,152.863451 853.397141,141.144728 868.296279,130.066042 C896.701386,108.946563 924.656719,87.8752845 951.534703,66.4225567 C952.417762,64.8448004 957.931819,60.8653993 958.533212,59.3089666 C959.189782,57.6241709 957.186165,57.7552126 955.087944,58.3090214 C955.132494,57.819831 958.194799,55.8441707 957.82239,55.5596155 C954.16688,57.5624673 953.198977,55.1491434 955.602677,52.339802 C952.964809,53.4998692 954.712816,50.3525788 951.725663,51.6619463 C955.255563,46.7347262 947.316792,50.1492771 951.034344,45.6404118 C947.586666,47.3304386 944.380308,47.8167281 945.996483,44.9944204 C943.800875,45.8060336 942.736605,45.0307069 940.673554,46.1069267 C932.41285,52.7711613 923.420142,59.1332555 917.153912,64.8076604 C917.5831,64.3128447 917.538642,64.2215932 916.975403,64.4659461 C912.680326,67.5875292 911.456287,69.1965923 908.300078,71.7572144 C907.113365,72.3433808 908.978771,70.8758626 909.36385,70.3708929 C904.070826,73.7324529 897.435697,79.094707 891.397323,83.7490905 C888.814356,85.7399726 885.599015,87.9318418 885.199852,88.9583691 C886.547961,88.1106421 888.868086,86.2386341 889.992737,85.6265525 C889.176922,86.56784 886.09874,88.8288374 884.946616,89.6221729 C884.512823,89.2884111 878.985403,93.3549033 877.970965,94.4599672 C878.804183,93.8885019 879.825007,93.1225105 879.812918,93.4451299 C877.432005,95.5267512 874.013868,97.8768616 873.223286,97.8759633 C871.799113,98.9372214 870.366668,100.003628 868.941974,101.064195 C868.490319,101.698525 870.77185,100.073646 869.545,101.090352 C865.717887,103.873402 858.820546,109.500505 853.760719,112.96188 C854.124507,112.388339 856.154044,110.99349 855.639424,110.850812 C847.551264,116.050711 840.086652,122.731218 832.668106,128.31173 C832.591681,128.742495 834.260027,127.440829 833.313505,128.426372 C830.799324,130.379522 827.925527,132.911749 825.614374,134.158655 C827.117443,132.879562 829.905,130.966659 830.145046,130.30954 C827.575534,131.63289 825.949313,133.627465 823.386401,135.580453 C822.005708,136.50589 821.418222,136.597115 819.790593,137.783483 C799.265298,153.474958 777.618051,169.983679 756.916724,185.788277 C749.687906,191.306094 741.792446,197.25358 734.539978,202.094942 C746.390653,192.534544 759.853266,182.718435 774.018013,171.866623 C785.523778,163.049959 796.770314,154.227947 807.509442,146.095296 C811.304541,143.221381 815.548043,140.402271 818.454591,137.470021 C816.77528,138.031432 814.196753,140.391058 812.380928,141.755041 C804.667548,147.549048 796.407677,154.166008 788.599596,159.939168 C770.012272,173.678858 752.649669,187.592397 734.954476,200.5969 C730.828792,203.628804 727.400545,206.159018 724.262563,208.558371 C676.999582,244.695374 624.190407,283.067758 576.469917,319.202381 C569.34684,324.175134 559.300816,331.582635 551.183049,337.912434 C529.812274,354.578398 506.632543,372.819047 484.203545,389.451477 C482.901303,390.416514 481.640907,391.227435 480.312128,392.229827 C430.278216,429.987324 376.731365,470.17071 327.689847,507.301884 C324.890926,510.126996 318.91814,513.941129 314.126831,517.758838 C313.021998,518.639121 312.016977,519.643795 310.834564,520.566266 C296.985615,531.377542 281.274915,542.338793 271.489834,551.05212 C279.872328,545.041373 293.421402,534.356268 299.04265,531.010981 C296.515187,533.551259 290.131134,537.988813 288.359713,540.153554 C285.069641,542.326885 279.443946,546.625814 276.937092,549.016046 C283.010631,544.642165 288.709412,539.859662 293.664692,536.678843 C282.794913,545.952448 268.182816,556.452508 254.224632,566.997875 C235.783298,580.9313 217.872484,595.689699 201.449146,608.196833 C200.179365,608.9953 203.190165,606.556185 201.661053,607.44593 C199.685569,608.993143 198.756617,610.026195 196.232267,611.844899 C196.550317,612.266964 199.254779,609.356819 200.172765,609.147808 C198.599753,610.858205 194.558374,613.784273 192.350348,615.805042 C190.984845,616.766764 190.682642,616.172205 189.178013,617.691131 C188.149788,618.544061 190.724907,616.897553 189.398896,618.12133 C183.859666,622.575319 177.736529,627.891305 171.78268,632.19018 C173.81011,629.82493 181.403849,624.718808 183.321357,622.40927 C177.375108,626.968196 171.588915,632.03787 165.318601,636.884389 C163.018546,638.662082 160.75778,640.112931 158.430527,641.894847 C156.407354,643.443283 154.989949,644.811867 153.043071,646.380916 C149.34615,649.360927 145.239602,652.442415 141.666176,655.32828 C138.84081,657.610305 135.577247,660.883182 132.77049,662.190042 C134.268648,660.372247 139.747551,656.59616 140.421627,655.184561 C138.530442,656.384031 137.902857,656.252712 136.176545,657.27587 C133.173846,659.790242 130.155151,661.96085 127.277506,664.141244 C121.262034,668.697008 115.106905,674.107615 108.895959,679.016792 C102.026542,684.447115 96.1024927,688.503318 89.1750563,693.582491 C86.059387,695.866312 81.9544137,699.433693 80.0166372,699.926263 C87.6342697,693.868116 96.7792678,686.514737 104.346814,680.503011 C110.059087,675.964186 108.991177,676.449981 111.9902,673.503371 C113.921673,671.60747 117.597394,668.760594 116.607225,668.639977 C112.528952,670.823633 108.372285,674.846534 103.72867,678.110346 C101.191215,679.895533 98.9066848,681.064882 96.1957189,683.006854 C89.621282,687.715881 83.1739569,693.230598 75.702256,698.385782 C74.3077492,699.413838 75.1382756,698.096968 73.3448544,699.547125 C70.3047171,701.915055 67.9085332,703.460355 65.1721264,705.513707 C60.1145141,709.308619 56.8658244,712.423839 53.9280146,714.717914 C47.7271477,719.559832 40.4564417,724.078646 34.589777,728.880263 C32.6094282,730.501655 31.2480912,732.009151 28.9116307,733.940116 C28.9335932,734.525634 29.2619146,734.985522 29.2631664,735.817712 C30.9744702,735.16168 33.4578128,733.691726 33.8580378,734.416364 C38.3892683,731.479153 44.7951452,726.030383 45.801729,726.59208 C41.7473366,729.686337 36.4675729,733.839578 36.059278,735.273282 C35.6139157,736.827127 40.3127118,734.459008 42.8006873,733.462879 C40.5294597,735.794882 42.1253308,735.961336 41.8842955,737.471859 C38.4769408,740.940961 38.267737,742.921086 40.9316742,742.577762 C41.8662579,742.431094 44.5717304,740.417325 45.2186071,740.574245 C43.8839847,742.20589 42.7551403,744.191245 45.2789308,743.024933 C49.8269642,739.956815 54.0647154,736.404369 56.7071738,735.347154 C57.4277874,735.351961 55.7064154,736.559069 56.2007013,736.674762 C59.1090595,735.486604 66.470984,729.097185 68.1862436,728.938269 C65.358066,731.410084 60.8993143,734.685379 58.1854561,737.099253 C58.5185399,737.581587 55.9492317,739.493834 54.7275315,740.743148 C56.4093476,739.499674 57.962143,738.391393 59.0886697,737.733421 C59.3930018,737.919572 57.0799127,739.679966 58.5403459,738.973237 C63.6648628,735.726723 71.1851185,729.62805 76.0004005,726.922647 C75.8417135,727.873189 79.4410099,725.457078 79.1321082,726.135708 C74.8768981,730.027838 65.5882221,736.400338 64.8166124,738.577541 C65.8499865,738.739367 72.2033264,733.309575 72.7818307,733.359635 C73.6217196,733.434029 65.4757548,739.355492 65.2177503,740.537088 C66.3736308,739.893879 68.1278829,738.617518 68.8598061,738.419622 C66.427952,740.409452 65.06253,741.87121 62.7499138,743.801564 C62.9479297,744.459445 59.7189837,746.802592 58.9516965,747.937291 C60.0759545,747.655287 62.3062554,745.389923 64.5551162,743.882957 L64.5551162,743.882957 Z M917.654491,62.1996983 C919.144493,61.0161516 922.162205,59.1587094 922.654885,58.1192065 C913.194235,65.0053206 902.248306,73.7505116 891.216273,82.1234094 C884.304586,87.3686228 877.250327,92.1907997 872.140247,96.8030571 C887.17126,85.7703598 904.113448,72.9438408 917.654491,62.1996983 L917.654491,62.1996983 Z M850.324677,113.06295 C840.453363,120.291066 829.084865,128.539995 821.878847,134.837966 C830.338358,128.413366 843.72087,118.595783 850.324677,113.06295 L850.324677,113.06295 Z M378.646581,464.859106 C385.575421,459.564084 392.789366,454.203924 399.568436,449.161701 C430.595023,426.086322 462.352722,402.26366 491.366833,380.331617 C501.257294,372.854754 510.167536,365.641393 519.636986,358.210583 C528.312321,351.403131 537.583614,344.846295 544.523941,338.727925 C537.907491,343.913383 530.600701,349.021319 523.610358,354.420182 C515.951412,360.334806 508.58428,366.177068 500.726618,372.053763 C479.75134,387.74478 458.945471,403.289695 440.967027,416.910106 C425.324178,428.759673 409.208157,440.400615 393.955519,452.034241 C378.718384,463.656187 363.712543,474.996443 347.971554,486.868977 C334.791757,496.81043 323.599919,505.092212 313.714795,513.447002 C335.329678,497.548466 356.345329,481.902963 378.646581,464.859106 L378.646581,464.859106 Z M312.384961,514.348201 C310.129504,516.249584 305.671581,519.235696 304.391264,520.657189 C306.500241,519.230682 311.595619,515.477823 312.384961,514.348201 L312.384961,514.348201 Z M273.901117,551.213366 C270.854529,553.467912 267.901841,555.677735 265.861172,557.43679 C267.943907,556.056093 272.369532,552.67233 273.901117,551.213366 L273.901117,551.213366 Z M221.240535,590.319528 C225.072997,587.333928 229.782807,583.972503 232.098106,581.52159 C229.937339,582.960003 227.468794,584.796319 225.210032,586.532048 C217.277349,592.623658 207.643876,600.127083 203.062623,604.449321 C209.207157,600.129338 215.107046,595.097656 221.240535,590.319528 L221.240535,590.319528 Z M263.724617,559.031432 C259.151272,562.541699 253.324739,566.670868 250.635198,569.254089 C255.0355,565.828658 260.361533,561.946466 263.724617,559.031432 L263.724617,559.031432 Z M248.880274,570.443586 C247.255795,571.819592 244.08868,573.954509 243.448134,574.846167 C245.165991,573.424747 248.337503,571.287601 248.880274,570.443586 L248.880274,570.443586 Z M225.232152,588.891145 C223.223852,590.281923 220.443514,592.486624 218.943228,593.93068 C221.099453,592.220148 224.248927,590.021504 225.232152,588.891145 L225.232152,588.891145 Z M216.332546,595.757845 C214.357062,597.305059 212.298036,598.894614 211.373482,599.925437 C213.069354,598.515159 216.166119,596.415898 216.332546,595.757845 L216.332546,595.757845 Z M208.37624,602.158773 C206.195752,603.772599 204.731211,605.030252 203.849444,606.004967 C205.75576,604.527232 208.136195,602.815891 208.37624,602.158773 L208.37624,602.158773 Z M186.817692,617.746888 C181.404727,621.54597 174.257778,626.874087 168.980594,631.385541 C167.483486,632.664481 166.750326,633.53806 165.35139,634.681189 C164.054485,635.742006 162.399169,636.819062 161.070078,637.86942 C159.161816,639.376826 157.275302,641.179185 155.296603,642.76245 C151.434529,645.853894 144.240651,650.877831 144.659914,651.990586 C157.047243,641.610309 174.984363,628.144706 186.817692,617.746888 L186.817692,617.746888 Z" id="Border---Top-Copy-2" sketch:type="MSShapeGroup" transform="translate(493.785846, 396.465856) scale(1, -1) rotate(-143.000000) translate(-493.785846, -396.465856) "></path>
        </g>
    </g>
</svg>