<?xml version="1.0" encoding="UTF-8" standalone="no"?>
<svg width="640px" height="38px" viewBox="0 0 640 38" version="1.1" xmlns="http://www.w3.org/2000/svg" xmlns:xlink="http://www.w3.org/1999/xlink" xmlns:sketch="http://www.bohemiancoding.com/sketch/ns">
    <!-- Generator: Sketch 3.5.2 (25235) - http://www.bohemiancoding.com/sketch -->
    <title>Border - Top Copy</title>
    <desc>Created with Sketch.</desc>
    <defs></defs>
    <g id="Mobile" stroke="none" stroke-width="1" fill="none" fill-rule="evenodd" sketch:type="MSPage">
        <g id="Mobile-Timeline-Choices-Copy" sketch:type="MSArtboardGroup" transform="translate(0.000000, -189.000000)" fill="#575E70">
            <path d="M471.748913,-62.0605639 C472.751504,-62.9071944 474.454364,-64.2598192 474.829272,-64.1170879 C474.216893,-63.4863969 471.522579,-61.4094391 471.748913,-62.0605639 L471.748913,-62.0605639 Z M434.024682,-33.0125466 C436.327016,-35.4645381 441.493464,-38.9053714 446.682355,-42.9131137 C444.06998,-40.2274896 437.708052,-35.7686384 434.024682,-33.0125466 L434.024682,-33.0125466 Z M227.914725,120.75144 C227.804292,120.50813 229.833775,119.040638 230.442182,118.751401 C230.552093,118.994019 228.523132,120.462203 227.914725,120.75144 L227.914725,120.75144 Z M266.416518,92.0725229 C266.364008,91.7367482 269.478914,89.5164208 270.224232,89.1185893 C269.354365,89.9075126 267.382724,91.5646505 266.416518,92.0725229 L266.416518,92.0725229 Z M294.226352,71.3515123 C298.428697,67.5827494 305.490722,62.6983094 312.915837,57.0781337 C324.082835,48.626313 340.810715,35.5718407 351.375827,28.3210079 C350.190371,29.9812725 346.97525,31.9234695 344.659033,33.6797126 C328.353541,46.0448882 308.837895,60.9636049 294.226352,71.3515123 L294.226352,71.3515123 Z M415.759683,-19.0508502 C420.349461,-22.9586066 426.037341,-27.1427597 433.122663,-32.4558973 C432.205693,-31.1086014 428.403999,-28.6224179 426.409744,-27.1001129 C422.471617,-24.0934682 418.697186,-21.0550495 415.759683,-19.0508502 L415.759683,-19.0508502 Z M238.614337,112.779384 C244.047207,108.426153 251.612518,102.677552 257.820313,98.3608839 C252.659792,102.696556 243.91709,109.269468 238.614337,112.779384 L238.614337,112.779384 Z M396.554209,-4.62525673 C396.169148,-4.95885672 400.142579,-7.6525598 400.021631,-7.08735793 C399.452855,-6.503627 396.721125,-4.38762565 396.554209,-4.62525673 L396.554209,-4.62525673 Z M402.112429,-8.76553012 C402.828764,-9.69368926 405.59703,-11.6321929 406.60125,-12.7024366 C406.802158,-12.5164563 408.689059,-14.1086533 408.530781,-13.5446106 C406.516853,-12.0161592 403.146781,-9.15877894 402.112429,-8.76553012 L402.112429,-8.76553012 Z M383.036381,5.91850915 C384.262301,4.5054636 389.686351,0.511442523 391.420494,-0.799667628 C390.042457,0.742109466 386.488855,3.35593701 383.036381,5.91850915 L383.036381,5.91850915 Z M371.621476,14.779449 C370.909129,15.309732 370.192906,15.8429355 369.480559,16.3732186 C369.176001,16.1948314 371.768665,14.1684371 371.621476,14.779449 L371.621476,14.779449 Z M307.5382,62.7503866 C308.444376,62.1467249 310.442571,60.3958105 310.190168,61.0123397 C309.17774,61.8620434 307.801831,62.995413 307.5382,62.7503866 L307.5382,62.7503866 Z M-201.546198,451.220418 C-201.891333,451.189767 -198.360189,448.417123 -198.553416,448.99123 C-199.059367,449.537382 -200.911931,450.917117 -201.546198,451.220418 L-201.546198,451.220418 Z M-205.694777,454.666407 C-205.362289,454.107773 -204.099674,453.090151 -202.403033,451.858287 C-201.467352,451.785645 -204.727894,454.135243 -205.694777,454.666407 L-205.694777,454.666407 Z M-212.362531,460.107688 C-211.851775,459.172807 -209.053967,457.11224 -206.592931,455.217578 C-206.425747,455.818418 -210.442088,458.479368 -212.362531,460.107688 L-212.362531,460.107688 Z M-302.444884,557.882957 C-296.12077,554.333466 -284.327691,545.543291 -275.660752,538.652127 C-269.764444,535.196117 -259.566952,527.328422 -250.673368,520.520315 C-245.844464,516.825065 -240.350257,512.690307 -236.685313,509.748496 C-233.115693,506.88177 -230.001582,504.055634 -226.297464,501.181935 C-220.300817,496.528621 -217.324913,494.172212 -212.829255,490.55885 C-208.095175,486.753892 -202.994969,482.797791 -198.118243,478.89185 C-190.316881,472.642098 -182.79526,466.198511 -175.584814,460.567615 C-171.610818,457.463429 -170.778857,456.600013 -168.10269,454.402213 C-163.752269,450.829953 -158.842373,447.403453 -154.588754,443.864 C-153.237211,442.73055 -153.728857,442.505472 -152.324552,441.345279 C-124.772604,418.875909 -88.6497297,391.476377 -60.8486908,369.54721 C-56.3644342,366.716993 -51.6390135,362.707022 -45.8336157,358.485299 C-44.2281273,357.334057 -44.8910597,357.300971 -42.9697414,355.996349 C-41.1647797,354.577633 -41.0821849,354.977522 -39.4157848,353.705527 C-25.6171895,342.577463 -7.26696601,329.877779 5.96515447,318.844633 C7.07183068,318.031304 6.59984567,318.880559 8.23549975,317.511319 C9.84098813,316.360076 9.17418019,316.329911 11.0988526,315.021676 C12.1662361,314.293282 12.1772281,314.678784 13.7970683,313.369193 C15.5921023,311.751844 17.6558791,310.483067 19.6537243,308.651055 C24.8720006,305.327379 29.5183255,301.188255 34.5398919,297.329381 C37.6106516,294.969836 40.7976495,292.877431 44.0386037,290.493777 C52.3940881,284.350426 63.6643336,275.737273 71.4167862,270.108003 C88.322455,257.829712 105.214547,244.565797 118.768586,234.492036 C159.991907,203.854365 203.78348,168.230896 240.715319,141.429158 C263.055445,124.20305 291.956186,103.69292 314.076945,86.2079562 C322.580371,80.4705773 337.874553,68.4324697 346.248012,62.490366 C353.280297,56.5988534 363.808981,49.3158063 372.212112,42.8002607 C373.458618,41.8338305 374.620971,40.7073442 375.932248,39.6736638 C383.963432,33.3418523 392.975914,26.8769867 401.467956,20.3020356 C419.941659,6.00033362 438.306349,-8.03480266 456.688942,-21.884911 C471.621809,-33.1365488 486.397141,-44.8552716 501.296279,-55.9339584 C529.701386,-77.0534372 557.656719,-98.1247155 584.534703,-119.577443 C585.417762,-121.1552 590.931819,-125.134601 591.533212,-126.691033 C592.189782,-128.375829 590.186165,-128.244787 588.087944,-127.690979 C588.132494,-128.180169 591.194799,-130.155829 590.82239,-130.440384 C587.16688,-128.437533 586.198977,-130.850857 588.602677,-133.660198 C585.964809,-132.500131 587.712816,-135.647421 584.725663,-134.338054 C588.255563,-139.265274 580.316792,-135.850723 584.034344,-140.359588 C580.586666,-138.669561 577.380308,-138.183272 578.996483,-141.00558 C576.800875,-140.193966 575.736605,-140.969293 573.673554,-139.893073 C565.41285,-133.228839 556.420142,-126.866744 550.153912,-121.19234 C550.5831,-121.687155 550.538642,-121.778407 549.975403,-121.534054 C545.680326,-118.412471 544.456287,-116.803408 541.300078,-114.242786 C540.113365,-113.656619 541.978771,-115.124137 542.36385,-115.629107 C537.070826,-112.267547 530.435697,-106.905293 524.397323,-102.25091 C521.814356,-100.260027 518.599015,-98.0681582 518.199852,-97.0416309 C519.547961,-97.8893579 521.868086,-99.7613659 522.992737,-100.373448 C522.176922,-99.43216 519.09874,-97.1711626 517.946616,-96.3778271 C517.512823,-96.7115889 511.985403,-92.6450967 510.970965,-91.5400328 C511.804183,-92.1114981 512.825007,-92.8774895 512.812918,-92.5548701 C510.432005,-90.4732488 507.013868,-88.1231384 506.223286,-88.1240367 C504.799113,-87.0627786 503.366668,-85.9963716 501.941974,-84.9358054 C501.490319,-84.3014752 503.77185,-85.9263539 502.545,-84.9096479 C498.717887,-82.1265984 491.820546,-76.4994948 486.760719,-73.03812 C487.124507,-73.6116608 489.154044,-75.0065104 488.639424,-75.1491877 C480.551264,-69.9492895 473.086652,-63.2687818 465.668106,-57.6882697 C465.591681,-57.2575054 467.260027,-58.5591714 466.313505,-57.5736284 C463.799324,-55.6204779 460.925527,-53.0882513 458.614374,-51.8413449 C460.117443,-53.1204383 462.905,-55.0333412 463.145046,-55.6904595 C460.575534,-54.3671103 458.949313,-52.3725354 456.386401,-50.4195467 C455.005708,-49.4941099 454.418222,-49.4028852 452.790593,-48.2165168 C432.265298,-32.5250423 410.618051,-16.016321 389.916724,-0.211723353 C382.687906,5.30609431 374.792446,11.2535803 367.539978,16.0949422 C379.390653,6.53454423 392.853266,-3.2815652 407.018013,-14.1333766 C418.523778,-22.9500414 429.770314,-31.7720528 440.509442,-39.9047044 C444.304541,-42.7786188 448.548043,-45.5977288 451.454591,-48.5299791 C449.77528,-47.9685685 447.196753,-45.6089425 445.380928,-44.2449595 C437.667548,-38.4509521 429.407677,-31.8339921 421.599596,-26.0608319 C403.012272,-12.3211417 385.649669,1.59239737 367.954476,14.5968998 C363.828792,17.6288038 360.400545,20.1590179 357.262563,22.5583706 C309.999582,58.6953744 257.190407,97.067758 209.469917,133.202381 C202.34684,138.175134 192.300816,145.582635 184.183049,151.912434 C162.812274,168.578398 139.632543,186.819047 117.203545,203.451477 C115.901303,204.416514 114.640907,205.227435 113.312128,206.229827 C63.278216,243.987324 9.73136508,284.17071 -39.310153,321.301884 C-42.1090737,324.126996 -48.0818599,327.941129 -52.8731695,331.758838 C-53.978002,332.639121 -54.9830229,333.643795 -56.1654355,334.566266 C-70.0143853,345.377542 -85.7250847,356.338793 -95.5101664,365.05212 C-87.1276718,359.041373 -73.5785983,348.356268 -67.9573497,345.010981 C-70.4848126,347.551259 -76.8688655,351.988813 -78.6402867,354.153554 C-81.9303592,356.326885 -87.5560539,360.625814 -90.0629082,363.016046 C-83.989369,358.642165 -78.2905876,353.859662 -73.3353085,350.678843 C-84.205087,359.952448 -98.817184,370.452508 -112.775368,380.997875 C-131.216702,394.9313 -149.127516,409.689699 -165.550854,422.196833 C-166.820635,422.9953 -163.809835,420.556185 -165.338947,421.44593 C-167.314431,422.993143 -168.243383,424.026195 -170.767733,425.844899 C-170.449683,426.266964 -167.745221,423.356819 -166.827235,423.147808 C-168.400247,424.858205 -172.441626,427.784273 -174.649652,429.805042 C-176.015155,430.766764 -176.317358,430.172205 -177.821987,431.691131 C-178.850212,432.544061 -176.275093,430.897553 -177.601104,432.12133 C-183.140334,436.575319 -189.263471,441.891305 -195.21732,446.19018 C-193.18989,443.82493 -185.596151,438.718808 -183.678643,436.40927 C-189.624892,440.968196 -195.411085,446.03787 -201.681399,450.884389 C-203.981454,452.662082 -206.24222,454.112931 -208.569473,455.894847 C-210.592646,457.443283 -212.010051,458.811867 -213.956929,460.380916 C-217.65385,463.360927 -221.760398,466.442415 -225.333824,469.32828 C-228.15919,471.610305 -231.422753,474.883182 -234.22951,476.190042 C-232.731352,474.372247 -227.252449,470.59616 -226.578373,469.184561 C-228.469558,470.384031 -229.097143,470.252712 -230.823455,471.27587 C-233.826154,473.790242 -236.844849,475.96085 -239.722494,478.141244 C-245.737966,482.697008 -251.893095,488.107615 -258.104041,493.016792 C-264.973458,498.447115 -270.897507,502.503318 -277.824944,507.582491 C-280.940613,509.866312 -285.045586,513.433693 -286.983363,513.926263 C-279.36573,507.868116 -270.220732,500.514737 -262.653186,494.503011 C-256.940913,489.964186 -258.008823,490.449981 -255.0098,487.503371 C-253.078327,485.60747 -249.402606,482.760594 -250.392775,482.639977 C-254.471048,484.823633 -258.627715,488.846534 -263.27133,492.110346 C-265.808785,493.895533 -268.093315,495.064882 -270.804281,497.006854 C-277.378718,501.715881 -283.826043,507.230598 -291.297744,512.385782 C-292.692251,513.413838 -291.861724,512.096968 -293.655146,513.547125 C-296.695283,515.915055 -299.091467,517.460355 -301.827874,519.513707 C-306.885486,523.308619 -310.134176,526.423839 -313.071985,528.717914 C-319.272852,533.559832 -326.543558,538.078646 -332.410223,542.880263 C-334.390572,544.501655 -335.751909,546.009151 -338.088369,547.940116 C-338.066407,548.525634 -337.738085,548.985522 -337.736834,549.817712 C-336.02553,549.16168 -333.542187,547.691726 -333.141962,548.416364 C-328.610732,545.479153 -322.204855,540.030383 -321.198271,540.59208 C-325.252663,543.686337 -330.532427,547.839578 -330.940722,549.273282 C-331.386084,550.827127 -326.687288,548.459008 -324.199313,547.462879 C-326.47054,549.794882 -324.874669,549.961336 -325.115704,551.471859 C-328.523059,554.940961 -328.732263,556.921086 -326.068326,556.577762 C-325.133742,556.431094 -322.42827,554.417325 -321.781393,554.574245 C-323.116015,556.20589 -324.24486,558.191245 -321.721069,557.024933 C-317.173036,553.956815 -312.935285,550.404369 -310.292826,549.347154 C-309.572213,549.351961 -311.293585,550.559069 -310.799299,550.674762 C-307.89094,549.486604 -300.529016,543.097185 -298.813756,542.938269 C-301.641934,545.410084 -306.100686,548.685379 -308.814544,551.099253 C-308.48146,551.581587 -311.050768,553.493834 -312.272468,554.743148 C-310.590652,553.499674 -309.037857,552.391393 -307.91133,551.733421 C-307.606998,551.919572 -309.920087,553.679966 -308.459654,552.973237 C-303.335137,549.726723 -295.814881,543.62805 -290.9996,540.922647 C-291.158286,541.873189 -287.55899,539.457078 -287.867892,540.135708 C-292.123102,544.027838 -301.411778,550.400338 -302.183388,552.577541 C-301.150014,552.739367 -294.796674,547.309575 -294.218169,547.359635 C-293.37828,547.434029 -301.524245,553.355492 -301.78225,554.537088 C-300.626369,553.893879 -298.872117,552.617518 -298.140194,552.419622 C-300.572048,554.409452 -301.93747,555.87121 -304.250086,557.801564 C-304.05207,558.459445 -307.281016,560.802592 -308.048303,561.937291 C-306.924045,561.655287 -304.693745,559.389923 -302.444884,557.882957 L-302.444884,557.882957 Z M550.654491,-123.800302 C552.144493,-124.983848 555.162205,-126.841291 555.654885,-127.880794 C546.194235,-120.994679 535.248306,-112.249488 524.216273,-103.876591 C517.304586,-98.6313772 510.250327,-93.8092003 505.140247,-89.1969429 C520.17126,-100.22964 537.113448,-113.056159 550.654491,-123.800302 L550.654491,-123.800302 Z M483.324677,-72.9370498 C473.453363,-65.7089336 462.084865,-57.4600046 454.878847,-51.1620343 C463.338358,-57.586634 476.72087,-67.4042171 483.324677,-72.9370498 L483.324677,-72.9370498 Z M11.6465815,278.859106 C18.5754209,273.564084 25.7893657,268.203924 32.5684361,263.161701 C63.595023,240.086322 95.3527217,216.26366 124.366833,194.331617 C134.257294,186.854754 143.167536,179.641393 152.636986,172.210583 C161.312321,165.403131 170.583614,158.846295 177.523941,152.727925 C170.907491,157.913383 163.600701,163.021319 156.610358,168.420182 C148.951412,174.334806 141.58428,180.177068 133.726618,186.053763 C112.75134,201.74478 91.9454711,217.289695 73.967027,230.910106 C58.3241779,242.759673 42.2081567,254.400615 26.9555194,266.034241 C11.7183842,277.656187 -3.28745661,288.996443 -19.0284459,300.868977 C-32.2082434,310.81043 -43.4000808,319.092212 -53.2852052,327.447002 C-31.6703223,311.548466 -10.6546706,295.902963 11.6465815,278.859106 L11.6465815,278.859106 Z M-54.6150392,328.348201 C-56.8704957,330.249584 -61.3284194,333.235696 -62.6087361,334.657189 C-60.4997592,333.230682 -55.4043808,329.477823 -54.6150392,328.348201 L-54.6150392,328.348201 Z M-93.0988832,365.213366 C-96.1454706,367.467912 -99.0981588,369.677735 -101.138828,371.43679 C-99.0560929,370.056093 -94.6304684,366.67233 -93.0988832,365.213366 L-93.0988832,365.213366 Z M-145.759465,404.319528 C-141.927003,401.333928 -137.217193,397.972503 -134.901894,395.52159 C-137.062661,396.960003 -139.531206,398.796319 -141.789968,400.532048 C-149.722651,406.623658 -159.356124,414.127083 -163.937377,418.449321 C-157.792843,414.129338 -151.892954,409.097656 -145.759465,404.319528 L-145.759465,404.319528 Z M-103.275383,373.031432 C-107.848728,376.541699 -113.675261,380.670868 -116.364802,383.254089 C-111.9645,379.828658 -106.638467,375.946466 -103.275383,373.031432 L-103.275383,373.031432 Z M-118.119726,384.443586 C-119.744205,385.819592 -122.91132,387.954509 -123.551866,388.846167 C-121.834009,387.424747 -118.662497,385.287601 -118.119726,384.443586 L-118.119726,384.443586 Z M-141.767848,402.891145 C-143.776148,404.281923 -146.556486,406.486624 -148.056772,407.93068 C-145.900547,406.220148 -142.751073,404.021504 -141.767848,402.891145 L-141.767848,402.891145 Z M-150.667454,409.757845 C-152.642938,411.305059 -154.701964,412.894614 -155.626518,413.925437 C-153.930646,412.515159 -150.833881,410.415898 -150.667454,409.757845 L-150.667454,409.757845 Z M-158.62376,416.158773 C-160.804248,417.772599 -162.268789,419.030252 -163.150556,420.004967 C-161.24424,418.527232 -158.863805,416.815891 -158.62376,416.158773 L-158.62376,416.158773 Z M-180.182308,431.746888 C-185.595273,435.54597 -192.742222,440.874087 -198.019406,445.385541 C-199.516514,446.664481 -200.249674,447.53806 -201.64861,448.681189 C-202.945515,449.742006 -204.600831,450.819062 -205.929922,451.86942 C-207.838184,453.376826 -209.724698,455.179185 -211.703397,456.76245 C-215.565471,459.853894 -222.759349,464.877831 -222.340086,465.990586 C-209.952757,455.610309 -192.015637,442.144706 -180.182308,431.746888 L-180.182308,431.746888 Z M313.836996,-33.0125466 C316.13933,-35.4645381 321.305779,-38.9053714 326.49467,-42.9131137 C323.882295,-40.2274896 317.520366,-35.7686384 313.836996,-33.0125466 L313.836996,-33.0125466 Z" id="Border---Top-Copy" sketch:type="MSShapeGroup" transform="translate(126.785846, 210.465856) rotate(-143.000000) translate(-126.785846, -210.465856) "></path>
        </g>
    </g>
</svg>