<?xml version="1.0" encoding="UTF-8" standalone="no"?>
<svg width="247px" height="250px" viewBox="0 0 247 250" version="1.1" xmlns="http://www.w3.org/2000/svg" xmlns:xlink="http://www.w3.org/1999/xlink" xmlns:sketch="http://www.bohemiancoding.com/sketch/ns">
    <!-- Generator: Sketch 3.5.2 (25235) - http://www.bohemiancoding.com/sketch -->
    <title>grappling-iron copy 8</title>
    <desc>Created with Sketch.</desc>
    <defs></defs>
    <g id="Page-1" stroke="none" stroke-width="1" fill="none" fill-rule="evenodd" sketch:type="MSPage">
        <g id="Welcome-Page" sketch:type="MSArtboardGroup" transform="translate(-39.000000, -596.000000)" fill="#F8F3ED">
            <g id="Group-25" sketch:type="MSLayerGroup" transform="translate(151.721120, 719.783620) rotate(-10.000000) translate(-151.721120, -719.783620) translate(26.795246, 594.857746)">
                <path d="M247.864101,190.940871 C246.414961,191.827844 244.574386,191.748725 243.212694,190.740989 L233.739148,183.74514 C211.419059,244.97964 145.175032,249.851749 124.924548,249.851749 C104.674064,249.851749 38.4217082,244.97964 16.1057828,183.74514 L6.63640152,190.736825 C5.2705453,191.752889 3.43413495,191.827844 1.9849948,190.940871 C0.540018857,190.053897 -0.222028977,188.375726 0.0569721426,186.701719 L8.38536377,136.731369 C8.63105132,135.244752 9.67210027,134.003821 11.0962552,133.495789 C12.516246,133.00025 14.111133,133.291744 15.2437943,134.295315 L54.4413694,168.824827 C55.7447627,169.96998 56.1986601,171.810555 55.5781949,173.434591 C54.9618939,175.050299 53.4169773,176.112169 51.688836,176.112169 L51.6555224,176.112169 L40.8827479,176.028885 C48.1451054,192.972998 67.6543627,221.714278 116.841844,224.608394 C119.136316,224.741648 120.889442,226.711313 120.752024,229.005784 C120.618769,231.300256 118.582478,233.049219 116.350469,232.920129 C100.709749,231.999841 48.3241658,224.970679 30.8720211,173.147262 C30.4389448,171.868854 30.655483,170.46552 31.442516,169.3745 C32.229549,168.295974 33.4829719,167.654688 34.8155146,167.654688 L34.8488281,167.654688 L40.566269,167.700494 L15.3645559,145.501166 L9.96359398,177.927759 L15.7684829,173.642801 C16.855338,172.834947 18.2628362,172.610081 19.5495727,173.038993 C20.832145,173.463741 21.831552,174.483969 22.2229864,175.779034 C28.2402494,195.546471 50.2938304,241.523357 124.924548,241.523357 C199.546937,241.523357 221.604682,195.550635 227.626109,175.779034 C228.017543,174.488133 229.01695,173.467905 230.299523,173.043157 C231.577931,172.610081 232.993757,172.843276 234.080613,173.642801 L239.889666,177.931923 L234.48454,145.501166 L209.286991,167.700494 L215.000267,167.654688 L215.033581,167.654688 C216.370288,167.654688 217.623711,168.295974 218.40658,169.378665 C219.193613,170.46552 219.405986,171.873018 218.977074,173.151426 C201.512437,224.974843 149.131018,231.999841 133.498627,232.920129 C132.357637,232.982591 131.22914,232.578664 130.396301,231.791631 C129.563462,231.004598 129.088744,229.909415 129.088744,228.764261 L129.088744,77.0376225 C129.088744,74.7389864 130.954303,72.8734267 133.252939,72.8734267 C135.551575,72.8734267 137.417135,74.7389864 137.417135,77.0376225 L137.417135,91.6123078 L162.40231,91.6123078 C164.700946,91.6123078 166.566506,93.4778676 166.566506,95.7765037 C166.566506,98.0751397 164.700946,99.9406995 162.40231,99.9406995 L137.417135,99.9406995 L137.417135,224.271094 C183.364872,219.977808 201.920528,192.460802 208.966348,176.03305 L198.197737,176.112169 L198.164424,176.112169 C196.436282,176.112169 194.891366,175.046135 194.275065,173.434591 C193.6546,171.810555 194.108497,169.96998 195.41189,168.824827 L234.605301,134.295315 C235.742127,133.295908 237.328685,133.00025 238.75284,133.495789 C240.176995,134.003821 241.218044,135.240587 241.463732,136.731369 L249.792123,186.701719 C250.071124,188.375726 249.309077,190.053897 247.864101,190.940871 L247.864101,190.940871 Z M124.924548,49.9703497 C115.738332,49.9703497 108.267764,42.4997824 108.267764,33.3135665 C108.267764,24.1273505 115.738332,16.6567832 124.924548,16.6567832 C134.110764,16.6567832 141.581331,24.1273505 141.581331,33.3135665 C141.581331,42.4997824 134.110764,49.9703497 124.924548,49.9703497 L124.924548,49.9703497 Z M133.252939,33.3135665 C133.252939,28.7204585 129.517656,24.9851749 124.924548,24.9851749 C120.33144,24.9851749 116.596156,28.7204585 116.596156,33.3135665 C116.596156,37.9066745 120.33144,41.6419581 124.924548,41.6419581 C129.517656,41.6419581 133.252939,37.9066745 133.252939,33.3135665 L133.252939,33.3135665 Z M87.4467854,99.9406995 L112.43196,99.9406995 L112.43196,212.373986 C112.43196,214.672622 114.29752,216.538182 116.596156,216.538182 C118.894792,216.538182 120.760352,214.672622 120.760352,212.373986 L120.760352,61.2386636 C120.760352,59.3980891 119.552735,57.7740527 117.787116,57.249364 C107.276686,54.1178888 99.9393729,44.2778941 99.9393729,33.3135665 C99.9393729,19.5342426 111.145224,8.32839162 124.924548,8.32839162 C138.703872,8.32839162 149.909723,19.5342426 149.909723,33.3135665 C149.909723,44.2778941 142.57241,54.1178888 132.061979,57.249364 C129.85912,57.9031428 128.605697,60.2225998 129.26364,62.4296236 C129.917419,64.6366474 132.24104,65.8859061 134.443899,65.2321274 C148.452254,61.0596032 158.238114,47.934058 158.238114,33.3135665 C158.238114,14.9452988 143.292815,0 124.924548,0 C106.55628,0 91.6109812,14.9452988 91.6109812,33.3135665 C91.6109812,46.8721881 100.030985,59.1482373 112.43196,64.1869142 L112.43196,91.6123078 L87.4467854,91.6123078 C85.1481493,91.6123078 83.2825896,93.4778676 83.2825896,95.7765037 C83.2825896,98.0751397 85.1481493,99.9406995 87.4467854,99.9406995 L87.4467854,99.9406995 Z" id="grappling-iron-copy-8" sketch:type="MSShapeGroup"></path>
            </g>
        </g>
    </g>
</svg>